<?xml version="1.0" standalone="no"?><!DOCTYPE svg PUBLIC "-//W3C//DTD SVG 1.1//EN" "http://www.w3.org/Graphics/SVG/1.1/DTD/svg11.dtd"><svg t="1700746688785" class="icon" viewBox="0 0 1024 1024" version="1.1" xmlns="http://www.w3.org/2000/svg" p-id="2638" xmlns:xlink="http://www.w3.org/1999/xlink" width="200" height="200"><path d="M229.7 364.4h-0.2 0.2z m40.5-32.9h0.1c22.5 0 40.7-18.2 40.7-40.7V178.2c0-22.5-18.2-40.7-40.7-40.7h-0.1c-22.5 0-40.7 18.2-40.7 40.7v112.7c0 22.4 18.2 40.6 40.7 40.6zM929 266.4c-2.3-57.5-48.4-47.8-48.4-47.8H848v97.3s-6.6 48.5-48.7 48.6h-0.5c-13.7 0-37.8-0.1-64.7 0h-16.3c-43-1.4-48.8-48.6-48.8-48.6v-97.3H359.8v97.3s-5.8 47.2-48.8 48.6h-16.3c-27.1-0.1-51.3 0-65 0h-0.1c-1.3 0-0.7 0 0 0-42.2-0.1-48.8-48.6-48.8-48.6v-97.3h-32.5s-46.1-9.7-48.4 47.8c-0.3 2.3-0.4 3.7-0.4 3.7s0.1 531.8 0.1 555.4c0 57.1 57.4 57.6 57.4 57.6h714.9s57.4-0.5 57.4-57.6c0-23.6 0.1-555.4 0.1-555.4s-0.1-1.4-0.4-3.7zM515.5 766c0 43.6-82.9 53.6-160.8 53.6-77.7 0-161.7-9.9-161.7-53.6v-12c0-32 57.3-64.5 106.2-82.3 3.5-1.3 20.4-10.6 11-35.5-24.2-24.9-42.5-65.3-42.5-105 0-60.8 39.9-92.7 86.6-92.7 46.7 0 86.8 31.9 86.8 92.7 0 39.6-18.4 79.7-42.5 104.7h0.1c-9.2 28.3 5.5 35 7.9 35.8 51.3 17.1 108.9 49.3 108.9 82.3v12z m292-12.4h-163c-22.3 0-40.4-18.1-40.4-40.4 0-22.3 18.1-40.4 40.4-40.4h163c22.3 0 40.4 18.1 40.4 40.4 0 22.3-18.1 40.4-40.4 40.4z m0-162.4h-163c-22.3 0-40.4-18.1-40.4-40.4 0-22.3 18.1-40.4 40.4-40.4h163c22.3 0 40.4 18.1 40.4 40.4 0 22.3-18.1 40.4-40.4 40.4z m-8.2-226.8h-0.4 0.4c-0.1 0 0 0 0 0z m-40.9-32.9h0.1c22.5 0 40.7-18.2 40.7-40.7V178.2c0-22.5-18.2-40.7-40.7-40.7h-0.1c-22.5 0-40.7 18.2-40.7 40.7v112.7c0.1 22.4 18.3 40.6 40.7 40.6z" p-id="2639" fill="#5b08c3"></path></svg>