<?xml version="1.0" standalone="no"?><!DOCTYPE svg PUBLIC "-//W3C//DTD SVG 1.1//EN" "http://www.w3.org/Graphics/SVG/1.1/DTD/svg11.dtd"><svg t="1700747686055" class="icon" viewBox="0 0 1024 1024" version="1.1" xmlns="http://www.w3.org/2000/svg" p-id="5078" xmlns:xlink="http://www.w3.org/1999/xlink" width="200" height="200"><path d="M763.485 155C830.044 155 884 211.65 884 281.532v542.936C884 894.35 830.044 951 763.485 951h-503.97C192.956 951 139 894.35 139 824.468V281.532C139 211.65 192.956 155 259.515 155h503.97z m-73.792 575.145H331.007c-9.529 0-17.254 7.725-17.254 17.254 0 9.53 7.725 17.254 17.254 17.254h358.686c9.53 0 17.255-7.725 17.255-17.254 0-9.53-7.725-17.254-17.255-17.254z m0-151.839H333.307c-9.53 0-17.255 7.725-17.255 17.255 0 9.529 7.725 17.254 17.255 17.254h356.386c9.53 0 17.255-7.725 17.255-17.254 0-9.53-7.725-17.255-17.255-17.255zM411.208 263.48c-12.382-8.235-27.95-2.56-33.694 10.447l-79.535 180.077-0.226 0.535c-3.46 8.594 0.496 18.448 9.03 22.221l0.535 0.226c8.59 3.463 18.438-0.496 22.209-9.034l19.844-44.934h102.306l21.214 45.282 0.255 0.522c4.205 8.255 14.23 11.74 22.679 7.78 8.624-4.045 12.339-14.318 8.297-22.947l-84.434-180.242-0.388-0.793c-1.876-3.667-4.626-6.835-8.092-9.14z m264.16 180.244h-120.18l-0.558 0.008c-9.266 0.295-16.687 7.903-16.687 17.246 0 9.53 7.72 17.254 17.245 17.254h120.18l0.558-0.009c9.267-0.294 16.688-7.903 16.688-17.245 0-9.53-7.721-17.254-17.246-17.254z m-63.845-162.191c-9.524 0-17.245 7.72-17.245 17.245v26.466h-27.583c-10.165 0-18.405 8.24-18.405 18.404 0 10.165 8.24 18.405 18.405 18.405h27.582v26.466c0 9.524 7.722 17.245 17.246 17.245 9.525 0 17.246-7.721 17.246-17.245v-26.466h27.583c10.164 0 18.404-8.24 18.404-18.405 0-10.164-8.24-18.404-18.404-18.404h-27.584v-26.466c0-9.524-7.72-17.245-17.245-17.245zM399.02 310.606l36.493 77.902h-70.9l34.407-77.902z" fill="#333333" p-id="5079"></path></svg>