<?xml version="1.0" standalone="no"?><!DOCTYPE svg PUBLIC "-//W3C//DTD SVG 1.1//EN" "http://www.w3.org/Graphics/SVG/1.1/DTD/svg11.dtd"><svg height="257" node-id="1" sillyvg="true" template-height="257" template-width="176" version="1.1" viewBox="0 0 176 257" width="176" xmlns="http://www.w3.org/2000/svg" xmlns:xlink="http://www.w3.org/1999/xlink"><defs node-id="24"></defs><g node-id="26"><g node-id="27"><path d="M 154.35 18.04 L 155.97 18.59 L 157.29 19.46 L 158.35 20.65 L 159.08 22.07 L 159.40 23.61 L 159.32 25.30 L 156.36 44.99 L 156.03 46.62 L 155.28 48.05 L 154.17 49.23 L 152.73 50.09 L 151.11 50.53 L 149.48 50.51 L 147.91 50.06 L 146.49 49.18 L 145.37 47.94 L 144.66 46.49 L 144.36 44.90 L 144.51 43.25 L 147.46 23.56 L 147.88 21.92 L 148.64 20.55 L 149.75 19.39 L 151.12 18.55 L 152.63 18.10 L 154.35 18.04 L 154.35 18.04 Z" fill="#ffba99" fill-rule="evenodd" group-id="1,2" id="圆角矩形_5" node-id="7" stroke="none" target-height="32.49018" target-width="15.04097" target-x="144.3583" target-y="18.036827"></path><path d="M 139.98 12.91 L 138.73 19.10 L 137.79 25.33 L 137.17 31.61 L 137.35 33.31 L 137.76 34.39 L 138.37 35.23 L 138.92 35.67 L 139.55 35.99 L 141.49 36.48 L 143.50 36.56 L 145.68 36.06 L 147.74 35.18 L 149.51 34.00 L 151.15 32.66 L 153.12 30.51 L 154.85 28.17 L 156.28 25.37 L 157.08 23.49 L 157.73 21.55 L 158.34 18.96 L 158.62 16.23 L 158.39 13.44 L 157.86 11.67 L 156.92 10.07 L 155.53 8.58 L 153.83 7.48 L 151.41 6.61 L 148.07 6.05 L 146.51 6.10 L 145.21 6.39 L 144.12 6.91 L 142.70 8.02 L 141.64 9.29 L 140.83 10.67 L 140.35 11.77 L 139.98 12.91 Z M 157.01 20.44 L 158.50 19.38 L 160.28 18.91 L 161.17 19.32 L 161.63 19.95 L 161.86 20.72 L 161.89 21.41 L 161.81 22.15 L 161.38 23.69 L 160.38 24.96 L 158.70 25.98 L 156.91 26.72 L 155.00 27.19 L 157.01 20.44 Z" fill="#ffd6c2" fill-rule="evenodd" group-id="1,2" id="形状_16" node-id="8" stroke="none" target-height="30.511448" target-width="24.717133" target-x="137.174" target-y="6.0535173"></path><path d="M 150.69 15.49 L 148.85 15.49 L 144.81 15.18 L 142.62 14.73 L 140.82 14.04 L 139.48 13.01 L 138.47 11.71 L 137.83 10.20 L 137.60 8.54 L 138.21 6.06 L 139.33 3.76 L 140.88 2.30 L 142.73 1.24 L 144.07 0.78 L 145.43 0.65 L 146.83 0.84 L 148.38 1.81 L 149.50 3.24 L 151.13 5.13 L 153.01 6.77 L 154.93 7.38 L 156.96 7.35 L 158.62 7.50 L 160.15 8.05 L 161.49 8.95 L 162.59 10.19 L 163.74 12.62 L 164.38 15.18 L 164.49 17.82 L 164.08 20.47 L 162.74 23.84 L 161.07 27.07 L 160.09 28.44 L 158.91 29.60 L 157.52 30.57 L 156.48 30.74 L 155.54 30.28 L 155.27 29.79 L 155.23 29.23 L 155.43 28.70 L 155.84 28.31 L 157.12 26.49 L 158.16 26.42 L 159.11 26.08 L 160.28 25.17 L 160.90 24.34 L 161.47 23.06 L 161.95 21.16 L 161.88 20.73 L 161.55 20.40 L 160.63 20.00 L 160.13 19.89 L 158.99 20.01 L 158.00 20.58 L 157.20 21.94 L 156.57 23.39 L 156.60 22.08 L 156.39 19.40 L 156.03 18.06 L 155.49 17.19 L 154.00 16.29 L 152.42 15.73 L 150.69 15.49 L 150.69 15.49 Z" fill="#3a1200" fill-rule="evenodd" group-id="1,2" id="形状_17" node-id="9" stroke="none" target-height="30.089422" target-width="26.891022" target-x="137.60356" target-y="0.6466134"></path></g><g node-id="28"><path d="M 35.70 230.27 L 27.99 240.21 L 1.16 224.52 L 2.25 223.18 L 3.60 222.15 L 5.15 221.44 L 6.85 221.10 L 8.97 221.18 L 11.14 221.79 L 13.18 222.72 L 14.74 223.63 L 16.26 224.66 L 18.11 225.56 L 20.13 225.92 L 20.82 225.75 L 22.09 225.19 L 24.92 223.62 L 27.46 222.07 L 28.56 221.36 L 35.70 230.27 Z" fill="#1d1f36" fill-rule="evenodd" group-id="1,3" id="形状_30_拷贝_2" node-id="11" stroke="none" target-height="19.105362" target-width="34.540497" target-x="1.1584301" target-y="221.10059"></path><path d="M 58.90 246.31 L 51.19 256.24 L 24.36 240.56 L 25.46 239.22 L 26.81 238.18 L 28.35 237.48 L 30.05 237.14 L 32.17 237.22 L 34.34 237.83 L 36.39 238.76 L 37.95 239.66 L 39.46 240.70 L 41.31 241.60 L 43.33 241.96 L 45.78 241.57 L 48.19 240.96 L 58.90 246.31 Z" fill="#000000" fill-rule="nonzero" group-id="1,3" id="形状_30" node-id="12" stroke="none" target-height="19.105377" target-width="34.540493" target-x="24.362732" target-y="237.13904"></path><path d="M 143.93 139.96 L 143.20 142.04 L 141.00 147.22 L 139.39 150.38 L 137.32 153.86 L 134.92 157.21 L 132.13 160.33 L 130.06 162.19 L 127.83 163.74 L 125.44 165.01 L 121.90 166.35 L 118.14 167.46 L 114.15 168.34 L 108.11 169.27 L 102.18 169.80 L 96.38 170.04 L 91.36 170.05 L 83.52 169.72 L 80.50 169.46 L 78.80 174.09 L 76.59 178.46 L 73.86 182.58 L 66.56 191.99 L 58.10 202.72 L 49.61 213.42 L 42.17 222.74 L 36.91 229.32 L 34.90 231.81 L 26.04 222.50 L 64.90 149.49 L 120.58 121.88 L 143.93 139.96 Z" fill="#2633a4" fill-rule="evenodd" group-id="1,3" id="形状_50_拷贝" node-id="13" stroke="none" target-height="109.92583" target-width="117.897484" target-x="26.03701" target-y="121.88487"></path><path d="M 164.22 130.47 L 163.97 132.67 L 162.97 138.21 L 162.09 141.65 L 160.84 145.49 L 159.25 149.29 L 157.22 152.95 L 155.60 155.22 L 153.78 157.23 L 151.72 158.99 L 148.56 161.07 L 145.15 162.99 L 141.45 164.73 L 135.77 166.96 L 130.10 168.79 L 124.49 170.31 L 119.60 171.42 L 111.88 172.83 L 108.88 173.24 L 108.24 178.14 L 107.05 182.88 L 105.31 187.50 L 103.13 191.70 L 99.99 196.84 L 96.43 202.10 L 92.29 207.82 L 83.37 219.33 L 74.42 230.23 L 66.57 239.40 L 61.01 245.73 L 58.90 248.09 L 48.19 240.96 L 89.25 157.21 L 137.44 118.00 L 164.22 130.47 Z" fill="#3644be" fill-rule="evenodd" group-id="1,3" id="形状_50" node-id="14" stroke="none" target-height="130.08974" target-width="116.02151" target-x="48.19355" target-y="118"></path></g><g node-id="29"><path d="M 80.63 10.90 L 79.25 9.86 L 76.36 7.68 L 73.84 5.77 L 73.22 5.54 L 72.88 5.79 L 72.59 6.98 L 72.57 7.73 L 71.40 7.38 L 70.49 6.56 L 68.58 3.35 L 68.16 2.73 L 67.58 2.26 L 66.95 2.07 L 66.32 2.02 L 65.50 2.17 L 64.72 2.58 L 63.90 3.50 L 63.29 4.79 L 62.79 7.05 L 63.00 8.52 L 63.99 10.59 L 65.38 12.67 L 67.07 14.80 L 70.25 18.33 L 71.71 19.81 L 80.63 10.90 Z" fill="#ffd6c2" fill-rule="evenodd" group-id="1,4" id="形状_26_拷贝" node-id="16" stroke="none" target-height="17.783995" target-width="17.840797" target-x="62.78997" target-y="2.0224433"></path><path d="M 144.89 46.25 L 110.08 39.29 L 108.59 38.84 L 107.16 38.22 L 106.08 37.62 L 105.24 36.72 L 81.11 10.92 L 69.92 18.22 L 96.32 48.89 L 99.29 51.78 L 102.52 54.39 L 105.85 56.06 L 111.63 58.60 L 118.02 61.29 L 123.20 63.43 L 125.34 64.30 L 144.89 46.25 Z" fill="#ffb73a" fill-rule="evenodd" group-id="1,4" id="形状_44" node-id="17" stroke="none" target-height="53.38013" target-width="74.96635" target-x="69.92486" target-y="10.916575"></path><path d="M 145.21 42.69 L 145.24 44.73 L 145.60 46.74 L 146.27 47.98 L 147.26 48.98 L 150.65 47.16 L 153.82 44.96 L 155.82 42.88 L 157.46 40.51 L 169.08 49.22 L 171.10 50.87 L 172.80 52.77 L 174.19 54.97 L 174.92 57.30 L 175.23 59.67 L 175.12 62.10 L 164.81 131.51 L 116.19 124.32 L 126.65 53.93 L 127.69 51.56 L 129.09 49.41 L 130.80 47.49 L 132.81 45.85 L 135.72 44.39 L 138.78 43.37 L 141.96 42.80 L 145.21 42.69 L 145.21 42.69 Z" fill="#ffcc3a" fill-rule="evenodd" group-id="1,4" id="形状_24" node-id="18" stroke="none" target-height="91.00534" target-width="59.040703" target-x="116.19102" target-y="40.506714"></path><path d="M 109.16 86.55 L 105.10 86.00 L 101.02 85.72 L 100.34 85.93 L 100.28 86.30 L 100.96 87.30 L 101.52 87.83 L 100.29 88.31 L 98.97 88.26 L 95.00 87.17 L 94.20 86.98 L 93.37 87.00 L 92.73 87.25 L 92.19 87.59 L 91.66 88.17 L 91.36 88.93 L 91.42 90.06 L 91.91 91.31 L 93.26 93.19 L 94.48 94.14 L 96.63 95.16 L 99.04 96.00 L 101.65 96.74 L 106.22 97.78 L 108.22 98.16 L 109.16 86.55 Z" fill="#ffd6c2" fill-rule="evenodd" group-id="1,4" id="形状_26" node-id="19" stroke="none" target-height="12.444382" target-width="17.79937" target-x="91.36383" target-y="85.71644"></path><path d="M 155.58 58.99 L 150.23 83.92 L 123.46 87.48 L 121.68 89.26 L 162.72 96.38 L 162.72 60.77 Z" fill="#ff803a" fill-rule="evenodd" group-id="1,4" id="形状_52" node-id="20" stroke="none" target-height="37.39726" target-width="41.046158" target-x="121.676926" target-y="58.9863"></path><path d="M 119.89 101.73 L 166.29 114.19 L 168.08 108.85 L 119.89 98.16 Z" fill="#ff803a" fill-rule="evenodd" group-id="1,4" id="形状_53" node-id="21" stroke="none" target-height="16.027397" target-width="48.184616" target-x="119.8923" target-y="98.16438"></path><path d="M 175.22 60.77 L 173.43 105.29 L 172.74 107.17 L 171.65 108.85 L 169.99 109.99 L 168.08 110.63 L 107.40 98.16 L 109.18 85.70 L 155.58 91.04 L 155.58 58.99" fill="#ffcc3a" fill-rule="evenodd" group-id="1,4" id="形状_51" node-id="22" stroke="none" target-height="51.643833" target-width="67.81539" target-x="107.4" target-y="58.9863"></path></g></g></svg>