<?xml version="1.0" standalone="no"?><!DOCTYPE svg PUBLIC "-//W3C//DTD SVG 1.1//EN" "http://www.w3.org/Graphics/SVG/1.1/DTD/svg11.dtd"><svg t="1709653367530" class="icon" viewBox="0 0 1059 1024" version="1.1" xmlns="http://www.w3.org/2000/svg" p-id="8677" width="49.640625" height="48" xmlns:xlink="http://www.w3.org/1999/xlink"><path d="M353.103448 0h353.103449a353.103448 353.103448 0 0 1 353.103448 353.103448v317.793104a353.103448 353.103448 0 0 1-353.103448 353.103448H353.103448A353.103448 353.103448 0 0 1 0 670.896552V353.103448A353.103448 353.103448 0 0 1 353.103448 0z" fill="#FFEAEB" p-id="8678"></path><path d="M421.652598 502.383816a173.550345 173.550345 0 1 1 255.599816 0.070621 290.333425 290.333425 0 0 1 160.77977 258.589425c0 97.26823-180.777195 111.816092-288.532598 111.816092-188.757333 0-288.532598-38.653057-288.532597-111.816092a286.543448 286.543448 0 0 1 160.697379-258.671816z" fill="#F0BEBF" p-id="8679"></path><path d="M351.020138 472.02869a173.550345 173.550345 0 1 1 255.599816 0.07062 290.333425 290.333425 0 0 1 160.77977 258.589426c0 97.26823-180.777195 111.816092-288.532598 111.816092-188.757333 0-288.532598-38.653057-288.532597-111.816092a286.543448 286.543448 0 0 1 160.697379-258.671816z m127.835218-257.306483a140.33508 140.33508 0 1 0 140.323311 140.33508 140.488092 140.488092 0 0 0-140.323311-140.33508z m0 594.555586c155.094805 0 255.317333-30.849471 255.317334-78.577287a256.753287 256.753287 0 0 0-154.682851-234.531311 172.373333 172.373333 0 0 1-201.268965 0A253.598897 253.598897 0 0 0 223.549793 730.688736c0 49.940598 93.054529 78.577287 255.317333 78.577287z" fill="#BC1313" p-id="8680"></path><path d="M702.875954 422.005701l-22.763402-24.717241c24.164046-14.830345 50.046529-51.788506 50.046528-83.214713a99.433931 99.433931 0 0 0-99.328-99.328v-33.215264a132.684506 132.684506 0 0 1 132.543265 132.543264 136.533333 136.533333 0 0 1-34.286345 83.438345 244.818391 244.818391 0 0 1 139.923126 221.419402H835.795862a213.03908 213.03908 0 0 0-132.919908-196.925793c-1.800828 1.271172 1.800828-1.106391 0 0z" fill="#BC1313" p-id="8681"></path></svg>