<?xml version="1.0" standalone="no"?><!DOCTYPE svg PUBLIC "-//W3C//DTD SVG 1.1//EN" "http://www.w3.org/Graphics/SVG/1.1/DTD/svg11.dtd"><svg t="1709653300800" class="icon" viewBox="0 0 1024 1024" version="1.1" xmlns="http://www.w3.org/2000/svg" p-id="6699" width="48" height="48" xmlns:xlink="http://www.w3.org/1999/xlink"><path d="M512 0C229.2 0 0 229.2 0 512s229.2 512 512 512 512-229.2 512-512S794.8 0 512 0z m0 832c-35.3 0-64-28.7-64-64s28.7-64 64-64 64 28.7 64 64-28.7 64-64 64z m64-320c0 35.3-28.7 64-64 64s-64-28.7-64-64V256c0-35.3 28.7-64 64-64s64 28.7 64 64v256z" fill="#F83641" p-id="6700"></path></svg>