<?xml version="1.0" standalone="no"?><!DOCTYPE svg PUBLIC "-//W3C//DTD SVG 1.1//EN" "http://www.w3.org/Graphics/SVG/1.1/DTD/svg11.dtd"><svg t="1709653409204" class="icon" viewBox="0 0 1024 1024" version="1.1" xmlns="http://www.w3.org/2000/svg" p-id="10639" xmlns:xlink="http://www.w3.org/1999/xlink" width="48" height="48"><path d="M683.3 377c77 0 139.4-62.4 139.4-139.4S760.3 98.2 683.3 98.2s-139.4 62.4-139.4 139.4c0.1 77 62.5 139.4 139.4 139.4zM683.3 404.8c-153.9 0-278.7 124.8-278.7 278.8h557.5c0-153.9-124.8-278.8-278.8-278.8z" fill="#2589EE" opacity=".6" p-id="10640"></path><path d="M342.6 377c77 0 139.4-62.4 139.4-139.4S419.6 98.2 342.6 98.2s-139.4 62.4-139.4 139.4S265.6 377 342.6 377zM342.6 404.8c-153.9 0-278.7 124.8-278.7 278.8h557.5c-0.1-153.9-124.9-278.8-278.8-278.8z" fill="#2589EE" opacity=".6" p-id="10641"></path><path d="M512.1 517.2c85.3 0 154.5-69.2 154.5-154.5s-69.2-154.5-154.5-154.5-154.5 69.2-154.5 154.5 69.2 154.5 154.5 154.5zM512.1 548.1c-170.6 0-309 138.3-309 309H821c0.1-170.7-138.3-309-308.9-309z" fill="#2589EE" p-id="10642"></path></svg>