<?xml version="1.0" standalone="no"?><!DOCTYPE svg PUBLIC "-//W3C//DTD SVG 1.1//EN" "http://www.w3.org/Graphics/SVG/1.1/DTD/svg11.dtd"><svg height="307" node-id="1" sillyvg="true" template-height="307" template-width="283" version="1.1" viewBox="0 0 283 307" width="283" xmlns="http://www.w3.org/2000/svg" xmlns:xlink="http://www.w3.org/1999/xlink"><defs node-id="146"><clipPath id="clip-path" node-id="5"><path d="M 199.83 4.77 L 207.56 44.15 L 208.56 44.01 L 216.50 42.93 L 222.05 42.17 C 222.05 42.17 208.53 35.00 210.00 33.29 C 211.47 31.58 223.05 33.97 223.05 33.97 C 223.05 33.97 211.26 28.32 211.15 26.70 C 211.04 25.08 222.58 27.50 222.58 27.50 C 222.58 27.50 212.29 20.12 213.79 18.38 C 214.90 17.10 222.53 19.80 227.79 22.50 L 227.53 13.78 L 227.14 1.16 Z" fill="#000000" fill-rule="nonzero" node-id="149" stroke="none" target-height="42.99" target-width="27.959991" target-x="199.83" target-y="1.16"></path></clipPath></defs><g node-id="484"><g node-id="485"><path d="M 33.19 166.57 L 36.33 185.48 L 79.00 178.06 C 81.15 177.67 83.20 176.83 85.00 175.58 L 93.47 169.58 L 97.74 166.58 L 98.82 166.38 C 97.63 165.01 96.62 163.48 95.82 161.85 C 93.14 155.54 92.69 141.69 92.69 141.69 C 90.52 143.47 88.27 145.30 86.12 147.03 L 86.12 147.03 C 79.76 152.14 74.22 156.45 74.22 156.45 Z" fill="#fbd6d0" fill-rule="nonzero" group-id="1,2" node-id="157" stroke="none" target-height="43.789993" target-width="65.630005" target-x="33.19" target-y="141.69"></path><path d="M 147.84 104.29 L 156.39 99.29 L 156.56 99.20 C 156.56 99.20 159.14 93.83 155.68 90.83 C 152.22 87.83 152.29 88.34 151.97 84.04 C 151.65 79.74 154.62 76.27 144.33 68.89 C 134.04 61.51 127.24 57.14 121.12 62.43 L 121.12 62.43 C 120.23 63.20 119.39 64.02 118.59 64.88 C 118.01 65.47 117.48 66.10 117.00 66.77 C 115.76 68.39 115.29 69.42 113.73 70.39 C 113.17 70.74 112.58 71.04 111.96 71.28 C 107.22 73.28 108.51 91.04 108.96 97.51 C 109.41 103.98 97.96 102.73 98.81 114.51 C 100.27 134.58 82.25 130.88 86.04 147.06 C 88.19 145.33 90.44 143.50 92.61 141.72 C 96.21 138.72 99.61 135.90 101.84 133.80 C 105.39 130.52 111.29 125.65 116.58 121.40 L 122.46 116.70 C 123.03 116.26 123.56 115.77 124.05 115.25 C 124.49 114.81 124.89 114.33 125.26 113.83 C 127.78 110.52 128.85 106.32 128.21 102.21 C 127.79 98.98 126.69 95.88 125.00 93.10 C 116.91 93.69 114.83 87.34 116.21 83.99 C 117.59 80.64 122.80 85.13 122.80 85.13 C 126.61 84.66 129.72 81.95 132.03 77.96 C 133.16 76.04 133.77 72.41 134.80 71.26 C 136.39 69.50 139.80 72.52 139.80 72.52 L 141.80 72.38 C 141.43 72.38 148.34 90.31 143.46 95.28 C 142.87 95.89 142.19 96.42 141.46 96.85 L 141.57 97.04 L 142.02 103.25 L 142.02 103.54 C 142.07 104.22 142.40 104.85 142.93 105.28 C 143.45 105.72 144.13 105.92 144.81 105.84 C 145.15 105.80 145.47 105.69 145.76 105.52 Z" fill="#ef896a" fill-rule="nonzero" group-id="1,2" node-id="159" stroke="none" target-height="89.92" target-width="76.89" target-x="82.25" target-y="57.14"></path><path d="M 129.15 115.57 L 113.87 126.18 C 113.87 126.18 124.00 109.60 119.13 103.65 C 113.88 97.25 115.85 87.50 115.85 87.50 L 126.63 92.00 L 129.68 102.00 Z" fill="#d86b59" fill-rule="nonzero" group-id="1,2" node-id="161" stroke="none" target-height="38.68" target-width="15.80999" target-x="113.87" target-y="87.5"></path><path d="M 141.70 72.38 C 141.70 72.38 143.70 81.90 148.55 88.55 C 153.40 95.20 152.45 100.92 151.31 103.81 C 150.17 106.70 142.23 108.10 142.23 108.10 L 139.92 92.18 Z" fill="#d86b59" fill-rule="nonzero" group-id="1,2" node-id="163" stroke="none" target-height="35.72" target-width="13.479996" target-x="139.92" target-y="72.38"></path><path d="M 149.80 103.17 L 144.77 105.84 L 132.34 113.33 L 125.33 113.82 L 121.67 117.38 L 130.07 126.26 L 153.24 117.90 L 149.80 103.17 Z" fill="#fbe7b4" fill-rule="nonzero" group-id="1,2" node-id="165" stroke="none" target-height="23.090004" target-width="31.570007" target-x="121.67" target-y="103.17"></path><path d="M 16.49 171.49 C 16.49 171.49 3.64 171.82 2.49 174.33 C 1.34 176.84 11.72 177.28 12.55 177.33 C 13.38 177.38 1.00 179.76 1.16 182.51 C 1.32 185.26 14.39 182.94 14.39 182.94 C 14.39 182.94 3.39 187.89 4.91 189.44 C 6.43 190.99 17.26 188.00 17.26 188.00 C 17.26 188.00 10.77 193.13 12.78 194.09 C 14.79 195.05 26.47 187.18 26.47 187.18 L 30.52 186.48 L 27.31 168.00 L 24.75 168.62 C 24.75 168.62 12.51 164.62 11.21 165.91 C 9.91 167.20 16.49 171.49 16.49 171.49 Z" fill="#fbd6d0" fill-rule="nonzero" group-id="1,2" node-id="167" stroke="none" target-height="30.430008" target-width="29.52" target-x="1" target-y="164.62"></path><path d="M 38.80 258.39 L 32.50 304.69 L 38.22 305.87 L 40.58 287.65 L 43.59 264.43 L 44.69 256.01 L 38.80 258.39 Z" fill="#fdfeec" fill-rule="nonzero" group-id="1,2" node-id="169" stroke="none" target-height="49.859985" target-width="12.189999" target-x="32.5" target-y="256.01"></path><g node-id="486"><path d="M 38.80 258.39 L 32.50 304.69 L 38.22 305.87 L 40.58 287.65 L 43.59 264.43 L 44.69 256.01 L 38.80 258.39 Z" fill="#0095d7" fill-rule="nonzero" group-id="1,2,3" node-id="173" stroke="none" target-height="49.859985" target-width="12.189999" target-x="32.5" target-y="256.01"></path></g><path d="M 27.00 167.60 L 30.16 187.02 L 36.60 185.93 L 33.11 166.11 L 27.00 167.60 Z" fill="#6ac3af" fill-rule="nonzero" group-id="1,2" node-id="176" stroke="none" target-height="20.910004" target-width="9.599998" target-x="27" target-y="166.11"></path><path d="M 40.58 287.65 L 38.22 305.87 L 46.66 295.29 C 46.66 295.29 45.74 289.31 40.58 287.65 Z" fill="#709dc4" fill-rule="nonzero" group-id="1,2" node-id="178" stroke="none" target-height="18.220001" target-width="8.439999" target-x="38.22" target-y="287.65"></path><path d="M 43.59 264.43 L 40.59 287.65 C 45.75 289.31 46.67 295.29 46.67 295.29 L 56.79 282.59 L 57.12 278.44 L 57.64 271.75 L 49.80 269.69 L 52.88 252.69 L 48.88 254.33 C 48.87 258.36 46.90 262.13 43.59 264.43 Z" fill="#fff5ca" fill-rule="nonzero" group-id="1,2" node-id="180" stroke="none" target-height="42.600006" target-width="17.05" target-x="40.59" target-y="252.69"></path><path d="M 44.69 256.00 L 43.59 264.42 C 46.88 262.11 48.84 258.34 48.83 254.32 Z" fill="#709dc4" fill-rule="nonzero" group-id="1,2" node-id="182" stroke="none" target-height="10.100006" target-width="5.24572" target-x="43.59" target-y="254.32"></path><path d="M 52.87 252.69 L 49.80 269.69 L 57.63 271.75 L 57.11 278.44 L 99.79 264.60 L 90.77 239.99 L 90.75 239.94 L 52.87 252.69 Z" fill="#6ac3af" fill-rule="nonzero" group-id="1,2" node-id="184" stroke="none" target-height="38.5" target-width="49.99" target-x="49.8" target-y="239.94"></path><path d="M 116.85 229.94 L 114.85 231.85 L 90.85 239.94 L 90.85 239.99 L 96.45 238.09 L 105.70 262.72 L 124.46 256.63 C 130.24 254.69 135.27 250.97 138.81 246.00 L 148.32 232.59 C 131.14 233.94 120.00 227.00 120.00 227.00 Z" fill="#fbd6d0" fill-rule="nonzero" group-id="1,2" node-id="186" stroke="none" target-height="35.72" target-width="57.47001" target-x="90.85" target-y="227"></path><path d="M 90.77 239.99 L 99.79 264.60 L 105.62 262.72 L 96.37 238.09 L 90.77 239.99 Z" fill="#6ac3af" fill-rule="nonzero" group-id="1,2" node-id="188" stroke="none" target-height="26.51001" target-width="14.850006" target-x="90.77" target-y="238.09"></path><path d="M 97.76 166.60 L 93.49 169.60 C 93.49 169.60 99.49 190.85 105.49 183.92 C 110.31 178.36 103.40 171.92 98.81 166.39 Z" fill="#fac017" fill-rule="nonzero" group-id="1,2,4" node-id="192" stroke="none" target-height="24.460007" target-width="16.82" target-x="93.49" target-y="166.39"></path><path d="M 92.66 141.71 C 92.66 141.71 93.11 155.56 95.79 161.87 C 96.59 163.50 97.60 165.03 98.79 166.40 C 103.38 171.95 110.29 178.40 105.47 183.93 C 112.01 179.35 119.00 170.02 126.18 158.30 L 123.62 149.06 L 139.72 141.92 L 138.52 139.23 L 130.68 135.00 L 127.60 135.51 L 127.80 136.73 C 128.12 138.69 127.10 140.62 125.30 141.45 C 124.82 141.68 124.29 141.81 123.76 141.85 C 121.47 142.01 119.44 140.38 119.10 138.11 L 116.63 121.43 C 111.34 125.68 105.44 130.55 101.89 133.83 C 99.63 135.89 96.26 138.73 92.66 141.71 Z" fill="#ffd05b" fill-rule="nonzero" group-id="1,2" node-id="195" stroke="none" target-height="62.499992" target-width="47.059998" target-x="92.66" target-y="121.43"></path><path d="M 121.10 62.49 L 121.10 62.49 C 121.22 61.96 123.39 52.49 115.41 51.49 C 107.21 50.49 102.59 54.05 102.94 58.90 C 103.29 63.75 101.12 72.10 113.74 70.36" fill="#ef896a" fill-rule="nonzero" group-id="1,2" node-id="197" stroke="none" target-height="21.609997" target-width="22.269997" target-x="101.12" target-y="50.49"></path><path d="M 119.80 217.21 C 119.68 223.21 120.02 227.03 120.02 227.03 C 120.02 227.03 131.14 233.94 148.32 232.55 C 160.47 231.55 175.63 226.45 192.08 211.79 C 209.97 195.79 216.91 179.02 219.08 165.37 C 220.67 156.11 220.21 146.61 217.73 137.55 C 217.58 137.04 217.48 136.79 217.48 136.79 C 215.15 137.20 212.84 137.57 210.54 137.93 C 210.54 137.93 201.93 144.93 203.60 150.80 C 205.27 156.67 209.23 165.38 207.06 171.80 C 204.89 178.22 195.64 178.43 190.76 187.64 C 185.88 196.85 186.54 201.91 180.65 206.50 C 174.76 211.09 162.00 210.34 154.22 211.88 C 146.44 213.42 132.66 220.81 119.80 217.21 Z" fill="#709dc4" fill-rule="nonzero" group-id="1,2" node-id="199" stroke="none" target-height="97.15001" target-width="100.991905" target-x="119.68" target-y="136.79"></path><path d="M 142.00 103.54 C 142.05 104.22 142.38 104.85 142.91 105.28 C 143.43 105.72 144.11 105.92 144.79 105.84 L 144.79 106.05 C 144.79 106.05 146.43 111.82 138.25 115.27 C 130.07 118.72 125.75 114.15 125.75 114.15 L 125.32 113.82 C 127.84 110.51 128.91 106.31 128.27 102.20 C 127.83 98.97 126.71 95.87 125.00 93.10 C 116.91 93.69 114.83 87.34 116.21 83.99 C 117.59 80.64 122.80 85.13 122.80 85.13 C 126.61 84.66 129.72 81.95 132.03 77.96 C 133.16 76.04 133.77 72.41 134.80 71.26 C 136.39 69.50 139.80 72.52 139.80 72.52 L 141.80 72.38 C 141.43 72.38 148.34 90.31 143.46 95.28 C 142.87 95.89 142.19 96.42 141.46 96.85 L 141.57 97.04 L 142.02 103.25 Z M 131.07 87.78 C 127.73 91.78 132.47 94.98 136.12 90.65 Z" fill="#fbd6d0" fill-rule="nonzero" group-id="1,2" node-id="201" stroke="none" target-height="49.22" target-width="33.509995" target-x="114.83" target-y="69.5"></path><path d="M 123.67 149.06 L 139.77 141.92 L 159.90 133.00 L 163.08 131.60 L 164.80 142.82 L 166.00 150.57 C 180.13 141.89 194.88 140.32 210.59 137.93 C 210.59 137.93 201.98 144.93 203.65 150.80 C 205.32 156.67 209.28 165.38 207.11 171.80 C 204.94 178.22 195.69 178.43 190.81 187.64 C 185.93 196.85 186.59 201.91 180.70 206.50 C 174.81 211.09 162.05 210.34 154.27 211.88 C 146.49 213.42 132.66 220.88 119.80 217.24 C 120.01 206.19 121.80 187.91 130.50 173.72 L 126.23 158.33 Z M 156.92 152.69 L 154.60 143.09 L 134.39 152.09 L 136.46 162.15 Z" fill="#709dc4" fill-rule="nonzero" group-id="1,2" node-id="203" stroke="none" target-height="89.28" target-width="90.78999" target-x="119.8" target-y="131.6"></path><path d="M 124.85 119.12 L 127.60 135.47 L 130.68 134.96 L 138.57 139.23 L 139.77 141.92 L 159.90 133.00 L 158.00 128.73 C 157.62 128.92 157.22 129.07 156.80 129.16 C 156.59 129.21 156.37 129.24 156.15 129.26 C 153.79 129.43 151.63 127.81 151.36 126.08 L 148.67 109.49 C 148.67 110.13 148.08 116.59 139.95 120.73 C 135.05 123.28 129.10 122.64 124.85 119.12 Z" fill="#ffd05b" fill-rule="nonzero" group-id="1,2" node-id="205" stroke="none" target-height="32.43" target-width="35.049995" target-x="124.85" target-y="109.49"></path><path d="M 134.40 152.12 L 136.46 162.18 L 156.92 152.69 L 154.60 143.09 L 134.40 152.12 Z" fill="#709dc4" fill-rule="nonzero" group-id="1,2" node-id="207" stroke="none" target-height="19.089996" target-width="22.520004" target-x="134.4" target-y="143.09"></path><path d="M 134.39 152.11 L 134.39 152.11 C 134.89 154.54 136.48 156.61 138.69 157.73 C 140.91 158.85 143.51 158.90 145.77 157.86 L 150.87 155.50 C 154.39 153.87 156.26 149.98 155.35 146.21 L 154.60 143.09 Z" fill="#0095d7" fill-rule="nonzero" group-id="1,2,5" node-id="211" stroke="none" target-height="15.809555" target-width="21.873398" target-x="134.39" target-y="143.09"></path><path d="M 131.07 87.78 C 127.73 91.78 132.47 94.98 136.12 90.65 Z" fill="#db596d" fill-rule="nonzero" group-id="1,2" node-id="214" stroke="none" target-height="7.2000046" target-width="8.389992" target-x="127.73" target-y="87.78"></path><path d="M 158.00 128.73 L 159.90 133.00 L 163.08 131.60 L 164.80 142.82 L 184.60 131.05 C 179.86 133.05 180.19 115.11 180.19 115.11 C 180.12 110.90 180.71 106.70 181.92 102.66 C 184.01 95.05 180.66 85.28 180.66 85.28 L 179.66 85.88 L 156.56 99.25 L 156.39 99.34 L 160.44 123.81 C 160.79 125.81 159.80 127.80 158.00 128.73 Z" fill="#ffd05b" fill-rule="nonzero" group-id="1,2" node-id="216" stroke="none" target-height="57.54001" target-width="28.210007" target-x="156.39" target-y="85.28"></path><path d="M 180.19 115.11 C 180.19 115.11 179.86 133.02 184.60 131.05 C 189.34 129.08 188.44 110.69 188.44 110.69 L 188.44 110.69 C 184.14 113.25 180.76 115.07 180.19 115.11 Z" fill="#fac017" fill-rule="nonzero" group-id="1,2,6" node-id="220" stroke="none" target-height="22.330002" target-width="9.479996" target-x="179.86" target-y="110.69"></path><path d="M 97.76 166.60 L 93.49 169.60 C 93.49 169.60 99.49 190.85 105.49 183.92 C 110.31 178.36 103.40 171.92 98.81 166.39 Z" fill="#fab53c" fill-rule="nonzero" group-id="1,2" node-id="223" stroke="none" target-height="24.460007" target-width="16.82" target-x="93.49" target-y="166.39"></path><path d="M 180.19 115.11 C 180.19 115.11 179.86 133.02 184.60 131.05 C 189.34 129.08 188.44 110.69 188.44 110.69 L 188.44 110.69 C 184.14 113.25 180.76 115.07 180.19 115.11 Z" fill="#fab53c" fill-rule="nonzero" group-id="1,2" node-id="225" stroke="none" target-height="22.330002" target-width="9.479996" target-x="179.86" target-y="110.69"></path><path d="M 216.50 42.93 L 208.56 44.00 L 208.56 44.19 C 205.82 49.82 193.31 75.38 191.56 77.40 C 189.97 79.24 183.16 83.65 180.62 85.27 C 180.62 85.27 183.97 95.04 181.88 102.65 C 180.67 106.69 180.08 110.89 180.15 115.10 C 180.72 115.10 184.10 113.24 188.40 110.67 C 196.45 105.86 207.72 98.41 209.59 95.09 C 212.47 90.00 234.25 31.52 234.25 31.52 C 234.78 29.91 234.52 28.15 233.56 26.76 C 233.18 26.16 232.70 25.63 232.16 25.17 C 230.81 24.13 229.36 23.23 227.82 22.49 C 222.52 19.79 214.89 17.09 213.82 18.37 C 212.32 20.11 222.61 27.49 222.61 27.49 C 222.61 27.49 211.06 25.08 211.18 26.69 C 211.30 28.30 223.08 34.00 223.08 34.00 C 223.08 34.00 211.53 31.59 210.03 33.32 C 208.53 35.05 222.03 42.20 222.03 42.20 Z" fill="#fbd6d0" fill-rule="nonzero" group-id="1,2" node-id="227" stroke="none" target-height="98.009995" target-width="54.69757" target-x="180.08235" target-y="17.09"></path><path d="M 199.83 4.77 L 207.56 44.15 L 208.56 44.01 L 216.50 42.93 L 222.05 42.17 C 222.05 42.17 208.53 35.00 210.00 33.29 C 211.47 31.58 223.05 33.97 223.05 33.97 C 223.05 33.97 211.26 28.32 211.15 26.70 C 211.04 25.08 222.58 27.50 222.58 27.50 C 222.58 27.50 212.29 20.12 213.79 18.38 C 214.90 17.10 222.53 19.80 227.79 22.50 L 227.53 13.78 L 227.14 1.16 Z" fill="#db596d" fill-rule="nonzero" group-id="1,2" node-id="229" stroke="none" target-height="42.99" target-width="27.959991" target-x="199.83" target-y="1.16"></path><g clip-path="url(#clip-path)" group-id="1,2,7" node-id="231"><path d="M 227.21 1.16 L 199.83 4.77 C 199.83 4.77 204.45 14.85 215.09 13.77 C 225.73 12.69 227.21 1.16 227.21 1.16" fill="#ffd05b" fill-rule="nonzero" group-id="1,2,7" node-id="233" stroke="none" target-height="13.690001" target-width="27.380005" target-x="199.83" target-y="1.16"></path></g><path d="M 219.13 165.37 L 219.80 165.47 L 227.61 163.70 L 229.11 176.19 L 229.11 176.19 C 229.11 176.19 252.52 174.90 253.25 174.44 L 249.73 150.14 C 249.05 145.45 246.49 141.23 242.64 138.46 C 238.79 135.69 233.98 134.60 229.31 135.45 L 217.74 137.55 C 220.23 146.61 220.71 156.11 219.13 165.37 Z" fill="#fbd6d0" fill-rule="nonzero" group-id="1,2" node-id="236" stroke="none" target-height="41.586945" target-width="35.509995" target-x="217.74" target-y="134.60306"></path><path d="M 229.11 176.19 L 229.92 182.83 L 254.26 181.06 L 253.26 174.44 C 252.53 174.90 229.12 176.19 229.12 176.19 Z" fill="#6ac3af" fill-rule="nonzero" group-id="1,2" node-id="238" stroke="none" target-height="8.389999" target-width="25.149994" target-x="229.11" target-y="174.44"></path><path d="M 229.92 182.83 L 235.76 231.39 L 235.68 230.27 L 250.90 238.42 L 255.29 231.60 L 261.99 234.36 L 254.26 181.06 L 229.92 182.83 Z" fill="#6ac3af" fill-rule="nonzero" group-id="1,2" node-id="240" stroke="none" target-height="57.36" target-width="32.069992" target-x="229.92" target-y="181.06"></path><path d="M 236.32 239.08 L 236.78 245.41 L 278.89 265.65 L 281.77 260.57 L 265.19 252.73 L 244.00 242.71 L 236.32 239.08 Z" fill="#fdfeec" fill-rule="nonzero" group-id="1,2" node-id="242" stroke="none" target-height="26.569992" target-width="45.44998" target-x="236.32" target-y="239.08"></path><path d="M 236.32 239.08 L 236.78 245.41 L 278.89 265.65 L 281.77 260.57 L 265.19 252.73 L 244.00 242.71 L 236.32 239.08 Z" fill="#0095d7" fill-rule="nonzero" group-id="1,2,8" node-id="246" stroke="none" target-height="26.569992" target-width="45.44998" target-x="236.32" target-y="239.08"></path><path d="M 38.80 258.39 L 32.50 304.69 L 38.22 305.87 L 40.58 287.65 L 43.59 264.43 L 44.69 256.01 L 38.80 258.39 Z" fill="#0095d7" fill-rule="nonzero" group-id="1,2,9" node-id="251" stroke="none" target-height="49.859985" target-width="12.189999" target-x="32.5" target-y="256.01"></path><path d="M 236.32 239.08 L 236.78 245.41 L 278.89 265.65 L 281.77 260.57 L 265.19 252.73 L 244.00 242.71 L 236.32 239.08 Z" fill="#0095d7" fill-rule="nonzero" group-id="1,2,10" node-id="256" stroke="none" target-height="26.569992" target-width="45.44998" target-x="236.32" target-y="239.08"></path><path d="M 236.00 234.62 L 236.32 239.08 L 244.00 242.71 C 242.80 238.88 239.82 235.86 236.00 234.62 Z" fill="#709dc4" fill-rule="nonzero" group-id="1,2" node-id="259" stroke="none" target-height="8.090012" target-width="8" target-x="236" target-y="234.62"></path><path d="M 235.76 231.39 L 236.00 234.62 C 239.82 235.86 242.80 238.88 244.00 242.71 L 265.19 252.71 C 268.35 248.30 274.31 249.27 274.31 249.27 L 265.31 235.73 L 262.00 234.36 L 255.30 231.60 L 250.91 238.42 L 235.69 230.27 Z" fill="#fff5ca" fill-rule="nonzero" group-id="1,2" node-id="261" stroke="none" target-height="22.440002" target-width="38.619995" target-x="235.69" target-y="230.27"></path><path d="M 227.60 13.78 L 227.86 22.50 C 229.40 23.24 230.85 24.14 232.20 25.18 C 232.74 25.64 233.22 26.17 233.60 26.77 L 233.60 26.77 C 233.93 26.68 227.60 13.78 227.60 13.78 Z" fill="#e7978c" fill-rule="nonzero" group-id="1,2" node-id="263" stroke="none" target-height="12.990001" target-width="6.3299866" target-x="227.6" target-y="13.78"></path><path d="M 265.19 252.73 L 281.77 260.57 L 274.31 249.29 C 274.31 249.29 268.35 248.32 265.19 252.73 Z" fill="#709dc4" fill-rule="nonzero" group-id="1,2" node-id="265" stroke="none" target-height="12.25" target-width="16.579987" target-x="265.19" target-y="248.32"></path><path d="M 120.16 89.22 L 123.00 89.00 C 123.19 88.98 123.35 88.86 123.42 88.68 C 123.49 88.50 123.44 88.29 123.30 88.16 C 123.19 88.05 120.51 85.47 118.30 85.28 C 118.17 85.26 118.04 85.30 117.94 85.38 C 117.84 85.47 117.78 85.59 117.77 85.72 C 117.76 85.85 117.80 85.98 117.88 86.08 C 117.96 86.18 118.08 86.24 118.21 86.25 C 119.53 86.55 120.74 87.19 121.73 88.11 L 120.02 88.23 C 119.76 88.26 119.56 88.48 119.57 88.75 C 119.57 88.90 119.64 89.03 119.75 89.12 C 119.87 89.21 120.02 89.25 120.16 89.22 Z" fill="#fbd6d0" fill-rule="nonzero" group-id="1,2,11" node-id="269" stroke="none" target-height="3.9866714" target-width="5.732834" target-x="117.75609" target-y="85.263115"></path><path d="M 253.31 174.43 L 253.31 174.43" fill="none" group-id="1,2" node-id="272" stroke="#000000" stroke-linecap="round" stroke-width="0.6" target-height="0" target-width="0" target-x="253.31" target-y="174.43"></path><path d="M 253.86 181.09 L 230.32 182.80 L 230.04 182.82" fill="none" group-id="1,2" node-id="274" stroke="#ffffff" stroke-linecap="round" stroke-width="0.6" target-height="1.730011" target-width="23.820007" target-x="230.04" target-y="181.09"></path><path d="M 254.43 185.01 L 230.89 186.71 L 230.60 186.73" fill="none" group-id="1,2" node-id="276" stroke="#ffffff" stroke-linecap="round" stroke-width="0.6" target-height="1.7200012" target-width="23.829987" target-x="230.6" target-y="185.01"></path><path d="M 138.53 88.00 C 139.03 88.00 139.50 87.78 139.80 87.38 C 140.63 86.20 139.34 83.89 137.80 81.23 L 137.44 80.59 C 137.38 80.48 137.27 80.39 137.15 80.36 C 137.03 80.32 136.89 80.34 136.78 80.40 C 136.55 80.53 136.46 80.82 136.59 81.06 L 136.95 81.70 C 138.00 83.57 139.43 86.14 138.95 86.82 C 138.80 87.04 138.30 87.10 137.58 86.98 C 137.45 86.95 137.32 86.98 137.21 87.06 C 137.11 87.13 137.04 87.25 137.02 87.38 C 137.00 87.51 137.03 87.64 137.10 87.74 C 137.18 87.85 137.29 87.92 137.42 87.94 C 137.79 88.00 138.16 88.02 138.53 88.00 Z" fill="#fbd6d0" fill-rule="nonzero" group-id="1,2,12" node-id="280" stroke="none" target-height="7.701065" target-width="4.1672516" target-x="136.46275" target-y="80.32025"></path><path d="M 141.64 83.00 L 141.70 83.00 C 141.83 82.98 141.94 82.91 142.01 82.80 C 142.09 82.69 142.11 82.56 142.08 82.43 L 141.56 79.88 C 141.50 79.62 141.24 79.45 140.98 79.50 C 140.72 79.56 140.55 79.82 140.60 80.08 L 141.13 82.63 C 141.18 82.86 141.40 83.02 141.64 83.00 Z" fill="#5b241e" fill-rule="nonzero" group-id="1,2" node-id="283" stroke="none" target-height="3.5708542" target-width="1.5591278" target-x="140.55026" target-y="79.450264"></path><path d="M 133.58 84.10 L 133.64 84.10 C 133.90 84.04 134.07 83.78 134.02 83.52 L 133.51 81.00 C 133.45 80.74 133.20 80.58 132.94 80.62 C 132.68 80.68 132.51 80.93 132.56 81.19 L 133.07 83.73 C 133.12 83.96 133.34 84.12 133.58 84.10 Z" fill="#5b241e" fill-rule="nonzero" group-id="1,2" node-id="285" stroke="none" target-height="3.5449524" target-width="1.5589905" target-x="132.51074" target-y="80.576164"></path><path d="M 99.78 263.83 L 99.72 263.66 L 90.77 239.99" fill="none" group-id="1,2" node-id="287" stroke="#ffffff" stroke-linecap="round" stroke-width="0.6" target-height="23.839981" target-width="9.010002" target-x="90.77" target-y="239.99"></path><path d="M 95.34 265.44 L 95.28 265.28 L 86.33 241.61" fill="none" group-id="1,2" node-id="289" stroke="#ffffff" stroke-linecap="round" stroke-width="0.6" target-height="23.830002" target-width="9.0099945" target-x="86.33" target-y="241.61"></path><path d="M 139.13 72.31 C 139.13 72.31 139.20 70.01 140.39 70.20 C 141.58 70.39 142.00 73.74 142.00 73.74 Z" fill="#d86b59" fill-rule="nonzero" group-id="1,2" node-id="291" stroke="none" target-height="3.7299957" target-width="2.869995" target-x="139.13" target-y="70.01"></path><path d="M 139.22 72.35 C 139.22 72.35 138.22 66.07 135.54 66.47 C 132.86 66.87 134.54 72.34 133.00 75.55 C 133.00 75.55 135.40 69.13 139.22 72.35 Z" fill="#d86b59" fill-rule="nonzero" group-id="1,2" node-id="293" stroke="none" target-height="9.480003" target-width="6.3600006" target-x="132.86" target-y="66.07"></path><path d="M 117.67 66.00 L 114.32 70.79 C 114.32 70.79 113.16 66.36 110.05 64.30 C 106.94 62.24 105.32 64.08 105.32 64.08 C 105.32 64.08 107.92 57.81 112.23 60.72 C 116.54 63.63 117.67 66.00 117.67 66.00 Z" fill="#d86b59" fill-rule="nonzero" group-id="1,2" node-id="295" stroke="none" target-height="12.98" target-width="12.349998" target-x="105.32" target-y="57.81"></path><path d="M 116.79 67.21 C 116.79 67.21 118.79 59.78 112.54 57.69 C 106.29 55.60 105.36 64.34 105.36 64.34 C 105.36 64.34 103.94 54.00 113.00 54.13 C 121.79 54.25 121.19 62.72 121.19 62.72 Z" fill="#d86b59" fill-rule="nonzero" group-id="1,2" node-id="297" stroke="none" target-height="13.209999" target-width="17.849998" target-x="103.94" target-y="54"></path><path d="M 105.39 65.00 C 105.39 65.00 111.00 70.49 111.00 68.25 C 111.00 66.01 109.25 63.74 107.28 63.45 C 105.31 63.16 105.36 64.12 105.36 64.12 Z" fill="#d86b59" fill-rule="nonzero" group-id="1,2" node-id="299" stroke="none" target-height="7.329998" target-width="5.6900024" target-x="105.31" target-y="63.16"></path><path d="M 114.12 101.16 C 114.29 101.43 118.02 105.30 117.43 109.36 C 116.60 115.16 108.28 117.74 108.79 127.80 L 95.30 139.51 C 95.30 139.51 104.09 126.77 103.23 120.69 C 102.37 114.61 113.34 111.30 112.48 107.01 C 111.62 102.72 110.09 100.76 111.48 93.46 C 111.62 96.22 112.54 98.89 114.12 101.16 Z" fill="#d86b59" fill-rule="nonzero" group-id="1,2" node-id="301" stroke="none" target-height="46.049995" target-width="22.719994" target-x="95.3" target-y="93.46"></path><path d="M 122.75 85.13 C 122.75 85.13 122.58 78.27 120.12 79.70 C 118.79 80.33 117.77 81.46 117.28 82.85 C 117.28 82.85 119.00 81.70 122.75 85.13 Z" fill="#d86b59" fill-rule="nonzero" group-id="1,2" node-id="303" stroke="none" target-height="6.8600006" target-width="5.470001" target-x="117.28" target-y="78.27"></path><path d="M 113.76 70.39 C 113.76 70.39 108.44 90.58 112.93 99.07 L 110.93 99.22 C 110.93 99.22 108.71 83.62 109.27 76.09 C 109.27 76.09 110.13 70.47 113.76 70.39 Z" fill="#d86b59" fill-rule="nonzero" group-id="1,2" node-id="305" stroke="none" target-height="28.830002" target-width="5.3199997" target-x="108.44" target-y="70.39"></path><path d="M 141.49 97.00 C 141.49 97.00 134.93 98.92 131.87 96.79 C 131.87 96.79 133.59 100.79 141.87 101.88 Z" fill="#fbd6d0" fill-rule="nonzero" group-id="1,2,13" node-id="309" stroke="none" target-height="5.0899963" target-width="10" target-x="131.87" target-y="96.79"></path><path d="M 93.76 169.42 L 98.84 166.42 C 96.90 164.34 95.53 161.81 94.84 159.05 Z" fill="#fbd6d0" fill-rule="nonzero" group-id="1,2,14" node-id="314" stroke="none" target-height="10.369995" target-width="5.079994" target-x="93.76" target-y="159.05"></path><path d="M 126.06 157.70 L 123.67 149.06 L 126.92 147.62 C 126.92 147.62 115.35 142.00 114.00 143.79 C 112.65 145.58 116.00 150.45 126.06 157.70 Z" fill="#fab53c" fill-rule="nonzero" group-id="1,2" node-id="317" stroke="none" target-height="15.699997" target-width="14.269997" target-x="112.65" target-y="142"></path><path d="M 155.38 135.00 C 155.38 135.00 161.00 123.40 163.15 123.86 C 164.23 124.10 163.49 130.51 163.44 133.86 C 163.44 134.86 167.79 132.03 169.33 133.22 C 170.87 134.41 164.73 142.31 164.73 142.31 L 163.08 131.55 Z" fill="#fab53c" fill-rule="nonzero" group-id="1,2" node-id="319" stroke="none" target-height="18.909996" target-width="15.48999" target-x="155.38" target-y="123.4"></path><path d="M 126.93 147.58 L 139.38 142.06 C 139.38 142.06 128.16 141.17 125.88 142.26 C 123.60 143.35 126.93 147.58 126.93 147.58 Z" fill="#fab53c" fill-rule="nonzero" group-id="1,2" node-id="321" stroke="none" target-height="6.4100037" target-width="15.780006" target-x="123.6" target-y="141.17"></path><path d="M 161.36 230.00 C 161.36 230.00 172.23 220.00 168.36 215.84 C 164.49 211.68 153.00 218.30 153.00 218.30 C 153.00 218.30 152.47 198.23 143.93 198.83 C 135.39 199.43 134.18 231.89 134.18 231.89 C 138.55 232.54 142.98 232.79 147.40 232.62 C 152.16 232.47 156.87 231.59 161.36 230.00 Z" fill="#0095d7" fill-opacity="0.2" fill-rule="nonzero" group-id="1,2,15" node-id="325" stroke="none" target-height="34.557587" target-width="38.050003" target-x="134.18" target-y="198.23"></path><path d="M 206.76 194.59 C 207.31 183.38 206.69 166.70 198.64 168.00 C 186.94 169.88 193.40 181.66 193.40 181.66 C 193.40 181.66 178.83 170.31 172.86 180.66 C 167.86 189.27 187.86 203.57 194.92 208.30 C 199.36 204.18 203.33 199.58 206.76 194.59 Z" fill="#0095d7" fill-opacity="0.2" fill-rule="nonzero" group-id="1,2,16" node-id="330" stroke="none" target-height="41.600006" target-width="39.449997" target-x="167.86" target-y="166.7"></path><path d="M 124.82 188.40 L 124.26 187.71 C 125.77 182.81 127.86 178.11 130.50 173.71 L 128.74 167.39 C 130.82 164.61 133.26 162.13 136.00 160.00 L 136.45 162.18 L 144.08 158.65 C 152.60 163.45 143.93 176.27 143.93 176.27 C 143.93 176.27 153.80 170.00 156.11 180.00 C 158.42 190.00 124.82 188.40 124.82 188.40 Z" fill="#0095d7" fill-opacity="0.2" fill-rule="nonzero" group-id="1,2,17" node-id="335" stroke="none" target-height="31.350006" target-width="34.159996" target-x="124.26" target-y="158.65"></path><path d="M 172.71 147.00 C 183.46 142.00 194.58 140.32 206.23 138.59 C 205.79 139.59 192.99 167.26 183.55 163.33 C 173.93 159.33 182.11 145.49 182.11 145.49 C 182.11 145.49 176.62 149.47 172.71 147.00 Z" fill="#0095d7" fill-opacity="0.2" fill-rule="nonzero" group-id="1,2,18" node-id="340" stroke="none" target-height="28.669998" target-width="33.51999" target-x="172.71" target-y="138.59"></path><path d="M 267.28 241.78 L 267.16 241.78 L 259.86 241.33 C 259.15 241.31 258.51 240.91 258.19 240.28 C 257.87 239.65 257.92 238.90 258.32 238.31 C 258.71 237.73 259.40 237.41 260.10 237.48 L 267.39 237.93 C 268.46 237.96 269.30 238.85 269.26 239.91 C 269.23 240.98 268.35 241.82 267.28 241.79 Z" fill="#709dc4" fill-rule="nonzero" group-id="1,2" node-id="343" stroke="none" target-height="4.409775" target-width="11.424774" target-x="257.8706" target-y="237.4106"></path><path d="M 269.80 246.00 L 269.70 246.00 L 261.70 245.60 C 260.65 245.55 259.83 244.65 259.87 243.60 C 259.89 243.09 260.11 242.61 260.48 242.26 C 260.86 241.92 261.36 241.74 261.87 241.77 L 269.87 242.16 C 270.94 242.18 271.78 243.07 271.75 244.13 C 271.73 245.20 270.85 246.04 269.78 246.02 Z" fill="#709dc4" fill-rule="nonzero" group-id="1,2" node-id="345" stroke="none" target-height="4.3047943" target-width="11.949524" target-x="259.83032" target-y="241.74005"></path><path d="M 53.53 287.42 C 52.83 287.42 52.18 287.04 51.84 286.42 L 48.27 279.89 C 47.75 278.95 48.08 277.77 49.02 277.25 C 49.96 276.73 51.14 277.06 51.66 278.00 L 55.22 284.53 C 55.47 284.98 55.53 285.51 55.39 286.00 C 55.24 286.49 54.91 286.91 54.46 287.15 C 54.18 287.31 53.86 287.41 53.53 287.42 Z" fill="#709dc4" fill-rule="nonzero" group-id="1,2" node-id="347" stroke="none" target-height="10.691925" target-width="7.7808647" target-x="47.748093" target-y="276.7281"></path><path d="M 51.00 290.75 C 50.30 290.75 49.65 290.37 49.31 289.75 L 45.74 283.22 C 45.23 282.28 45.57 281.11 46.51 280.60 C 47.45 280.09 48.62 280.43 49.13 281.37 L 52.69 287.90 C 53.20 288.83 52.86 290.00 51.93 290.52 C 51.64 290.67 51.32 290.75 51.00 290.75 Z" fill="#709dc4" fill-rule="nonzero" group-id="1,2" node-id="349" stroke="none" target-height="10.662598" target-width="7.96801" target-x="45.229137" target-y="280.08914"></path><path d="M 33.19 167.73 C 32.61 167.72 32.13 167.29 32.06 166.71 C 31.99 166.14 32.35 165.60 32.91 165.45 L 73.67 155.45 C 74.67 154.65 79.67 150.75 85.36 146.20 C 85.86 145.86 86.53 145.97 86.91 146.43 C 87.29 146.90 87.24 147.58 86.81 148.00 C 80.45 153.11 74.90 157.42 74.90 157.42 C 74.77 157.52 74.62 157.59 74.46 157.63 L 33.46 167.73 C 33.37 167.74 33.28 167.74 33.19 167.73 Z" fill="#443530" fill-rule="nonzero" group-id="1,2" node-id="351" stroke="none" target-height="21.875671" target-width="55.298714" target-x="31.989481" target-y="145.86415"></path><path d="M 36.33 186.64 C 35.73 186.63 35.24 186.17 35.19 185.58 C 35.14 184.99 35.54 184.45 36.13 184.34 L 78.84 176.92 C 80.82 176.56 82.70 175.78 84.35 174.63 L 92.83 168.63 C 93.17 168.35 93.63 168.28 94.03 168.45 C 94.44 168.62 94.71 169.01 94.74 169.45 C 94.76 169.88 94.54 170.30 94.16 170.52 L 85.68 176.52 C 83.75 177.87 81.56 178.78 79.24 179.20 L 36.53 186.62 Z" fill="#443530" fill-rule="nonzero" group-id="1,2" node-id="353" stroke="none" target-height="18.36261" target-width="59.625824" target-x="35.136726" target-y="168.27739"></path><path d="M 21.00 179.71 L 20.88 179.71 C 16.75 179.26 15.48 174.87 15.34 172.12 C 13.18 170.67 10.08 168.30 9.89 166.54 C 9.83 166.01 10.01 165.49 10.39 165.11 C 10.84 164.67 12.18 163.35 24.80 167.44 L 27.03 166.89 C 27.44 166.76 27.89 166.88 28.19 167.18 C 28.50 167.49 28.60 167.93 28.48 168.35 C 28.35 168.76 28.00 169.06 27.58 169.14 L 25.03 169.77 C 24.82 169.83 24.60 169.83 24.39 169.77 C 19.91 168.31 14.60 166.95 12.55 166.86 C 13.92 168.27 15.45 169.51 17.12 170.55 C 17.46 170.77 17.66 171.15 17.65 171.55 C 17.65 171.61 17.65 177.08 21.12 177.45 C 21.72 177.53 22.16 178.06 22.13 178.66 C 22.10 179.27 21.61 179.74 21.00 179.76 Z" fill="#443530" fill-rule="nonzero" group-id="1,2" node-id="355" stroke="none" target-height="16.409988" target-width="18.773548" target-x="9.831027" target-y="163.35"></path><path d="M 156.56 100.41 C 156.39 100.41 156.21 100.37 156.06 100.29 C 155.78 100.16 155.57 99.92 155.46 99.63 C 155.36 99.35 155.38 99.03 155.51 98.75 C 155.51 98.75 157.67 94.13 154.92 91.75 L 154.00 91.00 C 151.27 88.69 151.13 88.38 150.82 84.39 C 150.76 83.43 150.78 82.47 150.87 81.52 C 151.12 78.39 151.35 75.44 143.66 69.92 C 132.77 62.10 127.07 58.92 121.88 63.39 C 121.57 63.68 121.13 63.78 120.72 63.65 C 120.32 63.52 120.02 63.17 119.94 62.75 C 119.87 62.33 120.03 61.91 120.36 61.64 C 127.51 55.46 135.62 61.29 145.01 68.04 C 153.76 74.32 153.45 78.24 153.18 81.70 C 153.10 82.48 153.08 83.26 153.12 84.04 C 153.38 87.44 153.38 87.44 155.50 89.24 L 156.43 90.04 C 160.53 93.58 157.72 99.54 157.60 99.79 C 157.40 100.18 157.00 100.42 156.56 100.41 Z" fill="#443530" fill-rule="nonzero" group-id="1,2" node-id="357" stroke="none" target-height="44.957336" target-width="40.66381" target-x="119.86619" target-y="55.46"></path><path d="M 157.14 100.25 L 156.39 99.34 L 155.84 98.34 L 180.04 84.34 C 185.72 80.73 189.71 77.87 190.73 76.70 C 191.75 75.53 198.38 62.53 207.55 43.70 C 207.86 43.19 208.51 43.00 209.04 43.26 C 209.58 43.52 209.83 44.14 209.63 44.70 C 205.05 54.09 194.22 76.13 192.48 78.16 C 190.88 80.01 184.78 84.02 181.28 86.24 L 180.28 86.86 Z" fill="#443530" fill-rule="nonzero" group-id="1,2" node-id="359" stroke="none" target-height="57.246555" target-width="53.991714" target-x="155.84" target-y="43.003445"></path><path d="M 200.84 87.14 C 200.41 87.12 200.03 86.87 199.84 86.49 L 196.00 78.63 C 195.80 78.07 196.05 77.45 196.59 77.19 C 197.12 76.93 197.77 77.12 198.08 77.63 L 201.90 85.48 C 202.18 86.05 201.94 86.75 201.37 87.03 C 201.20 87.11 201.02 87.14 200.84 87.14 Z" fill="#443530" fill-rule="nonzero" group-id="1,2" node-id="361" stroke="none" target-height="10.211082" target-width="6.38237" target-x="195.7983" target-y="76.93345"></path><path d="M 203.37 80.77 C 203.09 80.77 202.81 80.67 202.60 80.48 L 199.41 77.66 C 198.93 77.24 198.89 76.51 199.31 76.03 C 199.73 75.55 200.46 75.51 200.94 75.93 L 204.14 78.75 C 204.49 79.07 204.61 79.57 204.44 80.01 C 204.27 80.46 203.84 80.75 203.37 80.75 Z" fill="#443530" fill-rule="nonzero" group-id="1,2" node-id="363" stroke="none" target-height="5.2631683" target-width="5.7214355" target-x="198.8875" target-y="75.5075"></path><path d="M 229.32 31.42 C 229.17 31.42 229.02 31.40 228.88 31.34 L 225.52 30.00 C 225.24 29.88 225.01 29.66 224.90 29.37 C 224.78 29.09 224.78 28.77 224.90 28.49 C 225.14 27.90 225.82 27.62 226.41 27.86 L 229.76 29.25 C 230.35 29.49 230.63 30.17 230.39 30.76 C 230.19 31.17 229.77 31.43 229.32 31.42 Z" fill="#443530" fill-rule="nonzero" group-id="1,2" node-id="365" stroke="none" target-height="3.807766" target-width="5.851944" target-x="224.77924" target-y="27.618818"></path><path d="M 228.11 37.17 C 227.89 37.17 227.68 37.11 227.49 36.99 L 224.08 34.83 C 223.53 34.49 223.36 33.76 223.70 33.21 C 224.04 32.66 224.77 32.49 225.32 32.83 L 228.73 35.00 C 229.17 35.28 229.37 35.81 229.22 36.30 C 229.08 36.80 228.63 37.14 228.11 37.14 Z" fill="#443530" fill-rule="nonzero" group-id="1,2" node-id="367" stroke="none" target-height="4.68285" target-width="6.0095673" target-x="223.35759" target-y="32.487583"></path><path d="M 219.28 50.00 C 218.70 50.00 218.21 49.57 218.13 49.00 C 217.84 45.00 216.07 44.06 216.00 44.00 C 215.44 43.71 215.21 43.03 215.47 42.46 C 215.59 42.19 215.82 41.97 216.10 41.87 C 216.39 41.76 216.70 41.77 216.97 41.90 C 217.28 42.04 220.05 43.43 220.44 48.81 C 220.46 49.43 219.99 49.95 219.37 50.00 Z" fill="#443530" fill-rule="nonzero" group-id="1,2" node-id="369" stroke="none" target-height="8.237129" target-width="5.2505493" target-x="215.2073" target-y="41.763412"></path><path d="M 233.62 27.93 C 233.10 27.93 232.64 27.58 232.50 27.08 C 232.49 27.00 232.49 26.92 232.50 26.84 C 232.12 25.71 229.23 19.63 226.60 14.29 C 226.37 13.91 226.37 13.44 226.61 13.06 C 226.85 12.69 227.28 12.48 227.72 12.53 C 228.16 12.58 228.53 12.87 228.68 13.29 C 235.11 26.40 234.99 26.65 234.68 27.29 C 234.54 27.61 234.26 27.85 233.93 27.94 C 233.83 27.95 233.72 27.95 233.62 27.93 Z" fill="#443530" fill-rule="nonzero" group-id="1,2" node-id="371" stroke="none" target-height="15.468405" target-width="8.741562" target-x="226.36844" target-y="12.481916"></path><path d="M 207.56 45.31 C 207.01 45.31 206.53 44.91 206.43 44.37 L 198.70 5.00 C 198.64 4.68 198.71 4.36 198.90 4.09 C 199.09 3.83 199.38 3.67 199.70 3.63 L 227.06 0.00 C 227.38 -0.04 227.71 0.05 227.96 0.26 C 228.21 0.47 228.35 0.78 228.36 1.11 L 229.00 22.47 C 229.01 22.78 228.89 23.08 228.68 23.30 C 228.47 23.52 228.18 23.65 227.87 23.66 C 227.56 23.68 227.26 23.57 227.04 23.35 C 226.81 23.14 226.68 22.85 226.68 22.54 L 226.07 2.47 L 201.21 5.75 L 208.49 42.86 C 209.10 42.81 209.64 43.25 209.71 43.86 C 209.79 44.50 209.35 45.08 208.71 45.17 L 207.71 45.31 Z" fill="#443530" fill-rule="nonzero" group-id="1,2" node-id="373" stroke="none" target-height="45.350033" target-width="30.371735" target-x="198.63632" target-y="-0.04002956"></path><path d="M 188.44 111.83 C 187.92 111.83 187.47 111.48 187.33 110.98 C 187.19 110.48 187.40 109.95 187.84 109.68 C 196.72 104.38 207.01 97.38 208.62 94.53 C 211.43 89.53 232.98 31.71 233.20 31.13 C 233.60 29.87 233.39 28.49 232.63 27.40 C 232.30 26.89 231.90 26.44 231.44 26.05 C 230.17 25.07 228.79 24.23 227.34 23.54 C 222.00 20.79 216.73 19.20 215.00 19.20 C 215.81 20.57 219.33 23.72 223.29 26.56 C 223.73 26.88 223.89 27.47 223.67 27.97 C 223.46 28.47 222.91 28.75 222.38 28.63 C 219.35 27.97 216.27 27.52 213.18 27.30 C 216.54 29.37 220.01 31.25 223.58 32.93 C 224.11 33.18 224.37 33.79 224.18 34.34 C 224.00 34.90 223.42 35.23 222.85 35.10 C 217.85 34.10 213.02 33.58 211.35 33.91 C 212.69 35.41 217.91 38.67 222.59 41.15 C 223.12 41.47 223.31 42.14 223.02 42.69 C 222.74 43.24 222.07 43.46 221.51 43.20 C 216.96 40.79 209.24 36.38 208.79 33.94 C 208.69 33.44 208.82 32.92 209.15 32.53 C 210.09 31.45 212.91 31.37 216.03 31.67 C 210.14 28.39 210.03 27.28 210.03 26.79 C 210.04 26.33 210.23 25.90 210.54 25.57 C 211.36 24.86 213.88 24.83 218.08 25.48 C 215.45 23.32 212.74 20.73 212.54 19.06 C 212.47 18.55 212.62 18.03 212.96 17.63 C 215.34 14.85 228.27 21.41 228.40 21.47 C 230.03 22.25 231.57 23.20 233.00 24.30 C 233.62 24.84 234.17 25.46 234.62 26.15 C 235.78 27.86 236.07 30.02 235.40 31.97 C 234.52 34.33 213.57 90.56 210.68 95.67 C 208.17 100.12 192.24 109.78 189.07 111.67 C 188.88 111.78 188.66 111.84 188.44 111.83 Z" fill="#443530" fill-rule="nonzero" group-id="1,2" node-id="375" stroke="none" target-height="96.98779" target-width="48.88188" target-x="187.18777" target-y="14.85"></path><path d="M 184.60 132.21 C 184.05 132.21 183.57 131.82 183.46 131.28 C 183.35 130.74 183.64 130.19 184.15 129.98 C 186.90 128.84 187.64 118.05 187.28 110.75 C 187.26 110.44 187.37 110.14 187.58 109.92 C 187.78 109.69 188.07 109.55 188.38 109.54 C 189.02 109.52 189.56 110.00 189.60 110.64 C 189.75 113.84 190.26 129.95 185.04 132.12 C 184.90 132.18 184.75 132.21 184.60 132.21 Z" fill="#443530" fill-rule="nonzero" group-id="1,2" node-id="377" stroke="none" target-height="22.694" target-width="6.9084625" target-x="183.35153" target-y="109.51695"></path><path d="M 164.81 144.00 C 164.29 144.00 163.84 143.65 163.70 143.15 C 163.56 142.65 163.77 142.12 164.21 141.85 L 184.00 130.05 C 184.55 129.72 185.26 129.91 185.59 130.46 C 185.92 131.01 185.73 131.72 185.18 132.05 L 165.40 143.82 C 165.22 143.93 165.02 143.99 164.81 144.00 Z" fill="#443530" fill-rule="nonzero" group-id="1,2" node-id="379" stroke="none" target-height="14.275848" target-width="22.358078" target-x="163.55777" target-y="129.72415"></path><path d="M 164.00 136.12 C 163.88 136.12 163.76 136.11 163.64 136.07 C 163.03 135.87 162.70 135.22 162.90 134.61 L 168.04 118.81 C 168.24 118.20 168.89 117.86 169.50 118.06 C 170.11 118.26 170.45 118.91 170.25 119.52 L 165.10 135.32 C 164.94 135.80 164.50 136.12 164.00 136.12 Z" fill="#443530" fill-rule="nonzero" group-id="1,2" node-id="381" stroke="none" target-height="18.25911" target-width="7.743347" target-x="162.70271" target-y="117.86394"></path><path d="M 165.66 140.08 C 165.16 140.09 164.72 139.78 164.56 139.31 C 164.39 138.84 164.55 138.32 164.94 138.02 L 169.55 134.35 C 170.05 133.96 170.78 134.04 171.18 134.54 C 171.37 134.78 171.46 135.09 171.42 135.39 C 171.39 135.69 171.23 135.97 170.99 136.16 L 166.38 139.83 C 166.18 139.99 165.92 140.08 165.66 140.08 Z" fill="#443530" fill-rule="nonzero" group-id="1,2" node-id="383" stroke="none" target-height="6.1295166" target-width="7.063553" target-x="164.39401" target-y="133.95781"></path><path d="M 123.93 154.00 C 123.81 154.00 123.69 153.98 123.58 153.94 L 104.09 147.68 C 103.48 147.49 103.15 146.84 103.34 146.23 C 103.53 145.62 104.18 145.29 104.79 145.48 L 124.29 151.74 C 124.90 151.94 125.23 152.59 125.03 153.20 C 124.88 153.68 124.43 154.00 123.93 154.00 Z" fill="#443530" fill-rule="nonzero" group-id="1,2" node-id="385" stroke="none" target-height="8.715286" target-width="22.08059" target-x="103.1467" target-y="145.2867"></path><path d="M 13.10 195.29 C 12.82 195.30 12.54 195.25 12.28 195.14 C 11.72 194.87 11.34 194.34 11.28 193.72 C 11.17 192.72 12.00 191.45 13.13 190.22 C 9.13 191.08 5.30 191.48 4.13 190.22 C 3.75 189.83 3.59 189.28 3.70 188.75 C 3.91 187.62 5.70 186.24 7.95 184.90 C 5.05 185.10 2.11 185.01 0.88 184.05 C 0.39 183.72 0.06 183.19 0.00 182.60 C -0.14 180.66 2.24 179.25 6.40 177.88 C 4.21 177.49 2.13 176.88 1.46 175.74 C 1.11 175.16 1.08 174.43 1.38 173.82 C 2.74 170.98 12.38 170.43 16.45 170.33 C 16.76 170.30 17.07 170.41 17.30 170.63 C 17.53 170.84 17.65 171.15 17.64 171.46 C 17.65 172.10 17.15 172.62 16.51 172.64 C 10.51 172.80 4.71 173.73 3.61 174.64 C 4.67 175.38 9.07 176.02 12.52 176.11 C 13.10 176.12 13.59 176.54 13.68 177.11 C 13.80 178.11 13.08 178.33 11.62 178.71 C 3.62 180.81 2.45 182.01 2.30 182.43 C 3.02 182.93 8.61 182.72 14.18 181.73 C 14.77 181.60 15.36 181.94 15.53 182.51 C 15.71 183.08 15.42 183.70 14.86 183.92 C 11.86 185.20 9.01 186.80 6.35 188.69 C 8.07 188.78 12.48 188.04 16.94 186.81 C 17.47 186.66 18.04 186.90 18.28 187.40 C 18.57 187.90 18.46 188.54 18.00 188.90 C 16.44 190.09 15.04 191.47 13.83 193.00 C 15.83 192.46 21.29 189.31 25.83 186.25 C 25.97 186.16 26.12 186.10 26.28 186.07 L 30.33 185.37 C 30.75 185.26 31.20 185.40 31.49 185.73 C 31.77 186.06 31.85 186.52 31.69 186.93 C 31.53 187.33 31.15 187.61 30.72 187.65 L 26.92 188.31 C 22.00 191.62 15.85 195.29 13.10 195.29 Z" fill="#443530" fill-rule="nonzero" group-id="1,2" node-id="387" stroke="none" target-height="24.993942" target-width="31.991922" target-x="-0.14" target-y="170.30421"></path><path d="M 103.00 186.48 C 102.73 186.48 102.46 186.45 102.20 186.39 C 96.85 185.20 92.82 171.49 92.38 169.93 C 92.21 169.32 92.56 168.68 93.17 168.50 C 93.79 168.33 94.43 168.69 94.60 169.30 C 96.13 174.67 99.68 183.45 102.70 184.13 C 103.11 184.22 103.70 184.21 104.64 183.13 C 105.06 182.65 105.79 182.59 106.28 183.01 C 106.76 183.43 106.81 184.16 106.39 184.64 C 105.60 185.74 104.35 186.42 103.00 186.48 Z" fill="#443530" fill-rule="nonzero" group-id="1,2" node-id="389" stroke="none" target-height="18.148972" target-width="14.601006" target-x="92.20603" target-y="168.33102"></path><path d="M 105.52 185.08 C 105.01 185.09 104.56 184.76 104.41 184.27 C 104.26 183.79 104.44 183.27 104.86 182.98 C 110.61 178.98 117.28 170.69 125.24 157.69 L 126.40 158.03 L 127.31 158.75 C 119.08 172.17 112.20 180.67 106.18 184.88 C 105.99 185.01 105.76 185.08 105.52 185.08 Z" fill="#443530" fill-rule="nonzero" group-id="1,2" node-id="391" stroke="none" target-height="27.395294" target-width="23.05104" target-x="104.25896" target-y="157.69"></path><path d="M 81.65 168.93 C 81.28 168.93 80.92 168.75 80.71 168.44 L 75.21 160.71 C 74.84 160.19 74.96 159.47 75.48 159.10 C 76.00 158.73 76.72 158.85 77.09 159.37 L 82.60 167.10 C 82.85 167.45 82.88 167.92 82.68 168.30 C 82.48 168.69 82.08 168.93 81.65 168.93 Z" fill="#443530" fill-rule="nonzero" group-id="1,2" node-id="393" stroke="none" target-height="10.201187" target-width="8.042664" target-x="74.839966" target-y="158.72997"></path><path d="M 83.28 164.75 C 82.67 164.75 82.17 164.28 82.13 163.67 L 82.00 161.25 C 81.99 160.64 82.46 160.12 83.07 160.07 C 83.69 160.03 84.23 160.47 84.31 161.08 L 84.49 163.51 C 84.51 163.82 84.41 164.12 84.21 164.35 C 84.01 164.58 83.73 164.72 83.42 164.74 Z" fill="#443530" fill-rule="nonzero" group-id="1,2" node-id="395" stroke="none" target-height="4.721237" target-width="2.5221634" target-x="81.98981" target-y="160.02876"></path><path d="M 227.49 163.24 C 227.27 163.24 227.05 163.18 226.87 163.05 C 226.61 162.89 226.43 162.63 226.36 162.33 C 226.30 162.03 226.35 161.72 226.52 161.46 L 231.98 152.93 C 232.33 152.38 233.05 152.21 233.61 152.55 C 234.16 152.90 234.33 153.63 233.98 154.18 L 228.51 162.70 C 228.29 163.05 227.90 163.26 227.49 163.24 Z" fill="#443530" fill-rule="nonzero" group-id="1,2" node-id="397" stroke="none" target-height="11.048294" target-width="8.029938" target-x="226.29524" target-y="152.20982"></path><path d="M 230.85 164.82 C 230.25 164.83 229.74 164.37 229.68 163.78 C 229.62 163.18 230.03 162.63 230.62 162.52 L 237.92 160.99 C 238.52 160.92 239.07 161.31 239.19 161.90 C 239.32 162.49 238.97 163.07 238.40 163.25 L 231.09 164.79 C 231.01 164.81 230.93 164.82 230.85 164.82 Z" fill="#443530" fill-rule="nonzero" group-id="1,2" node-id="399" stroke="none" target-height="3.9091797" target-width="9.696533" target-x="229.61972" target-y="160.91919"></path><path d="M 273.25 241.52 C 272.72 241.51 272.20 241.40 271.72 241.20 C 267.85 239.60 267.58 237.09 267.56 236.81 C 267.55 236.65 267.57 236.49 267.63 236.34 C 267.88 235.63 269.29 232.08 271.70 231.57 C 272.83 231.38 273.98 231.81 274.70 232.70 C 276.97 235.09 277.07 238.35 275.86 240.11 C 275.28 240.99 274.30 241.52 273.25 241.52 Z M 269.92 236.83 C 270.07 237.24 270.61 238.24 272.60 239.06 C 273.44 239.40 273.78 239.11 273.98 238.80 C 274.55 237.97 274.55 235.88 273.05 234.30 C 272.72 233.94 272.44 233.80 272.18 233.84 C 271.41 234.00 270.43 235.59 269.92 236.83 Z M 268.71 236.74 L 268.71 236.74 Z" fill="#443530" fill-rule="nonzero" group-id="1,2" node-id="401" stroke="none" target-height="10.143997" target-width="9.521851" target-x="267.54816" target-y="231.376"></path><path d="M 278.87 244.05 C 278.80 244.06 278.74 244.06 278.67 244.05 L 272.08 242.90 C 271.45 242.79 271.03 242.19 271.14 241.56 C 271.26 240.94 271.85 240.52 272.48 240.63 L 279.06 241.77 C 279.36 241.82 279.63 241.99 279.81 242.24 C 279.99 242.50 280.06 242.81 280.00 243.11 C 279.90 243.66 279.43 244.05 278.87 244.05 Z" fill="#443530" fill-rule="nonzero" group-id="1,2" node-id="403" stroke="none" target-height="3.5407715" target-width="9.020569" target-x="271.03455" target-y="240.51955"></path><path d="M 275.87 247.52 C 275.56 247.52 275.27 247.40 275.05 247.18 L 272.00 244.18 C 271.61 243.72 271.63 243.04 272.06 242.61 C 272.49 242.18 273.17 242.15 273.63 242.54 L 276.68 245.54 C 277.02 245.87 277.13 246.37 276.96 246.82 C 276.78 247.26 276.35 247.54 275.87 247.54 Z" fill="#443530" fill-rule="nonzero" group-id="1,2" node-id="405" stroke="none" target-height="5.393448" target-width="5.526123" target-x="271.60785" target-y="242.15068"></path><path d="M 57.05 294.14 C 56.65 294.14 56.25 294.08 55.87 293.97 C 54.30 293.51 53.31 291.96 53.56 290.34 C 53.90 286.12 56.21 285.12 56.47 285.02 C 56.61 284.97 56.77 284.94 56.92 284.94 C 57.68 284.94 61.48 285.20 62.71 287.35 C 63.26 288.38 63.20 289.62 62.56 290.59 C 61.50 292.68 59.39 294.04 57.05 294.14 Z M 57.17 287.27 C 56.82 287.54 56.04 288.38 55.87 290.53 C 55.79 291.42 56.18 291.65 56.53 291.75 C 58.21 291.91 59.81 291.01 60.53 289.49 C 60.76 289.05 60.82 288.71 60.70 288.49 C 60.31 287.82 58.50 287.38 57.17 287.27 Z" fill="#443530" fill-rule="nonzero" group-id="1,2" node-id="407" stroke="none" target-height="9.200287" target-width="9.94714" target-x="53.308792" target-y="284.94"></path><path d="M 54.15 298.82 C 53.57 298.82 53.08 298.39 53.00 297.82 L 52.07 291.21 C 52.02 290.90 52.11 290.59 52.29 290.34 C 52.48 290.10 52.76 289.94 53.07 289.90 C 53.71 289.82 54.29 290.26 54.38 290.90 L 55.31 297.52 C 55.36 297.83 55.27 298.14 55.09 298.38 C 54.90 298.63 54.62 298.79 54.31 298.82 Z" fill="#443530" fill-rule="nonzero" group-id="1,2" node-id="409" stroke="none" target-height="9.0035095" target-width="3.330761" target-x="52.02459" target-y="289.81705"></path><path d="M 49.92 297.00 C 49.74 297.00 49.56 296.96 49.40 296.87 C 49.13 296.73 48.92 296.49 48.82 296.20 C 48.73 295.91 48.75 295.59 48.89 295.32 L 50.89 291.48 C 51.06 291.08 51.44 290.80 51.87 290.76 C 52.31 290.73 52.73 290.94 52.95 291.32 C 53.18 291.69 53.18 292.16 52.95 292.53 L 51.00 296.39 C 50.79 296.79 50.37 297.03 49.92 297.00 Z" fill="#443530" fill-rule="nonzero" group-id="1,2" node-id="411" stroke="none" target-height="6.298401" target-width="4.454361" target-x="48.72673" target-y="290.72903"></path><path d="M 122.78 244.00 C 122.33 244.00 121.92 243.74 121.72 243.33 L 115.80 230.44 C 115.52 229.86 115.77 229.17 116.35 228.89 C 116.93 228.61 117.62 228.86 117.90 229.44 L 123.83 242.32 C 124.00 242.67 123.97 243.08 123.77 243.41 C 123.57 243.74 123.22 243.95 122.83 243.96 Z" fill="#443530" fill-rule="nonzero" group-id="1,2" node-id="413" stroke="none" target-height="15.386139" target-width="8.471184" target-x="115.52386" target-y="228.61386"></path><path d="M 127.33 238.00 C 127.12 238.00 126.91 237.94 126.73 237.83 L 118.91 233.10 C 118.36 232.77 118.18 232.05 118.51 231.50 C 118.84 230.95 119.56 230.77 120.11 231.10 L 127.93 235.83 C 128.37 236.10 128.58 236.63 128.44 237.13 C 128.30 237.63 127.85 237.98 127.33 237.98 Z" fill="#443530" fill-rule="nonzero" group-id="1,2" node-id="415" stroke="none" target-height="7.231369" target-width="10.403603" target-x="118.17863" target-y="230.76863"></path><path d="M 57.11 279.60 C 56.54 279.60 56.06 279.18 55.97 278.62 C 55.88 278.06 56.21 277.52 56.75 277.34 L 124.00 255.52 C 129.59 253.68 134.44 250.10 137.84 245.29 L 147.36 231.88 C 147.73 231.36 148.45 231.24 148.97 231.61 C 149.49 231.98 149.61 232.70 149.24 233.22 L 139.73 246.63 C 136.05 251.84 130.79 255.72 124.73 257.72 L 57.47 279.54 C 57.35 279.58 57.23 279.60 57.11 279.60 Z" fill="#443530" fill-rule="nonzero" group-id="1,2" node-id="417" stroke="none" target-height="48.36003" target-width="93.72665" target-x="55.883385" target-y="231.23997"></path><path d="M 145.56 138.21 C 145.22 138.21 144.89 138.06 144.67 137.79 L 140.99 133.39 C 140.58 132.90 140.65 132.17 141.13 131.76 C 141.62 131.36 142.35 131.42 142.76 131.91 L 144.65 134.16 L 145.24 127.55 C 145.31 126.92 145.87 126.47 146.50 126.52 C 147.13 126.58 147.59 127.13 147.55 127.76 L 146.71 137.15 C 146.67 137.61 146.35 138.01 145.91 138.15 C 145.80 138.19 145.68 138.21 145.56 138.21 Z" fill="#443530" fill-rule="nonzero" group-id="1,2" node-id="419" stroke="none" target-height="11.744064" target-width="7.013138" target-x="140.58131" target-y="126.46594"></path><path d="M 138.56 140.39 C 138.37 140.39 138.18 140.34 138.01 140.25 L 130.13 136.00 C 129.57 135.70 129.36 134.99 129.66 134.43 C 129.81 134.16 130.05 133.96 130.35 133.87 C 130.64 133.79 130.96 133.82 131.23 133.97 L 139.12 138.24 C 139.59 138.49 139.82 139.03 139.69 139.55 C 139.56 140.06 139.09 140.42 138.56 140.42 Z" fill="#443530" fill-rule="nonzero" group-id="1,2" node-id="421" stroke="none" target-height="6.6378174" target-width="10.466629" target-x="129.35693" target-y="133.78568"></path><path d="M 52.87 253.85 C 52.30 253.85 51.82 253.44 51.72 252.88 C 51.63 252.32 51.96 251.77 52.50 251.59 L 114.19 230.83 L 119.19 226.18 C 119.41 225.97 119.71 225.86 120.02 225.87 C 120.32 225.88 120.61 226.01 120.82 226.24 C 121.03 226.47 121.14 226.76 121.13 227.07 C 121.12 227.38 120.99 227.67 120.76 227.88 L 115.53 232.70 C 115.41 232.81 115.27 232.89 115.12 232.94 L 53.24 253.78 C 53.12 253.82 53.00 253.85 52.87 253.85 Z" fill="#443530" fill-rule="nonzero" group-id="1,2" node-id="423" stroke="none" target-height="27.995377" target-width="69.509544" target-x="51.631546" target-y="225.85548"></path><path d="M 262.00 235.52 C 261.42 235.52 260.93 235.09 260.85 234.52 L 248.64 150.30 C 248.01 145.91 245.61 141.97 242.02 139.39 C 238.42 136.80 233.92 135.78 229.56 136.58 L 218.00 138.69 C 217.37 138.81 216.77 138.39 216.65 137.76 C 216.54 137.14 216.95 136.54 217.58 136.42 L 229.15 134.31 C 234.13 133.41 239.26 134.57 243.37 137.53 C 247.47 140.49 250.20 144.99 250.92 150.00 L 263.14 234.22 C 263.18 234.53 263.10 234.84 262.91 235.08 C 262.73 235.33 262.45 235.49 262.14 235.53 Z" fill="#443530" fill-rule="nonzero" group-id="1,2" node-id="425" stroke="none" target-height="102.12131" target-width="46.64357" target-x="216.53902" target-y="133.40869"></path><path d="M 235.76 232.54 C 235.18 232.54 234.69 232.11 234.61 231.54 L 226.61 165.13 L 220.06 166.61 C 219.44 166.75 218.82 166.36 218.68 165.74 C 218.54 165.12 218.93 164.50 219.55 164.36 L 227.35 162.59 C 227.67 162.52 228.00 162.58 228.27 162.77 C 228.54 162.96 228.72 163.25 228.76 163.58 L 236.91 231.27 C 236.95 231.57 236.87 231.88 236.68 232.12 C 236.49 232.36 236.21 232.52 235.91 232.55 Z" fill="#443530" fill-rule="nonzero" group-id="1,2" node-id="427" stroke="none" target-height="70.032104" target-width="18.410324" target-x="218.53917" target-y="162.5179"></path><path d="M 110.61 71.79 C 108.36 71.94 106.14 71.27 104.35 69.89 C 101.83 67.69 101.84 64.10 101.85 61.23 C 101.85 60.45 101.85 59.69 101.85 59.01 C 101.66 56.77 102.50 54.55 104.14 53.01 C 106.60 50.68 110.67 49.73 115.62 50.36 C 117.82 50.53 119.83 51.65 121.12 53.44 C 123.50 56.87 122.51 61.77 122.29 62.72 C 122.24 62.91 122.15 63.08 122.02 63.23 C 121.68 63.73 121.01 63.87 120.49 63.57 C 119.96 63.27 119.76 62.62 120.02 62.07 C 120.41 60.29 120.65 56.88 119.18 54.77 C 118.26 53.52 116.84 52.75 115.29 52.65 C 111.04 52.12 107.64 52.85 105.69 54.65 C 104.55 55.71 103.97 57.23 104.12 58.78 C 104.12 59.51 104.12 60.32 104.12 61.16 C 104.12 63.82 104.12 66.57 105.83 68.08 C 107.25 69.32 109.83 69.69 113.55 69.17 C 114.21 69.16 114.75 69.67 114.80 70.32 C 114.82 70.62 114.72 70.91 114.52 71.13 C 114.32 71.35 114.04 71.48 113.74 71.48 C 112.70 71.65 111.66 71.76 110.61 71.79 Z" fill="#443530" fill-rule="nonzero" group-id="1,2" node-id="429" stroke="none" target-height="22.211262" target-width="21.84401" target-x="101.65599" target-y="49.73"></path><path d="M 86.07 148.08 C 85.78 148.12 85.49 148.03 85.27 147.84 C 85.05 147.65 84.93 147.37 84.93 147.08 L 84.93 147.08 C 82.93 138.77 86.82 135.15 90.57 131.64 C 94.32 128.13 98.41 124.31 97.71 114.64 C 97.17 107.22 101.31 104.37 104.33 102.28 C 106.68 100.66 108.00 99.65 107.86 97.65 C 106.96 85.25 106.69 72.29 111.54 70.27 C 112.10 70.05 112.64 69.78 113.16 69.46 C 113.71 69.13 114.43 69.31 114.76 69.86 C 115.09 70.41 114.91 71.13 114.36 71.46 C 113.74 71.84 113.10 72.18 112.43 72.46 C 110.62 73.21 108.76 78.16 110.17 97.53 C 110.41 100.94 107.99 102.61 105.65 104.23 C 102.65 106.29 99.58 108.42 100.02 114.52 C 100.80 125.31 96.20 129.61 92.15 133.40 C 88.44 136.87 85.51 139.61 87.21 146.88 C 87.18 147.51 86.69 148.02 86.07 148.08 Z" fill="#443530" fill-rule="nonzero" group-id="1,2" node-id="431" stroke="none" target-height="78.99217" target-width="32.16137" target-x="82.93" target-y="69.12863"></path><path d="M 148.32 233.71 C 147.72 233.68 147.24 233.20 147.21 232.60 C 147.19 231.99 147.63 231.47 148.23 231.40 C 162.91 230.20 177.41 223.31 191.31 210.93 C 206.25 197.60 215.23 182.21 217.99 165.18 C 218.03 164.87 218.19 164.59 218.44 164.40 C 218.69 164.21 219.00 164.13 219.31 164.18 C 219.62 164.22 219.90 164.39 220.09 164.64 C 220.28 164.89 220.36 165.20 220.31 165.51 C 217.46 183.08 208.24 198.93 192.89 212.62 C 178.60 225.34 163.65 232.42 148.45 233.67 Z" fill="#443530" fill-rule="nonzero" group-id="1,2" node-id="433" stroke="none" target-height="69.57837" target-width="73.16553" target-x="147.19006" target-y="164.13164"></path><path d="M 120.00 228.18 C 119.40 228.18 118.90 227.73 118.85 227.13 C 118.60 223.82 118.53 220.51 118.62 217.19 C 118.85 204.92 120.88 187.45 129.23 173.52 L 125.09 158.61 C 124.95 158.20 125.04 157.75 125.34 157.43 C 125.63 157.11 126.08 156.99 126.50 157.11 C 126.92 157.23 127.23 157.57 127.32 157.99 L 131.59 173.39 C 131.68 173.70 131.63 174.03 131.46 174.30 C 122.74 188.57 121.12 207.30 120.94 217.23 C 120.85 220.46 120.92 223.70 121.16 226.92 C 121.21 227.56 120.75 228.12 120.11 228.18 Z" fill="#443530" fill-rule="nonzero" group-id="1,2" node-id="435" stroke="none" target-height="71.1927" target-width="13.15007" target-x="118.52751" target-y="156.98956"></path><path d="M 166.00 151.73 C 165.83 151.73 165.66 151.69 165.51 151.62 C 165.16 151.46 164.91 151.13 164.86 150.75 L 163.66 143.00 C 163.57 142.58 163.72 142.15 164.05 141.87 C 164.38 141.60 164.84 141.53 165.24 141.69 C 165.63 141.85 165.91 142.22 165.95 142.65 L 166.88 148.65 C 179.54 141.32 192.60 139.38 206.39 137.34 L 210.73 136.68 C 212.91 136.34 215.11 135.99 217.33 135.60 C 217.87 135.51 218.40 135.81 218.60 136.32 C 218.71 136.60 218.81 136.88 218.89 137.17 C 219.07 137.78 218.72 138.43 218.11 138.61 C 217.58 138.77 217.02 138.54 216.76 138.05 C 214.86 138.38 212.97 138.68 211.09 138.97 L 206.73 139.63 C 192.64 141.72 179.33 143.70 166.61 151.51 C 166.43 151.64 166.22 151.71 166.00 151.73 Z" fill="#443530" fill-rule="nonzero" group-id="1,2" node-id="437" stroke="none" target-height="16.215927" target-width="55.498856" target-x="163.57222" target-y="135.51407"></path><path d="M 278.89 266.81 C 278.72 266.81 278.55 266.77 278.39 266.70 L 236.28 246.45 C 235.89 246.27 235.64 245.88 235.62 245.45 L 234.53 230.31 C 234.51 230.00 234.61 229.70 234.81 229.47 C 235.01 229.24 235.29 229.10 235.60 229.08 C 235.91 229.05 236.22 229.15 236.45 229.35 C 236.68 229.55 236.83 229.84 236.84 230.15 L 237.84 244.62 L 278.38 264.10 L 280.38 260.57 L 264.53 236.64 L 261.53 235.39 C 261.12 235.25 260.81 234.90 260.75 234.47 C 260.68 234.04 260.86 233.61 261.21 233.35 C 261.56 233.10 262.02 233.06 262.41 233.25 L 265.76 234.64 C 265.98 234.72 266.17 234.87 266.29 235.07 L 282.72 259.89 C 282.95 260.26 282.95 260.73 282.72 261.10 L 279.84 266.18 C 279.65 266.54 279.29 266.78 278.89 266.81 Z" fill="#443530" fill-rule="nonzero" group-id="1,2" node-id="439" stroke="none" target-height="37.760498" target-width="48.441315" target-x="234.50803" target-y="229.0495"></path><path d="M 38.22 307.00 L 38.00 307.00 L 32.27 305.83 C 31.67 305.70 31.28 305.13 31.36 304.53 L 37.66 258.23 C 37.72 257.82 37.99 257.47 38.37 257.31 L 52.45 251.61 C 53.04 251.39 53.70 251.68 53.93 252.26 C 54.17 252.84 53.90 253.51 53.32 253.76 L 39.87 259.21 L 33.80 303.78 L 37.80 304.59 L 55.69 282.15 L 56.00 278.35 C 56.01 278.04 56.16 277.75 56.39 277.55 C 56.63 277.35 56.93 277.26 57.24 277.29 C 57.55 277.31 57.83 277.46 58.03 277.69 C 58.23 277.92 58.32 278.22 58.30 278.53 L 57.97 282.69 C 57.95 282.92 57.87 283.13 57.72 283.31 L 39.13 306.59 C 38.90 306.86 38.57 307.01 38.22 307.00 Z" fill="#443530" fill-rule="nonzero" group-id="1,2" node-id="441" stroke="none" target-height="55.619934" target-width="27.046595" target-x="31.27823" target-y="251.38754"></path><path d="M 180.19 115.11 C 180.37 115.27 180.11 112.66 180.53 109.39 C 181.11 104.98 182.53 101.98 182.59 96.16 L 188.05 111.23 Z" fill="#fbd6d0" fill-rule="nonzero" group-id="1,2,19" node-id="445" stroke="none" target-height="19.109993" target-width="7.9400024" target-x="180.11" target-y="96.16"></path><path d="M 118.32 228.59 L 142.18 241.42 C 142.18 241.42 148.25 232.57 147.70 232.61 C 142.37 232.98 137.02 232.59 131.80 231.46 C 124.55 229.62 121.59 227.67 119.94 227.18 Z" fill="#fbd6d0" fill-rule="nonzero" group-id="1,2,20" node-id="450" stroke="none" target-height="14.2400055" target-width="29.93" target-x="118.32" target-y="227.18"></path><path d="M 220.00 153.34 L 221.38 165.11 L 219.07 165.63 C 219.73 161.57 220.04 157.46 220.00 153.34 Z" fill="#fbd6d0" fill-rule="nonzero" group-id="1,2,21" node-id="455" stroke="none" target-height="12.290009" target-width="2.3099976" target-x="219.07" target-y="153.34"></path><path d="M 156.81 129.16 L 157.66 135.67" fill="none" group-id="1,2" node-id="458" stroke="#0095d7" stroke-linecap="round" stroke-width="1" target-height="6.5099945" target-width="0.8500061" target-x="156.81" target-y="129.16"></path><path d="M 124.25 141.31 L 126.50 148.41" fill="none" group-id="1,2" node-id="460" stroke="#0095d7" stroke-linecap="round" stroke-width="1" target-height="7.100006" target-width="2.25" target-x="124.25" target-y="141.31"></path><path d="M 157.65 137.60 C 156.68 137.59 155.87 136.88 155.74 135.92 L 154.90 129.41 C 154.76 128.71 155.03 127.98 155.59 127.53 C 156.15 127.09 156.91 126.99 157.57 127.27 C 158.23 127.56 158.67 128.19 158.72 128.91 L 159.57 135.42 C 159.71 136.48 158.97 137.45 157.91 137.59 Z" fill="#3e6e9e" fill-rule="nonzero" group-id="1,2" node-id="462" stroke="none" target-height="10.6143875" target-width="4.943329" target-x="154.76286" target-y="126.98562"></path><path d="M 126.50 150.34 C 125.66 150.34 124.91 149.80 124.66 148.99 L 122.41 141.89 C 122.12 140.89 122.69 139.83 123.69 139.52 C 124.68 139.21 125.75 139.74 126.09 140.73 L 128.34 147.83 C 128.52 148.42 128.42 149.06 128.06 149.55 C 127.69 150.05 127.11 150.34 126.50 150.34 Z" fill="#3e6e9e" fill-rule="nonzero" group-id="1,2" node-id="464" stroke="none" target-height="11.136383" target-width="6.400917" target-x="122.12379" target-y="139.2065"></path><path d="M 124.00 115.09 L 124.83 119.09 L 127.58 135.44 L 127.78 136.66 C 128.10 138.62 127.08 140.55 125.28 141.38 C 124.80 141.61 124.27 141.74 123.74 141.78 C 121.45 141.94 119.42 140.31 119.08 138.04 L 116.61 121.36 C 118.76 119.68 123.52 115.62 124.00 115.09 Z M 123.56 139.47 C 124.80 139.37 125.73 138.29 125.64 137.05 C 125.55 135.81 124.47 134.87 123.22 134.96 C 121.98 135.05 121.05 136.13 121.13 137.37 C 121.17 137.97 121.46 138.54 121.92 138.93 C 122.38 139.33 122.98 139.52 123.58 139.47 Z" fill="#709dc4" fill-rule="nonzero" group-id="1,2" node-id="466" stroke="none" target-height="26.850876" target-width="11.492554" target-x="116.61" target-y="115.09"></path><path d="M 123.25 135.00 C 122.01 135.10 121.08 136.18 121.17 137.43 C 121.27 138.67 122.36 139.60 123.60 139.51 C 124.84 139.41 125.78 138.32 125.68 137.08 C 125.63 136.48 125.35 135.93 124.90 135.54 C 124.44 135.15 123.85 134.95 123.25 135.00 Z" fill="#ffffff" fill-rule="nonzero" group-id="1,2,22" node-id="470" stroke="none" target-height="4.64946" target-width="4.698967" target-x="121.07659" target-y="134.95311"></path><path d="M 160.44 123.81 C 160.79 125.80 159.81 127.80 158.01 128.73 C 157.63 128.92 157.23 129.07 156.81 129.16 C 156.60 129.21 156.38 129.24 156.16 129.26 C 153.80 129.43 151.64 127.81 151.37 126.08 L 148.68 109.49 L 148.68 109.49 L 147.84 104.33 L 156.39 99.33 Z M 156.11 126.64 C 157.35 126.55 158.29 125.47 158.20 124.22 C 158.11 122.98 157.03 122.04 155.79 122.13 C 154.54 122.22 153.61 123.30 153.69 124.54 C 153.73 125.14 154.01 125.70 154.46 126.09 C 154.92 126.49 155.51 126.68 156.11 126.64 Z" fill="#709dc4" fill-rule="nonzero" group-id="1,2" node-id="473" stroke="none" target-height="30.09999" target-width="12.950455" target-x="147.84" target-y="99.33"></path><path d="M 155.78 122.13 C 154.54 122.23 153.61 123.31 153.70 124.55 C 153.80 125.80 154.88 126.73 156.12 126.64 C 157.37 126.54 158.30 125.46 158.21 124.22 C 158.17 123.62 157.89 123.06 157.43 122.67 C 156.98 122.27 156.38 122.08 155.78 122.13 Z" fill="#ffffff" fill-rule="nonzero" group-id="1,2,23" node-id="477" stroke="none" target-height="4.648842" target-width="4.69223" target-x="153.60776" target-y="122.08042"></path><path d="M 27.03 166.89 L 33.19 165.38 L 34.07 167.54 L 27.58 169.14 L 27.03 166.89 Z" fill="#443530" fill-rule="nonzero" group-id="1,2" node-id="480" stroke="none" target-height="3.7599945" target-width="7.039999" target-x="27.03" target-y="165.38"></path><path d="M 29.09 185.55 L 37.39 184.12 L 37.39 186.47 L 29.09 187.90 L 29.09 185.55 Z" fill="#443530" fill-rule="nonzero" group-id="1,2" node-id="482" stroke="none" target-height="3.7799988" target-width="8.299999" target-x="29.09" target-y="184.12"></path></g></g></svg>