<?xml version="1.0" encoding="UTF-8"?>
<svg width="1232px" height="342px" viewBox="0 0 1232 342" version="1.1" xmlns="http://www.w3.org/2000/svg" xmlns:xlink="http://www.w3.org/1999/xlink">
    <title>考试特点</title>
    <defs>
        <path d="M0,56 L230,56 C241.045695,56 250,64.954305 250,76 L250,300 C250,311.045695 241.045695,320 230,320 L20,320 C8.954305,320 1.3527075e-15,311.045695 0,300 L0,56 L0,56 Z" id="path-1"></path>
        <filter x="-12.0%" y="-11.4%" width="124.0%" height="122.7%" filterUnits="objectBoundingBox" id="filter-2">
            <feOffset dx="0" dy="0" in="SourceAlpha" result="shadowOffsetOuter1"></feOffset>
            <feGaussianBlur stdDeviation="10" in="shadowOffsetOuter1" result="shadowBlurOuter1"></feGaussianBlur>
            <feColorMatrix values="0 0 0 0 0.00784313725   0 0 0 0 0.392156863   0 0 0 0 0.980392157  0 0 0 0.3 0" type="matrix" in="shadowBlurOuter1"></feColorMatrix>
        </filter>
        <linearGradient x1="50%" y1="0%" x2="50%" y2="50%" id="linearGradient-3">
            <stop stop-color="#D4E2FF" stop-opacity="0.4" offset="0%"></stop>
            <stop stop-color="#FFFFFF" stop-opacity="0" offset="100%"></stop>
        </linearGradient>
        <linearGradient x1="50%" y1="0%" x2="50%" y2="61.5710058%" id="linearGradient-4">
            <stop stop-color="#D4F1FF" stop-opacity="0.2" offset="0%"></stop>
            <stop stop-color="#FFFFFF" stop-opacity="0" offset="100%"></stop>
        </linearGradient>
        <linearGradient x1="100%" y1="0%" x2="0%" y2="100%" id="linearGradient-5">
            <stop stop-color="#66A3FF" offset="0%"></stop>
            <stop stop-color="#CFE2FF" stop-opacity="0.300071023" offset="100%"></stop>
        </linearGradient>
        <linearGradient x1="100%" y1="32.2544138%" x2="0%" y2="67.7455862%" id="linearGradient-6">
            <stop stop-color="#66A3FF" offset="0%"></stop>
            <stop stop-color="#CFE2FF" stop-opacity="0.300071023" offset="100%"></stop>
        </linearGradient>
        <linearGradient x1="50%" y1="0%" x2="50%" y2="100%" id="linearGradient-7">
            <stop stop-color="#FFFFFF" stop-opacity="0.499344406" offset="0%"></stop>
            <stop stop-color="#FFFFFF" stop-opacity="0.8" offset="100%"></stop>
        </linearGradient>
        <linearGradient x1="50%" y1="0%" x2="50%" y2="100%" id="linearGradient-8">
            <stop stop-color="#0264FA" offset="0%"></stop>
            <stop stop-color="#059DFD" offset="100%"></stop>
        </linearGradient>
        <path d="M0,56 L230,56 C241.045695,56 250,64.954305 250,76 L250,300 C250,311.045695 241.045695,320 230,320 L20,320 C8.954305,320 1.3527075e-15,311.045695 0,300 L0,56 L0,56 Z" id="path-9"></path>
        <filter x="-12.0%" y="-11.4%" width="124.0%" height="122.7%" filterUnits="objectBoundingBox" id="filter-10">
            <feOffset dx="0" dy="0" in="SourceAlpha" result="shadowOffsetOuter1"></feOffset>
            <feGaussianBlur stdDeviation="10" in="shadowOffsetOuter1" result="shadowBlurOuter1"></feGaussianBlur>
            <feColorMatrix values="0 0 0 0 1   0 0 0 0 0.690196078   0 0 0 0 0.0117647059  0 0 0 0.3 0" type="matrix" in="shadowBlurOuter1"></feColorMatrix>
        </filter>
        <linearGradient x1="50%" y1="0%" x2="50%" y2="50%" id="linearGradient-11">
            <stop stop-color="#FFF8D4" stop-opacity="0.4" offset="0%"></stop>
            <stop stop-color="#FFFFFF" stop-opacity="0" offset="100%"></stop>
        </linearGradient>
        <linearGradient x1="50%" y1="0%" x2="50%" y2="61.5710058%" id="linearGradient-12">
            <stop stop-color="#FFF4D4" stop-opacity="0.4" offset="0%"></stop>
            <stop stop-color="#FFFFFF" stop-opacity="0" offset="100%"></stop>
        </linearGradient>
        <linearGradient x1="50%" y1="0%" x2="50%" y2="100%" id="linearGradient-13">
            <stop stop-color="#FFB003" offset="0%"></stop>
            <stop stop-color="#FFD809" offset="100%"></stop>
        </linearGradient>
        <linearGradient x1="100%" y1="0%" x2="0%" y2="100%" id="linearGradient-14">
            <stop stop-color="#FFB003" offset="0%"></stop>
            <stop stop-color="#FFEDCF" stop-opacity="0.300071023" offset="100%"></stop>
        </linearGradient>
        <linearGradient x1="99.7459572%" y1="46.8908777%" x2="0%" y2="53.125%" id="linearGradient-15">
            <stop stop-color="#FFC854" offset="0%"></stop>
            <stop stop-color="#FFEFCD" offset="100%"></stop>
        </linearGradient>
        <path d="M0,56 L230,56 C241.045695,56 250,64.954305 250,76 L250,300 C250,311.045695 241.045695,320 230,320 L20,320 C8.954305,320 1.3527075e-15,311.045695 0,300 L0,56 L0,56 Z" id="path-16"></path>
        <filter x="-12.0%" y="-11.4%" width="124.0%" height="122.7%" filterUnits="objectBoundingBox" id="filter-17">
            <feOffset dx="0" dy="0" in="SourceAlpha" result="shadowOffsetOuter1"></feOffset>
            <feGaussianBlur stdDeviation="10" in="shadowOffsetOuter1" result="shadowBlurOuter1"></feGaussianBlur>
            <feColorMatrix values="0 0 0 0 0.962598026   0 0 0 0 0.418756545   0 0 0 0 0.614890695  0 0 0 0.3 0" type="matrix" in="shadowBlurOuter1"></feColorMatrix>
        </filter>
        <linearGradient x1="50%" y1="0%" x2="50%" y2="61.5710058%" id="linearGradient-18">
            <stop stop-color="#FFD4E3" stop-opacity="0.4" offset="0%"></stop>
            <stop stop-color="#FFFFFF" stop-opacity="0" offset="100%"></stop>
        </linearGradient>
        <linearGradient x1="50%" y1="0%" x2="50%" y2="61.5710058%" id="linearGradient-19">
            <stop stop-color="#FFD4E3" stop-opacity="0.4" offset="0%"></stop>
            <stop stop-color="#FFFFFF" stop-opacity="0" offset="100%"></stop>
        </linearGradient>
        <linearGradient x1="50%" y1="0%" x2="50%" y2="100%" id="linearGradient-20">
            <stop stop-color="#F25E93" offset="0%"></stop>
            <stop stop-color="#FA97C5" offset="100%"></stop>
        </linearGradient>
        <linearGradient x1="50%" y1="0%" x2="50%" y2="100%" id="linearGradient-21">
            <stop stop-color="#FA97C5" offset="0%"></stop>
            <stop stop-color="#F25E93" offset="100%"></stop>
        </linearGradient>
        <linearGradient x1="50%" y1="0%" x2="50%" y2="100%" id="linearGradient-22">
            <stop stop-color="#F25E93" offset="0%"></stop>
            <stop stop-color="#FA97C5" offset="100%"></stop>
        </linearGradient>
        <linearGradient x1="100%" y1="0%" x2="0%" y2="100%" id="linearGradient-23">
            <stop stop-color="#FF66A3" offset="0%"></stop>
            <stop stop-color="#FFCFE5" offset="100%"></stop>
        </linearGradient>
        <path d="M-1.13686838e-13,56 L230,56 C241.045695,56 250,64.954305 250,76 L250,300 C250,311.045695 241.045695,320 230,320 L20,320 C8.954305,320 -1.1233413e-13,311.045695 -1.13686838e-13,300 L-1.13686838e-13,56 L-1.13686838e-13,56 Z" id="path-24"></path>
        <filter x="-12.0%" y="-11.4%" width="124.0%" height="122.7%" filterUnits="objectBoundingBox" id="filter-25">
            <feOffset dx="0" dy="0" in="SourceAlpha" result="shadowOffsetOuter1"></feOffset>
            <feGaussianBlur stdDeviation="10" in="shadowOffsetOuter1" result="shadowBlurOuter1"></feGaussianBlur>
            <feColorMatrix values="0 0 0 0 0.143901974   0 0 0 0 0.783989608   0 0 0 0 0.963818491  0 0 0 0.3 0" type="matrix" in="shadowBlurOuter1"></feColorMatrix>
        </filter>
        <linearGradient x1="50%" y1="0%" x2="50%" y2="61.5710058%" id="linearGradient-26">
            <stop stop-color="#D4ECFF" stop-opacity="0.4" offset="0%"></stop>
            <stop stop-color="#FFFFFF" stop-opacity="0" offset="100%"></stop>
        </linearGradient>
        <linearGradient x1="50%" y1="0%" x2="50%" y2="61.5710058%" id="linearGradient-27">
            <stop stop-color="#D4F1FF" stop-opacity="0.4" offset="0%"></stop>
            <stop stop-color="#FFFFFF" stop-opacity="0" offset="100%"></stop>
        </linearGradient>
        <linearGradient x1="50%" y1="0%" x2="50%" y2="100%" id="linearGradient-28">
            <stop stop-color="#FFFFFF" stop-opacity="0.499344406" offset="0%"></stop>
            <stop stop-color="#FFFFFF" stop-opacity="0.8" offset="100%"></stop>
        </linearGradient>
        <linearGradient x1="100%" y1="0%" x2="0%" y2="0%" id="linearGradient-29">
            <stop stop-color="#25C8F5" offset="0%"></stop>
            <stop stop-color="#A6EBFF" offset="100%"></stop>
        </linearGradient>
        <linearGradient x1="100%" y1="0%" x2="0%" y2="0%" id="linearGradient-30">
            <stop stop-color="#25C8F5" offset="0%"></stop>
            <stop stop-color="#A6EBFF" offset="100%"></stop>
        </linearGradient>
        <linearGradient x1="100%" y1="0%" x2="0%" y2="0%" id="linearGradient-31">
            <stop stop-color="#25C8F5" offset="0%"></stop>
            <stop stop-color="#A6EBFF" offset="100%"></stop>
        </linearGradient>
        <linearGradient x1="100%" y1="0%" x2="0%" y2="0%" id="linearGradient-32">
            <stop stop-color="#25C8F5" offset="0%"></stop>
            <stop stop-color="#A6EBFF" offset="100%"></stop>
        </linearGradient>
        <linearGradient x1="100%" y1="0%" x2="0%" y2="0%" id="linearGradient-33">
            <stop stop-color="#25C8F5" offset="0%"></stop>
            <stop stop-color="#A6EBFF" offset="100%"></stop>
        </linearGradient>
    </defs>
    <g id="蓝桥工程实践能力考试证书" stroke="none" stroke-width="1" fill="none" fill-rule="evenodd">
        <g id="证书专题备份-8" transform="translate(-344.000000, -870.000000)">
            <g id="考试特点" transform="translate(344.000000, 870.000000)">
                <g transform="translate(20.000000, 2.000000)">
                    <g id="拆解">
                        <g id="矩形">
                            <use fill="black" fill-opacity="1" filter="url(#filter-2)" xlink:href="#path-1"></use>
                            <use fill="#0264FA" fill-rule="evenodd" xlink:href="#path-1"></use>
                        </g>
                        <path d="M207.5,302.93102 C230.419817,302.93102 249,295.096003 249,285.43102 C249,275.766037 227.687886,262 204.768069,262 C181.848252,262 166,275.766037 166,285.43102 C166,295.096003 184.580183,302.93102 207.5,302.93102 Z" id="椭圆形" fill="url(#linearGradient-3)" transform="translate(207.500000, 282.465510) rotate(-225.000000) translate(-207.500000, -282.465510) "></path>
                        <path d="M243,264 C216.490332,264 195,285.490332 195,312" id="路径" stroke="#D8E7FF" stroke-width="3" stroke-dasharray="4" transform="translate(219.000000, 288.000000) rotate(-180.000000) translate(-219.000000, -288.000000) "></path>
                        <ellipse id="椭圆形" fill="url(#linearGradient-4)" transform="translate(114.607905, 111.732127) rotate(-180.000000) translate(-114.607905, -111.732127) " cx="114.607905" cy="111.732127" rx="105" ry="44.5"></ellipse>
                        <g id="编组-12" transform="translate(71.000000, 0.000000)">
                            <path d="M48,0 C21.490332,0 0,21.490332 0,48" id="路径" stroke="#0264FA" stroke-width="3" stroke-dasharray="4"></path>
                            <g id="编组-5" transform="translate(12.000000, 12.000000)">
                                <rect id="矩形备份-22" x="0" y="0" width="72" height="72"></rect>
                                <g id="编组-4" transform="translate(8.000000, 2.000000)">
                                    <path d="M56.8,22.4 C56.8,10.0288216 46.7711784,0 34.4,0 C34.4,9.95555556 34.4,17.4222222 34.4,22.4 L56.8,22.4 Z" id="路径备份" fill="url(#linearGradient-5)"></path>
                                    <path d="M8.27093141,66.8214702 L25.307088,47.0036187 C25.8258521,46.4 26.9147412,46.2187639 27.73919,46.5984818 C27.9628154,46.7014774 28.1519702,46.8399324 28.292681,47.0036187 L45.3288376,66.8214702 C45.8476017,67.424939 45.6,68.2219694 44.7753465,68.6016873 C44.494028,68.7312547 44.1684168,68.8 43.8360411,68.8 L9.76372793,68.8 C8.78964789,68.8 8,68.2220042 8,67.5090103 C8,67.2657224 8.09391863,67.027386 8.27093141,66.8214702 Z" id="矩形" fill="url(#linearGradient-6)"></path>
                                    <path d="M26.4,4 C11.8196826,4 0,15.8196826 0,30.4 C0,44.9803174 11.8196826,56.8 26.4,56.8 C40.9803174,56.8 52.8,44.9803174 52.8,30.4 L26.4,30.4 L26.4,4 Z" id="路径" stroke="url(#linearGradient-8)" stroke-width="6.4" fill="url(#linearGradient-7)"></path>
                                </g>
                            </g>
                        </g>
                        <text id="拆解工作实战场景" font-family="PingFangSC-Medium, PingFang SC" font-size="20" font-weight="400" fill="#FFFFFF">
                            <tspan x="39" y="135">拆解工作实战场景</tspan>
                        </text>
                        <text id="拆解企业真实工作场景，解构应聘者项目开发" font-family="PingFangSC-Regular, PingFang SC" font-size="16" font-weight="normal" line-spacing="24" fill="#FFFFFF">
                            <tspan x="14" y="184">拆解企业真实工作场景，解构</tspan>
                            <tspan x="14" y="208">应聘者项目开发能力，将企业</tspan>
                            <tspan x="14" y="232">JD中的技能要求变成客观、</tspan>
                            <tspan x="14" y="256">可量化的技能点。</tspan>
                        </text>
                    </g>
                    <g id="以技能点为考核" transform="translate(314.000000, 0.000000)">
                        <g id="矩形">
                            <use fill="black" fill-opacity="1" filter="url(#filter-10)" xlink:href="#path-9"></use>
                            <use fill="#FFB003" fill-rule="evenodd" xlink:href="#path-9"></use>
                        </g>
                        <path d="M209.5,302.93102 C232.419817,302.93102 251,295.096003 251,285.43102 C251,275.766037 229.687886,262 206.768069,262 C183.848252,262 168,275.766037 168,285.43102 C168,295.096003 186.580183,302.93102 209.5,302.93102 Z" id="椭圆形" fill="url(#linearGradient-11)" transform="translate(209.500000, 282.465510) rotate(-225.000000) translate(-209.500000, -282.465510) "></path>
                        <path d="M243,264 C216.490332,264 195,285.490332 195,312" id="路径" stroke="#FFF5DA" stroke-width="3" stroke-dasharray="4" transform="translate(219.000000, 288.000000) rotate(-180.000000) translate(-219.000000, -288.000000) "></path>
                        <ellipse id="椭圆形" fill="url(#linearGradient-12)" transform="translate(125.000000, 111.500000) rotate(-180.000000) translate(-125.000000, -111.500000) " cx="125" cy="111.5" rx="105" ry="44.5"></ellipse>
                        <g id="编组-22" transform="translate(20.000000, 0.000000)">
                            <path d="M99,0 C72.490332,0 51,21.490332 51,48" id="路径" stroke="#FFB003" stroke-width="3" stroke-dasharray="4"></path>
                            <g id="编组-19" transform="translate(0.000000, 17.000000)">
                                <rect id="矩形备份-22" x="71" y="0" width="72" height="72"></rect>
                                <g id="编组-6" transform="translate(73.000000, 0.000000)">
                                    <circle id="椭圆形" stroke="url(#linearGradient-13)" stroke-width="5.83296" fill="url(#linearGradient-7)" cx="33.2661" cy="32.3547" r="24.1521"></circle>
                                    <circle id="椭圆形" stroke="#FFFFFF" stroke-width="3.6456" fill="url(#linearGradient-14)" cx="9.114" cy="35.5446" r="9.114"></circle>
                                    <circle id="椭圆形备份" stroke="#FFFFFF" stroke-width="3.6456" fill="url(#linearGradient-14)" cx="57.4182" cy="35.5446" r="9.114"></circle>
                                    <circle id="椭圆形备份-2" stroke="#FFFFFF" stroke-width="3.6456" fill="url(#linearGradient-14)" cx="33.7218" cy="9.114" r="9.114"></circle>
                                    <rect id="矩形" fill="url(#linearGradient-15)" x="19.1394" y="62.8866" width="29.1648" height="7.2912" rx="3.6456"></rect>
                                </g>
                                <text id="以技能点为考核" font-family="PingFangSC-Medium, PingFang SC" font-size="20" font-weight="400" fill="#FFFFFF">
                                    <tspan x="35" y="118">以技能点为考核</tspan>
                                </text>
                                <text id="每道场景实战题包含多个实操步骤，对标实际" font-family="PingFangSC-Regular, PingFang SC" font-size="16" font-weight="normal" line-spacing="24" fill="#FFFFFF">
                                    <tspan x="0" y="167">每道场景实战题包含多个实操</tspan>
                                    <tspan x="0" y="191">步骤，对标实际工作中技能要</tspan>
                                    <tspan x="0" y="215">求。</tspan>
                                </text>
                            </g>
                        </g>
                    </g>
                    <g id="实操方式检验" transform="translate(628.000000, 0.000000)">
                        <g id="矩形">
                            <use fill="black" fill-opacity="1" filter="url(#filter-17)" xlink:href="#path-16"></use>
                            <use fill="#F66B9D" fill-rule="evenodd" xlink:href="#path-16"></use>
                        </g>
                        <path d="M243,264 C216.490332,264 195,285.490332 195,312" id="路径" stroke="#FFE5EE" stroke-width="3" stroke-dasharray="4" transform="translate(219.000000, 288.000000) rotate(-180.000000) translate(-219.000000, -288.000000) "></path>
                        <ellipse id="椭圆形" fill="url(#linearGradient-18)" transform="translate(125.000000, 111.500000) rotate(-180.000000) translate(-125.000000, -111.500000) " cx="125" cy="111.5" rx="105" ry="44.5"></ellipse>
                        <path d="M210.5,302.93102 C233.419817,302.93102 252,295.096003 252,285.43102 C252,275.766037 230.687886,262 207.768069,262 C184.848252,262 169,275.766037 169,285.43102 C169,295.096003 187.580183,302.93102 210.5,302.93102 Z" id="椭圆形" fill="url(#linearGradient-19)" transform="translate(210.500000, 282.465510) rotate(-225.000000) translate(-210.500000, -282.465510) "></path>
                        <g id="编组-14" transform="translate(20.000000, 0.000000)">
                            <path d="M99,0 C72.490332,0 51,21.490332 51,48" id="路径" stroke="#F25E93" stroke-width="3" stroke-dasharray="4"></path>
                            <g id="编组-20" transform="translate(0.000000, 17.000000)">
                                <rect id="矩形备份-23" x="69" y="4" width="72" height="72"></rect>
                                <g id="编组-7" transform="translate(68.000000, 0.000000)">
                                    <circle id="椭圆形" stroke="url(#linearGradient-20)" stroke-width="5.83296" fill="url(#linearGradient-7)" cx="37" cy="40" r="22"></circle>
                                    <path d="M14.524683,62.627417 C16.0042219,64.1069559 17.6279688,65.4422867 19.3730315,66.6105172 C21.104514,67.7696564 22.9554314,68.764286 24.9034219,69.572044 C28.676325,71.1365243 32.8133747,72 37.1521,72 M59.779517,17.372583 C56.8319532,14.4250192 53.3120374,12.0498074 49.4007781,10.427956 C47.4862324,9.63406626 45.4779183,9.02068644 43.3970657,8.60904635 C41.3772821,8.20948711 39.2891552,8 37.1521,8" id="形状" stroke="url(#linearGradient-21)" stroke-width="5.83296" transform="translate(37.152100, 40.000000) rotate(-255.000000) translate(-37.152100, -40.000000) "></path>
                                    <path d="M14.524683,62.627417 C16.0042219,64.1069559 17.6279688,65.4422867 19.3730315,66.6105172 C21.104514,67.7696564 22.9554314,68.764286 24.9034219,69.572044 C28.676325,71.1365243 32.8133747,72 37.1521,72 M59.779517,17.372583 C56.8319532,14.4250192 53.3120374,12.0498074 49.4007781,10.427956 C47.4862324,9.63406626 45.4779183,9.02068644 43.3970657,8.60904635 C41.3772821,8.20948711 39.2891552,8 37.1521,8" id="形状" stroke="url(#linearGradient-22)" stroke-width="5.83296" transform="translate(37.152100, 40.000000) rotate(-330.000000) translate(-37.152100, -40.000000) "></path>
                                    <circle id="椭圆形" fill="url(#linearGradient-23)" transform="translate(37.000000, 40.000000) scale(-1, 1) translate(-37.000000, -40.000000) " cx="37" cy="40" r="11"></circle>
                                </g>
                                <text id="实操方式检验" font-family="PingFangSC-Medium, PingFang SC" font-size="20" font-weight="400" fill="#FFFFFF">
                                    <tspan x="45" y="122">实操方式检验</tspan>
                                </text>
                                <text id="用实操的方式，客观评估考生技能点掌握情况" font-family="PingFangSC-Regular, PingFang SC" font-size="16" font-weight="normal" line-spacing="24" fill="#FFFFFF">
                                    <tspan x="0" y="171">用实操的方式，客观评估考生</tspan>
                                    <tspan x="0" y="195">技能点掌握情况。通过70%技</tspan>
                                    <tspan x="0" y="219">能点，被认为具备相应级别工</tspan>
                                    <tspan x="0" y="243">程师的工程实践能力。</tspan>
                                </text>
                            </g>
                        </g>
                    </g>
                    <g id="技能报告" transform="translate(942.000000, 0.000000)">
                        <g id="编组-18备份-3">
                            <g id="矩形">
                                <use fill="black" fill-opacity="1" filter="url(#filter-25)" xlink:href="#path-24"></use>
                                <use fill="#25C8F5" fill-rule="evenodd" xlink:href="#path-24"></use>
                            </g>
                            <path d="M209.816232,301.281743 C232.73605,301.281743 251.316232,293.446726 251.316232,283.781743 C251.316232,274.116759 230.004119,260.350722 207.084302,260.350722 C184.164485,260.350722 168.316232,274.116759 168.316232,283.781743 C168.316232,293.446726 186.896415,301.281743 209.816232,301.281743 Z" id="椭圆形" fill="url(#linearGradient-26)" transform="translate(209.816232, 280.816232) rotate(-225.000000) translate(-209.816232, -280.816232) "></path>
                            <path d="M243,264 C216.490332,264 195,285.490332 195,312" id="路径" stroke="#D6F6FF" stroke-width="3" stroke-dasharray="4" transform="translate(219.000000, 288.000000) rotate(-180.000000) translate(-219.000000, -288.000000) "></path>
                            <ellipse id="椭圆形" fill="url(#linearGradient-27)" transform="translate(125.000000, 111.500000) rotate(-180.000000) translate(-125.000000, -111.500000) " cx="125" cy="111.5" rx="105" ry="44.5"></ellipse>
                            <path d="M119,0 C92.490332,0 71,21.490332 71,48" id="路径" stroke="#0CC4F6" stroke-width="3" stroke-dasharray="4"></path>
                        </g>
                        <g id="编组-21" transform="translate(20.000000, 17.000000)">
                            <rect id="矩形备份-26" x="69" y="0" width="72" height="72"></rect>
                            <text id="技能报告，动态更新" font-family="PingFangSC-Medium, PingFang SC" font-size="20" font-weight="400" fill="#FFFFFF">
                                <tspan x="15" y="118">技能报告，动态更新</tspan>
                            </text>
                            <text id="根据考试情况，动态更新考生工程实践能力，" font-family="PingFangSC-Regular, PingFang SC" font-size="16" font-weight="normal" line-spacing="24" fill="#FFFFFF">
                                <tspan x="0" y="167">根据考试情况，动态更新考生</tspan>
                                <tspan x="0" y="191">工程实践能力，准确记录考生</tspan>
                                <tspan x="0" y="215">真实水平，形成考生技术档</tspan>
                                <tspan x="0" y="239">案。</tspan>
                            </text>
                            <path d="M114.5,67 L101,67 L78,67 C75.790861,67 74,65.209139 74,63 L74,9 C74,6.790861 75.790861,5 78,5 L124,5 C126.209139,5 128,6.790861 128,9 L128,36 L128,63 C128,65.209139 126.209139,67 124,67 L114.5,67 L114.5,67 Z" id="路径" stroke="#0CC4F6" stroke-width="5.83296" fill="url(#linearGradient-28)" stroke-linecap="round"></path>
                            <rect id="矩形" fill="url(#linearGradient-29)" x="84" y="16" width="20" height="6" rx="3"></rect>
                            <rect id="矩形备份-2" fill="url(#linearGradient-30)" x="84" y="27" width="24" height="6" rx="3"></rect>
                            <rect id="矩形备份-18" fill="url(#linearGradient-31)" x="84" y="38" width="26" height="6" rx="3"></rect>
                            <rect id="矩形备份-21" fill="url(#linearGradient-32)" x="84" y="52" width="6" height="6" rx="3"></rect>
                            <rect id="矩形备份-27" fill="url(#linearGradient-32)" x="94" y="52" width="6" height="6" rx="3"></rect>
                            <rect id="矩形备份-28" fill="url(#linearGradient-32)" x="104" y="52" width="6" height="6" rx="3"></rect>
                            <g id="更新" transform="translate(118.000000, 42.000000)" fill="url(#linearGradient-33)">
                                <path d="M15.4014347,6.27169126 L15.4014346,6.27169109 C11.0259208,2.16018648 4.15875353,2.33670869 0,6.66759323 L0,6.66759435 C2.37438453,1.0963926 8.81290399,-1.49403919 14.380838,0.881738843 C15.736095,1.4600086 16.9609047,2.30575129 17.9820805,3.36840986 L19.9945008,1.10296627 L19.9945008,11.0005197 L11.201843,11.0005197 L15.4014347,6.27169126 Z M4.75682096,15.7293463 L4.7568208,15.7293461 C9.0623425,19.8321073 15.8766507,19.6657034 19.9770269,15.357657 C19.9846971,15.3495983 19.9923548,15.3415277 20,15.3334453 L20,15.3334454 C18.3061746,19.3633377 14.3675487,21.9886142 9.99834713,22 L9.99834769,22 C7.04603473,21.9964819 4.22475294,20.7798356 2.19485394,18.6348426 L0.21101016,20.8980735 L0.21101016,11.00052 L8.91353708,11.00052 L4.75682096,15.7293463 Z" id="形状"></path>
                            </g>
                        </g>
                    </g>
                </g>
            </g>
        </g>
    </g>
</svg>