<?xml version="1.0" encoding="UTF-8"?>
<svg width="411px" height="80px" viewBox="0 0 411 80" version="1.1" xmlns="http://www.w3.org/2000/svg" xmlns:xlink="http://www.w3.org/1999/xlink">
    <title>考试特点</title>
    <defs>
        <linearGradient x1="50%" y1="19.3964624%" x2="50%" y2="100%" id="linearGradient-1">
            <stop stop-color="#0264FA" stop-opacity="0.06" offset="0%"></stop>
            <stop stop-color="#FFFFFF" stop-opacity="0.0567362325" offset="100%"></stop>
        </linearGradient>
    </defs>
    <g id="蓝桥工程实践能力考试证书" stroke="none" stroke-width="1" fill="none" fill-rule="evenodd">
        <g id="证书专题备份-8" transform="translate(-755.000000, -751.000000)">
            <g id="考试特点" transform="translate(344.000000, 740.000000)">
                <g transform="translate(20.000000, 11.000000)">
                    <g transform="translate(391.000000, 0.000000)">
                        <g transform="translate(0.640625, 0.675781)">
                            <path d="M13.2285156,37.6289062 C16.4446615,37.6289062 19.2291667,36.7148438 21.5820313,34.8867188 C23.8671875,33.0416667 25.4160156,30.4010417 26.2285156,26.9648438 L20.2871094,26.9648438 C18.7298177,30.3333333 16.3769531,32.0175781 13.2285156,32.0175781 C11.9082031,32.0175781 10.7740885,31.7382812 9.82617188,31.1796875 C8.86132813,30.7057292 8.08268229,30.0878906 7.49023438,29.3261719 C6.76236979,28.530599 6.27994792,27.4895833 6.04296875,26.203125 C5.78296875,24.968125 5.64776875,22.648925 5.63736875,19.245525 L5.63671875,18.8144531 C5.63671875,15.1751302 5.77213542,12.6953125 6.04296875,11.375 C6.27994792,10.1223958 6.76236979,9.09830729 7.49023438,8.30273438 C8.08268229,7.54101562 8.86132813,6.90625 9.82617188,6.3984375 C10.7740885,5.90755208 11.9082031,5.64518229 13.2285156,5.61132812 C15.0227865,5.64518229 16.546224,6.16145833 17.7988281,7.16015625 C19.000651,8.20963542 19.8300781,9.47916667 20.2871094,10.96875 L26.2285156,10.96875 C25.6360677,7.87109375 24.2141927,5.27278646 21.9628906,3.17382812 C19.7115885,1.09179688 16.8001302,0.0338541667 13.2285156,0 C10.3170573,0.0338541667 7.88802083,0.727864583 5.94140625,2.08203125 C3.9609375,3.41927083 2.52213542,4.94270833 1.625,6.65234375 C1.06640625,7.54947917 0.651692708,8.72591146 0.380859375,10.1816406 C0.126953125,11.6373698 1.13686838e-13,14.514974 1.13686838e-13,18.8144531 C1.13686838e-13,23.046224 0.126953125,25.906901 0.380859375,27.3964844 C0.516276042,28.1920573 0.685546875,28.8522135 0.888671875,29.3769531 C1.10872396,29.8847656 1.35416667,30.4179688 1.625,30.9765625 C2.52213542,32.6861979 3.9609375,34.1927083 5.94140625,35.4960938 C7.88802083,36.8502604 10.3170573,37.5611979 13.2285156,37.6289062 Z M37.9674479,37.3242188 L37.9674479,21.1503906 L52.6178385,21.1503906 L52.6178385,37.3242188 L58.2291667,37.3242188 L58.2291667,0.3046875 L52.6178385,0.3046875 L52.6178385,16.1738281 L37.9674479,16.1738281 L37.9674479,0.3046875 L32.3561198,0.3046875 L32.3561198,37.3242188 L37.9674479,37.3242188 Z M70.2981771,37.3242188 L73.1419271,29.046875 L87.1829427,29.046875 L90.0520833,37.3242188 L95.968099,37.3242188 L82.5110677,0.3046875 L77.8138021,0.3046875 L64.3567708,37.3242188 L70.2981771,37.3242188 Z M85.5833333,24.0703125 L74.7669271,24.0703125 L80.124349,7.89648438 L80.2259115,7.89648438 L85.5833333,24.0703125 Z M107.707031,37.3242188 L107.707031,21.5058594 L114.867188,21.5058594 L122.509766,37.3242188 L129.1875,37.3242188 L120.605469,20.8964844 C125.311198,19.0852865 127.697917,15.6660156 127.765625,10.6386719 C127.664063,7.21940104 126.436849,4.58723958 124.083984,2.7421875 C122.13737,1.1171875 119.623698,0.3046875 116.542969,0.3046875 L102.095703,0.3046875 L102.095703,37.3242188 L107.707031,37.3242188 Z M116.1875,16.5292969 L107.707031,16.5292969 L107.707031,5.30664062 L116.492188,5.30664062 C118.286458,5.30664062 119.657552,5.6875 120.605469,6.44921875 C121.807292,7.3125 122.42513,8.70898438 122.458984,10.6386719 C122.458984,12.2467448 121.942708,13.6009115 120.910156,14.7011719 C119.860677,15.8860677 118.286458,16.4954427 116.1875,16.5292969 Z M138.057292,37.3242188 L140.901042,29.046875 L154.942057,29.046875 L157.811198,37.3242188 L163.727214,37.3242188 L150.270182,0.3046875 L145.572917,0.3046875 L132.115885,37.3242188 L138.057292,37.3242188 Z M153.342448,24.0703125 L142.526042,24.0703125 L147.883464,7.89648438 L147.985026,7.89648438 L153.342448,24.0703125 Z M180.874349,37.6289062 C184.090495,37.6289062 186.875,36.7148438 189.227865,34.8867188 C191.513021,33.0416667 193.061849,30.4010417 193.874349,26.9648438 L187.932943,26.9648438 C186.375651,30.3333333 184.022786,32.0175781 180.874349,32.0175781 C179.554036,32.0175781 178.419922,31.7382812 177.472005,31.1796875 C176.507161,30.7057292 175.728516,30.0878906 175.136068,29.3261719 C174.408203,28.530599 173.925781,27.4895833 173.688802,26.203125 C173.428802,24.968125 173.293602,22.648925 173.283202,19.245525 L173.282552,18.8144531 C173.282552,15.1751302 173.417969,12.6953125 173.688802,11.375 C173.925781,10.1223958 174.408203,9.09830729 175.136068,8.30273438 C175.728516,7.54101562 176.507161,6.90625 177.472005,6.3984375 C178.419922,5.90755208 179.554036,5.64518229 180.874349,5.61132812 C182.66862,5.64518229 184.192057,6.16145833 185.444661,7.16015625 C186.646484,8.20963542 187.475911,9.47916667 187.932943,10.96875 L193.874349,10.96875 C193.281901,7.87109375 191.860026,5.27278646 189.608724,3.17382812 C187.357422,1.09179688 184.445964,0.0338541667 180.874349,0 C177.962891,0.0338541667 175.533854,0.727864583 173.58724,2.08203125 C171.606771,3.41927083 170.167969,4.94270833 169.270833,6.65234375 C168.71224,7.54947917 168.297526,8.72591146 168.026693,10.1816406 C167.781855,11.5853795 167.655063,14.3112444 167.646319,18.3592355 L167.645833,18.8144531 C167.645833,23.046224 167.772786,25.906901 168.026693,27.3964844 C168.162109,28.1920573 168.33138,28.8522135 168.534505,29.3769531 C168.754557,29.8847656 169,30.4179688 169.270833,30.9765625 C170.167969,32.6861979 171.606771,34.1927083 173.58724,35.4960938 C175.533854,36.8502604 177.962891,37.5611979 180.874349,37.6289062 Z M211.910156,37.3242188 L211.910156,5.30664062 L222.041016,5.30664062 L222.041016,0.3046875 L196.142578,0.3046875 L196.142578,5.30664062 L206.273438,5.30664062 L206.273438,37.3242188 L211.910156,37.3242188 Z M251.807292,37.3242188 L251.807292,32.0175781 L233.779948,32.0175781 L233.779948,21.1503906 L249.166667,21.1503906 L249.166667,16.1738281 L233.779948,16.1738281 L233.779948,5.61132812 L251.807292,5.61132812 L251.807292,0.3046875 L228.16862,0.3046875 L228.16862,37.3242188 L251.807292,37.3242188 Z M264.866536,37.3242188 L264.866536,21.5058594 L272.026693,21.5058594 L279.669271,37.3242188 L286.347005,37.3242188 L277.764974,20.8964844 C282.470703,19.0852865 284.857422,15.6660156 284.92513,10.6386719 C284.823568,7.21940104 283.596354,4.58723958 281.24349,2.7421875 C279.296875,1.1171875 276.783203,0.3046875 273.702474,0.3046875 L259.255208,0.3046875 L259.255208,37.3242188 L264.866536,37.3242188 Z M273.347005,16.5292969 L264.866536,16.5292969 L264.866536,5.30664062 L273.651693,5.30664062 C275.445964,5.30664062 276.817057,5.6875 277.764974,6.44921875 C278.966797,7.3125 279.584635,8.70898438 279.61849,10.6386719 C279.61849,12.2467448 279.102214,13.6009115 278.069661,14.7011719 C277.020182,15.8860677 275.445964,16.4954427 273.347005,16.5292969 Z M298.746094,37.3242188 L298.746094,0.3046875 L293.134766,0.3046875 L293.134766,37.3242188 L298.746094,37.3242188 Z M319.625651,37.6289062 C328.10612,37.5273438 332.439453,33.9388021 332.625651,26.8632812 C332.625651,24.2395833 331.804688,21.9375 330.16276,19.9570312 C328.503906,17.9427083 325.939453,16.6985677 322.469401,16.2246094 C320.708984,16.0045573 319.320964,15.8098958 318.305339,15.640625 C316.477214,15.3020833 315.148438,14.6927083 314.31901,13.8125 C313.489583,12.9492187 313.07487,11.984375 313.07487,10.9179688 C313.108724,9.140625 313.726563,7.80338542 314.928385,6.90625 C316.079427,6.04296875 317.518229,5.61132812 319.244792,5.61132812 C322.579427,5.67903646 325.634766,6.62695312 328.410807,8.45507812 L331.533854,3.83398438 C328.13151,1.37955729 324.128255,0.1015625 319.524089,0 C315.698568,0.0338541667 312.744792,1.03255208 310.66276,2.99609375 C308.513021,4.9765625 307.438151,7.58333333 307.438151,10.8164062 C307.438151,13.5078125 308.292969,15.7929688 310.002604,17.671875 C311.661458,19.5 314.082031,20.6764323 317.264323,21.2011719 C319.041667,21.4550781 320.67513,21.6835938 322.164714,21.8867188 C325.414714,22.4453125 327.022786,24.1041667 326.988932,26.8632812 C326.921224,30.2317708 324.483724,31.9498698 319.676432,32.0175781 C315.613932,31.983724 312.110026,30.7565104 309.164714,28.3359375 L305.483073,32.5507812 C309.427083,35.9361979 314.141276,37.6289062 319.625651,37.6289062 Z M352.616536,37.3242188 L352.616536,5.30664062 L362.747396,5.30664062 L362.747396,0.3046875 L336.848958,0.3046875 L336.848958,5.30664062 L346.979818,5.30664062 L346.979818,37.3242188 L352.616536,37.3242188 Z M374.486328,37.3242188 L374.486328,0.3046875 L368.875,0.3046875 L368.875,37.3242188 L374.486328,37.3242188 Z M396.406901,37.6289062 C399.623047,37.6289062 402.407552,36.7148438 404.760417,34.8867188 C407.045573,33.0416667 408.594401,30.4010417 409.406901,26.9648438 L403.465495,26.9648438 C401.908203,30.3333333 399.555339,32.0175781 396.406901,32.0175781 C395.086589,32.0175781 393.952474,31.7382812 393.004557,31.1796875 C392.039714,30.7057292 391.261068,30.0878906 390.66862,29.3261719 C389.940755,28.530599 389.458333,27.4895833 389.221354,26.203125 C388.950521,24.9166667 388.815104,22.453776 388.815104,18.8144531 C388.815104,15.1751302 388.950521,12.6953125 389.221354,11.375 C389.458333,10.1223958 389.940755,9.09830729 390.66862,8.30273438 C391.261068,7.54101562 392.039714,6.90625 393.004557,6.3984375 C393.952474,5.90755208 395.086589,5.64518229 396.406901,5.61132812 C398.201172,5.64518229 399.724609,6.16145833 400.977214,7.16015625 C402.179036,8.20963542 403.008464,9.47916667 403.465495,10.96875 L409.406901,10.96875 C408.814453,7.87109375 407.392578,5.27278646 405.141276,3.17382812 C402.889974,1.09179688 399.978516,0.0338541667 396.406901,0 C393.495443,0.0338541667 391.066406,0.727864583 389.119792,2.08203125 C387.139323,3.41927083 385.700521,4.94270833 384.803385,6.65234375 C384.244792,7.54947917 383.830078,8.72591146 383.559245,10.1816406 C383.314407,11.5853795 383.187615,14.3112444 383.178871,18.3592355 L383.178385,18.8144531 C383.178385,23.046224 383.305339,25.906901 383.559245,27.3964844 C383.694661,28.1920573 383.863932,28.8522135 384.067057,29.3769531 C384.287109,29.8847656 384.532552,30.4179688 384.803385,30.9765625 C385.700521,32.6861979 387.139323,34.1927083 389.119792,35.4960938 C391.066406,36.8502604 393.495443,37.5611979 396.406901,37.6289062 Z" id="CHARACTERISTIC" fill="url(#linearGradient-1)" fill-rule="nonzero"></path>
                            <path d="M151.687375,51.4922188 C154.279375,51.4922188 156.007375,50.9882188 156.871375,50.0522188 C157.735375,49.0442188 158.311375,45.9482188 158.563375,40.6922188 L141.391375,40.6922188 L142.399375,37.7042188 L160.291375,37.7042188 L160.291375,34.6442188 L145.963375,34.6442188 C147.511375,33.7082188 149.023375,32.7002188 150.499375,31.6562188 L162.271375,31.6562188 L162.271375,28.4162188 L154.459375,28.4162188 C156.799375,26.2922188 158.923375,23.9522188 160.795375,21.3962188 L158.275375,19.4882188 C157.123375,21.0002188 155.863375,22.4762188 154.495375,23.9162188 L154.495375,22.1522188 L146.503375,22.1522188 L146.503375,18.7322188 L143.119375,18.7322188 L143.119375,22.1522188 L133.759375,22.1522188 L133.759375,25.2842188 L143.119375,25.2842188 L143.119375,28.4162188 L131.095375,28.4162188 L131.095375,31.6562188 L144.595375,31.6562188 C140.203375,34.2482188 135.235375,36.3722188 129.619375,38.0282188 L130.987375,41.0882188 C133.759375,40.2602188 136.387375,39.2882188 138.907375,38.2082188 L137.359375,43.6802188 L155.179375,43.6802188 C154.963375,45.7682188 154.675375,47.1362188 154.315375,47.7122188 C153.847375,48.2162188 152.731375,48.5042188 150.967375,48.5042188 C149.527375,48.5042188 147.907375,48.3962188 146.071375,48.2522188 L147.187375,51.2402188 C148.483375,51.3842188 149.995375,51.4922188 151.687375,51.4922188 Z M149.383375,28.4162188 L146.503375,28.4162188 L146.503375,25.2842188 L153.091375,25.2842188 C151.939375,26.3642188 150.679375,27.4082188 149.383375,28.4162188 Z M197.677375,24.6722188 L200.053375,23.0162188 C199.189375,21.7922188 198.037375,20.3162188 196.525375,18.6602188 L194.185375,20.1362188 C195.625375,21.7922188 196.813375,23.3042188 197.677375,24.6722188 Z M197.173375,51.7082188 C198.901375,51.7082188 200.377375,49.0802188 201.673375,43.8602188 L198.973375,41.6642188 C198.325375,45.7682188 197.749375,47.8922188 197.173375,47.9642188 C196.201375,47.7842188 195.373375,45.6602188 194.653375,41.5562188 C194.149375,38.2442188 193.789375,33.8162188 193.645375,28.3082188 L200.449375,28.3082188 L200.449375,24.9962188 L193.573375,24.9962188 C193.501375,23.0162188 193.501375,20.9282188 193.501375,18.6962188 L190.189375,18.6962188 C190.189375,20.8562188 190.189375,22.9802188 190.261375,24.9962188 L179.209375,24.9962188 L179.209375,28.3082188 L190.333375,28.3082188 C190.477375,32.9162188 190.765375,36.7682188 191.197375,39.9362188 C191.701375,43.6082188 192.529375,46.5962188 193.681375,48.8642188 C194.689375,50.7362188 195.877375,51.7082188 197.173375,51.7082188 Z M176.113375,26.7962188 L178.453375,24.4202188 C176.941375,22.6202188 175.069375,20.8562188 172.837375,19.0922188 L170.461375,21.4322188 C172.837375,23.3042188 174.745375,25.1042188 176.113375,26.7962188 Z M173.161375,50.9522188 C175.429375,49.2962188 177.553375,47.3882188 179.569375,45.2282188 L178.669375,41.6282188 C177.769375,42.6362188 176.905375,43.5362188 176.077375,44.3642188 L176.077375,29.5322188 L167.977375,29.5322188 L167.977375,32.8082188 L172.765375,32.8082188 L172.765375,46.1282188 C172.765375,46.8122188 172.441375,47.3882188 171.865375,47.8922188 L173.161375,50.9522188 Z M180.721375,49.5842188 C184.285375,48.9722188 187.633375,48.2162188 190.765375,47.3522188 L190.765375,44.1482188 C189.361375,44.5442188 187.921375,44.9042188 186.481375,45.2282188 L186.481375,36.3722188 L189.577375,36.3722188 L189.577375,33.1682188 L180.037375,33.1682188 L180.037375,36.3722188 L183.133375,36.3722188 L183.133375,45.8402188 C182.053375,46.0202188 180.973375,46.1642188 179.893375,46.3082188 L180.721375,49.5842188 Z M239.311375,32.1602188 L239.311375,28.9202188 L231.391375,28.9202188 L231.391375,25.5002188 L237.727375,25.5002188 L237.727375,22.3682188 L231.391375,22.3682188 L231.391375,18.7682188 L227.935375,18.7682188 L227.935375,22.3682188 L221.959375,22.3682188 L221.959375,25.5002188 L227.935375,25.5002188 L227.935375,28.9202188 L219.979375,28.9202188 L219.979375,32.1602188 L239.311375,32.1602188 Z M216.199375,52.0322188 L216.199375,40.2242188 C217.207375,39.8642188 218.215375,39.4322188 219.223375,39.0002188 L219.223375,35.7602188 C218.251375,36.1922188 217.243375,36.5882188 216.199375,37.0202188 L216.199375,29.3522188 L219.079375,29.3522188 L219.079375,26.0402188 L216.199375,26.0402188 L216.199375,18.8402188 L212.923375,18.8402188 L212.923375,26.0402188 L210.763375,26.0402188 C210.907375,24.6722188 210.979375,23.3042188 211.051375,21.9002188 L207.955375,21.6842188 C207.811375,25.8602188 207.199375,29.8202188 206.119375,33.5642188 L209.107375,34.4282188 C209.575375,32.7722188 209.971375,31.0802188 210.295375,29.3522188 L212.923375,29.3522188 L212.923375,38.2082188 C210.727375,38.8562188 208.495375,39.3962188 206.263375,39.8282188 L207.091375,43.1402188 C209.071375,42.6362188 211.015375,42.0602188 212.923375,41.4122188 L212.923375,52.0322188 L216.199375,52.0322188 Z M231.895375,51.7802188 C234.055375,51.7802188 235.171375,50.5922188 235.171375,48.2162188 L235.171375,38.8562188 L238.987375,38.8562188 L238.987375,35.6162188 L235.171375,35.6162188 L235.171375,33.5642188 L231.859375,33.5642188 L231.859375,35.6162188 L220.771375,35.6162188 L220.771375,38.8562188 L231.859375,38.8562188 L231.859375,47.3522188 C231.859375,48.2882188 231.463375,48.7922188 230.707375,48.7922188 C229.411375,48.7922188 228.043375,48.6842188 226.603375,48.5402188 L227.323375,51.7802188 L231.895375,51.7802188 Z M225.343375,47.2082188 L228.043375,45.3002188 C227.035375,43.7882188 225.631375,41.9882188 223.831375,39.9362188 L221.167375,41.6282188 C222.895375,43.6442188 224.299375,45.5162188 225.343375,47.2082188 Z M273.673375,41.4122188 L273.673375,29.2082188 L262.225375,29.2082188 L262.225375,25.3922188 L275.941375,25.3922188 L275.941375,22.1882188 L262.225375,22.1882188 L262.225375,19.0202188 L258.841375,19.0202188 L258.841375,29.2082188 L249.121375,29.2082188 L249.121375,41.4122188 L273.673375,41.4122188 Z M270.253375,38.2442188 L252.505375,38.2442188 L252.505375,32.4122188 L270.253375,32.4122188 L270.253375,38.2442188 Z M274.681375,52.1762188 L277.525375,50.1962188 C276.301375,48.0002188 274.573375,45.4442188 272.305375,42.4922188 L269.569375,44.2562188 C271.729375,47.1362188 273.421375,49.8002188 274.681375,52.1762188 Z M247.321375,51.9962188 C249.049375,49.7642188 250.597375,47.1002188 251.893375,44.0042188 L249.049375,42.6002188 C247.753375,45.4442188 246.241375,47.8922188 244.513375,49.9442188 L247.321375,51.9962188 Z M264.457375,51.9962188 L267.841375,51.2042188 C267.049375,48.3602188 266.149375,45.7322188 265.105375,43.2842188 L261.901375,43.9322188 C262.909375,46.2722188 263.773375,48.9722188 264.457375,51.9962188 Z M256.105375,52.0682188 L259.561375,51.2762188 C258.985375,48.5762188 258.337375,46.0562188 257.617375,43.7522188 L254.413375,44.4362188 C255.097375,46.6322188 255.673375,49.1882188 256.105375,52.0682188 Z" fill="#293444" fill-rule="nonzero"></path>
                            <path d="M187.320536,70.716451 L195.359375,72.3242188 C201.960676,73.6444789 208.758074,73.6444789 215.359375,72.3242188 L223.398214,70.716451 C224.286159,70.5388619 225.149946,71.1147196 225.327535,72.0026652 C225.34871,72.1085399 225.359375,72.2162473 225.359375,72.3242188 L225.359375,72.6846109 C225.359375,73.637973 224.686456,74.4588026 223.751607,74.6457723 L215.359375,76.3242188 C208.758074,77.6444789 201.960676,77.6444789 195.359375,76.3242188 L186.967143,74.6457723 C186.032294,74.4588026 185.359375,73.637973 185.359375,72.6846109 L185.359375,72.3242188 C185.359375,71.4186884 186.093452,70.6846109 186.998983,70.6846109 C187.106954,70.6846109 187.214662,70.6952761 187.320536,70.716451 Z" id="矩形" fill="#0264FA"></path>
                        </g>
                    </g>
                </g>
            </g>
        </g>
    </g>
</svg>