<?xml version="1.0" standalone="no"?><!DOCTYPE svg PUBLIC "-//W3C//DTD SVG 1.1//EN" "http://www.w3.org/Graphics/SVG/1.1/DTD/svg11.dtd"><svg t="1699765881117" class="icon" viewBox="0 0 1638 1024" version="1.1" xmlns="http://www.w3.org/2000/svg" p-id="24401" xmlns:xlink="http://www.w3.org/1999/xlink" width="17.595703125" height="11"><path d="M1365.327872 341.331968a204.799181 204.799181 0 0 1 51.199795 159.060697l-38.22918 341.331968a204.799181 204.799181 0 0 1-204.799181 182.271271H1023.995904a178.175287 178.175287 0 0 1-116.052869-56.661107 68.266394 68.266394 0 0 0-47.103812-19.11459h-83.967664a68.266394 68.266394 0 0 0-47.103811 19.11459A178.175287 178.175287 0 0 1 614.397542 1023.995904H463.528813a204.799181 204.799181 0 0 1-204.799181-182.271271l-38.229181-341.331968a204.799181 204.799181 0 0 1 204.799181-227.327091h787.794182A204.799181 204.799181 0 0 1 1365.327872 341.331968zM682.663936 136.532787h273.065574a68.266394 68.266394 0 0 0 0-136.532787h-273.065574a68.266394 68.266394 0 0 0 0 136.532787z m887.463117 341.331968a68.266394 68.266394 0 0 0-68.266394 68.266394v273.065574a68.266394 68.266394 0 0 0 136.532787 0V546.131149a68.266394 68.266394 0 0 0-68.266393-68.266394zM68.266394 477.864755a68.266394 68.266394 0 0 0-68.266394 68.266394v273.065574a68.266394 68.266394 0 0 0 136.532787 0V546.131149a68.266394 68.266394 0 0 0-68.266393-68.266394z" fill="#5b08c3" p-id="24402"></path></svg>