<?xml version="1.0" standalone="no"?><!DOCTYPE svg PUBLIC "-//W3C//DTD SVG 1.1//EN" "http://www.w3.org/Graphics/SVG/1.1/DTD/svg11.dtd"><svg t="1706873318359" class="icon" viewBox="0 0 1108 1024" version="1.1" xmlns="http://www.w3.org/2000/svg" p-id="6108" xmlns:xlink="http://www.w3.org/1999/xlink" width="216.40625" height="200"><path d="M235.794135 168.105279l11.776 58.223697c2.279718 11.266775 13.260661 18.552715 24.526049 16.274384a20.813008 20.813008 0 0 0 8.687349-4.00026l12.529431-9.787664c9.057821-7.076423 10.664585-20.156705 3.588163-29.214525a20.813008 20.813008 0 0 0-7.462157-5.983047l-53.644835-25.512585zM885.645626 168.105279l-11.777388 58.223697c-2.278331 11.266775-13.259274 18.552715-24.526049 16.274384a20.813008 20.813008 0 0 1-8.687349-4.00026l-12.529431-9.787664c-9.057821-7.076423-10.663198-20.156705-3.586775-29.214525a20.813008 20.813008 0 0 1 7.462157-5.983047l53.644835-25.512585z" fill="#5b08c3" p-id="6109"></path><path d="M957.415815 380.952976v554.283707c0 25.502873-24.095913 47.137301-54.870027 47.137301h-681.154255C190.61742 982.373984 166.521506 960.739556 166.521506 935.236683V378.796748H124.89549v556.439935C124.89549 984.78968 168.568119 1024 221.391533 1024h681.154255c52.823415 0 96.496043-39.211707 96.496044-88.763317V380.952976h-41.626017z" fill="#5b08c3" p-id="6110"></path><path d="M960.339349 89.015848c-32.826276-27.292791-93.80284-5.552911-191.246569 58.984065l-100.118894-100.118894c-63.365897-63.365897-166.10168-63.365897-229.468965 0l-96.491881 96.493268c-72.921843-51.577409-123.78606-72.072672-157.840303-58.734309-41.227794 16.150894-42.264282 87.883621-14.967328 225.074645L5.814558 481.57832c-7.969995 8.283577-7.714688 21.458211 0.568889 29.428206s21.458211 7.714688 29.428206-0.568889l179.535783-186.603881-2.192304-10.717312c-24.098688-117.832152-24.098688-184.290862-12.8-188.717094 17.321973-6.785041 63.618428 13.436878 132.544174 63.994449l14.399826 10.561908 121.640933-121.639544c47.10955-47.110938 123.490515-47.110938 170.600065 0l124.399349 124.397962 14.241648-9.680824C866.38388 132.072412 921.423187 110.79458 933.726449 121.02348c13.685247 11.380553 8.354341 83.536477-23.564487 205.252336l-2.952672 11.25845 165.420401 172.863132c7.947794 8.305778 21.122428 8.595772 29.426818 0.647979 8.30439-7.947794 8.594385-21.122428 0.647978-29.426819l-149.349983-156.06981c34.463566-134.417344 39.117355-209.815935 6.984845-236.5329zM374.651588 1000.76852V670.178862c0-33.966829 31.635772-62.439024 71.689712-62.439025h231.254721C717.649962 607.739837 749.285734 636.212033 749.285734 670.178862v336.962601h41.626016V670.178862c0-57.990591-51.193062-104.065041-113.315729-104.065041H446.3413C384.218634 566.113821 333.025571 612.188271 333.025571 670.178862v330.589658h41.626017z" fill="#5b08c3" p-id="6111"></path></svg>