<?xml version="1.0" standalone="no"?><!DOCTYPE svg PUBLIC "-//W3C//DTD SVG 1.1//EN" "http://www.w3.org/Graphics/SVG/1.1/DTD/svg11.dtd"><svg t="1708785964409" class="icon" viewBox="0 0 1024 1024" version="1.1" xmlns="http://www.w3.org/2000/svg" p-id="13404" width="28" height="28" xmlns:xlink="http://www.w3.org/1999/xlink"><path d="M734.30923493 434.23104483c0-114.68957071-98.19312569-213.66824091-213.66823942-213.66824089C405.9514248 220.56280394 307.75829911 324.25474414 307.75829911 439.72985937c0 114.68957071 98.19312569 208.16942493 213.66824091 208.1694264 113.90402474 0 212.88269492-98.9786702 212.88269491-213.66824094z m-213.66823942 145.32582579c-80.12559015 0-145.32582578-65.20023563-145.32582578-145.32582579s65.20023563-145.32582578 145.32582578-145.32582577 145.32582578 65.20023563 145.32582431 145.32582577-65.20023563 145.32582578-145.32582431 145.32582579z" fill="#F8A124" p-id="13405"></path><path d="M520.64099551 330.53910464c-57.34478462 0-103.69194019 46.34715557-103.69194019 103.69194019 0 57.34478462 46.34715557 103.69194019 103.69194019 103.69194023 57.34478462 0 103.69194019-46.34715557 103.69194021-103.69194023 0.78554451-57.34478462-46.34715557-103.69194019-103.69194021-103.69194019zM311.6860246 582.69905013l-65.98578012 113.90402475s54.2026051 12.56871953 96.62203518 24.35189603c29.85071054 29.06516457 62.05805462 65.20023563 62.05805463 65.20023415l60.48696561-105.26302922c-58.1303306-14.13981003-118.61729474-52.63151461-153.1812753-98.19312571z" fill="#F8A124" p-id="13406"></path><path d="M514.35663501 10.82228851c-276.51184005 0-500.3921655 223.88032544-500.3921655 500.39216698s223.88032544 500.3921655 500.3921655 500.3921655S1014.7488005 787.72629555 1014.7488005 511.21445549s-223.88032544-500.3921655-500.39216549-500.39216698z m206.5983359 740.76893746c-44.7760651 49.48933509-88.76658566 98.9786702-88.76658566 98.97867019l-95.05094471-162.60781532c-5.49881452 0-10.99763052 0.78554451-16.49644503 0.7855445-5.49881452 0-10.99763052-0.78554451-16.49644504-0.7855445l-95.05094616 162.60781532s-43.99052059-49.48933509-88.7665842-98.97867019c-66.77132464-13.3542655-132.75710478-26.70852957-132.75710624-26.70853105l103.69194021-176.74762534c-16.49644503-33.77843458-26.70852957-70.69905013-26.70852957-110.76184523 0-139.04146527 114.68957071-252.1599455 255.30212502-252.15994549 141.39810029 0 255.30212501 113.11848021 255.30212648 252.15994549 0 40.06279507-9.42654002 77.76895517-26.70853104 110.76184523l103.6919402 176.74762534c1.5710905 0-64.41468963 12.56871953-131.18601426 26.70853105z" fill="#F8A124" p-id="13407"></path><path d="M576.41468963 680.89217584l60.48696561 105.26302922s37.70616007-41.63388558 67.55687064-70.69905015c42.41943008-11.78317502 91.12322067-18.85308003 91.1232192-18.85308003L724.09715042 582.69905013c-34.56398057 45.56160959-89.55213018 84.05331566-147.68246079 98.19312571z" fill="#F8A124" p-id="13408"></path></svg>