<?xml version="1.0" standalone="no"?><!DOCTYPE svg PUBLIC "-//W3C//DTD SVG 1.1//EN" "http://www.w3.org/Graphics/SVG/1.1/DTD/svg11.dtd"><svg t="1707041995551" class="icon" viewBox="0 0 1024 1024" version="1.1" xmlns="http://www.w3.org/2000/svg" p-id="9572" width="20" height="20" xmlns:xlink="http://www.w3.org/1999/xlink"><path d="M512 106.666667H112a5.333333 5.333333 0 0 0-5.333333 5.333333v800a5.333333 5.333333 0 0 0 5.333333 5.333333h800a5.333333 5.333333 0 0 0 5.333333-5.333333V112a5.333333 5.333333 0 0 0-5.333333-5.333333z m325.333333 736H186.666667a5.333333 5.333333 0 0 1-5.333334-5.333334V186.666667a5.333333 5.333333 0 0 1 5.333334-5.333334h650.666666a5.333333 5.333333 0 0 1 5.333334 5.333334v650.666666a5.333333 5.333333 0 0 1-5.333334 5.333334z" p-id="9573" fill="#bd2530"></path><path d="M261.333333 256m5.333334 0l490.666666 0q5.333333 0 5.333334 5.333333l0 85.333334q0 5.333333-5.333334 5.333333l-490.666666 0q-5.333333 0-5.333334-5.333333l0-85.333334q0-5.333333 5.333334-5.333333Z" p-id="9574" fill="#bd2530"></path><path d="M261.333333 426.666667m5.333334 0l202.666666 0q5.333333 0 5.333334 5.333333l0 330.666667q0 5.333333-5.333334 5.333333l-202.666666 0q-5.333333 0-5.333334-5.333333l0-330.666667q0-5.333333 5.333334-5.333333Z" p-id="9575" fill="#bd2530"></path><path d="M549.333333 634.666667m5.333334 0l202.666666 0q5.333333 0 5.333334 5.333333l0 122.666667q0 5.333333-5.333334 5.333333l-202.666666 0q-5.333333 0-5.333334-5.333333l0-122.666667q0-5.333333 5.333334-5.333333Z" p-id="9576" fill="#bd2530"></path><path d="M549.333333 426.666667m5.333334 0l202.666666 0q5.333333 0 5.333334 5.333333l0 122.666667q0 5.333333-5.333334 5.333333l-202.666666 0q-5.333333 0-5.333334-5.333333l0-122.666667q0-5.333333 5.333334-5.333333Z" p-id="9577" fill="#bd2530"></path></svg>