<?xml version="1.0" standalone="no"?><!DOCTYPE svg PUBLIC "-//W3C//DTD SVG 1.1//EN" "http://www.w3.org/Graphics/SVG/1.1/DTD/svg11.dtd"><svg t="1708865745390" class="icon" viewBox="0 0 1024 1024" version="1.1" xmlns="http://www.w3.org/2000/svg" p-id="7309" width="28" height="28" xmlns:xlink="http://www.w3.org/1999/xlink"><path d="M629.248 351.232H392.704c-15.872 0-28.16-12.8-28.16-28.16V86.528c0-15.872 12.8-28.16 28.16-28.16h236.544c15.872 0 28.16 12.8 28.16 28.16V322.56c0 15.872-12.8 28.672-28.16 28.672zM420.864 294.4h179.712V114.688H420.864v179.712zM629.248 966.144H392.704c-15.872 0-28.16-12.8-28.16-28.16V701.44c0-15.872 12.8-28.16 28.16-28.16h236.544c15.872 0 28.16 12.8 28.16 28.16v236.544c0 15.36-12.8 28.16-28.16 28.16z m-208.384-56.832h179.712v-179.712H420.864v179.712zM264.704 966.144H28.16c-15.872 0-28.16-12.8-28.16-28.16V701.44c0-15.872 12.8-28.16 28.16-28.16h236.544c15.872 0 28.16 12.8 28.16 28.16v236.544c0.512 15.36-12.288 28.16-28.16 28.16z m-207.872-56.832h179.712v-179.712H56.832v179.712zM995.84 966.144h-236.544c-15.872 0-28.16-12.8-28.16-28.16V701.44c0-15.872 12.8-28.16 28.16-28.16h236.544c15.872 0 28.16 12.8 28.16 28.16v236.544c0 15.36-12.8 28.16-28.16 28.16z m-208.384-56.832h179.712v-179.712h-179.712v179.712z" fill="#DA4D1D" p-id="7310"></path><path d="M877.568 729.6c-15.872 0-28.16-12.8-28.16-28.16v-160.768H175.104V701.44c0 15.872-12.8 28.16-28.16 28.16s-28.16-12.8-28.16-28.16v-189.44c0-15.872 12.8-28.16 28.16-28.16h730.624c15.872 0 28.16 12.8 28.16 28.16v189.44c0 15.36-12.8 28.16-28.16 28.16z" fill="#DA4D1D" p-id="7311"></path><path d="M510.976 729.6c-15.872 0-28.16-12.8-28.16-28.16V322.56c0-15.872 12.8-28.16 28.16-28.16 15.872 0 28.16 12.8 28.16 28.16v378.88c0 15.36-12.8 28.16-28.16 28.16z" fill="#DA4D1D" p-id="7312"></path></svg>