<?xml version="1.0" standalone="no"?><!DOCTYPE svg PUBLIC "-//W3C//DTD SVG 1.1//EN" "http://www.w3.org/Graphics/SVG/1.1/DTD/svg11.dtd"><svg t="1708786018101" class="icon" viewBox="0 0 1121 1024" version="1.1" xmlns="http://www.w3.org/2000/svg" p-id="15428" width="30.65234375" height="28" xmlns:xlink="http://www.w3.org/1999/xlink"><path d="M481.718857 487.326476a219.428571 219.428571 0 0 0 138.776381-203.727238A219.477333 219.477333 0 0 0 401.212952 64.365714a219.428571 219.428571 0 0 0-219.233523 219.233524 219.428571 219.428571 0 0 0 138.776381 203.727238c-180.419048 37.302857-316.513524 197.485714-316.513524 388.778667 0 46.567619 32.670476 61.927619 58.855619 74.361905l1.462857 0.585142c105.813333 37.351619 258.730667 47.299048 332.409905 47.299048 80.408381 0 237.714286-13.06819 342.211047-49.152 39.15581-15.018667 59.001905-39.594667 59.001905-73.094095 0-191.341714-136.045714-351.47581-316.464762-388.778667z" fill="#4371E4" p-id="15429"></path><path d="M771.267048 423.009524a219.428571 219.428571 0 0 0 138.825142-203.776A219.477333 219.477333 0 0 0 690.809905 0a219.721143 219.721143 0 0 0-139.068953 49.785905l-5.851428 4.778666a265.020952 265.020952 0 0 1 33.158095 414.329905 440.271238 440.271238 0 0 1 256.146286 455.631238l1.121524-0.146285c53.638095-6.241524 130.438095-18.090667 192.463238-39.497143 39.204571-15.067429 59.050667-39.643429 59.050666-73.142857 0-191.341714-136.045714-351.47581-316.562285-388.729905z" fill="#4371E4" p-id="15430"></path></svg>