<?xml version="1.0" standalone="no"?><!DOCTYPE svg PUBLIC "-//W3C//DTD SVG 1.1//EN" "http://www.w3.org/Graphics/SVG/1.1/DTD/svg11.dtd"><svg t="1707037340455" class="icon" viewBox="0 0 1024 1024" version="1.1" xmlns="http://www.w3.org/2000/svg" p-id="5847" width="32" height="32" xmlns:xlink="http://www.w3.org/1999/xlink"><path d="M516.39 404.439l63.659 63.659L338.585 468.098c-24.146 0-43.902 19.756-43.902 43.902s19.756 43.902 43.902 43.902L580.05 555.902l-63.659 63.65900001c-17.56 17.561-17.56 43.902 0 61.46299999 17.561 17.561 43.903 17.561 61.464 0l138.292-138.292s0-2.19499999 2.195-2.195l4.39-4.39c0-2.196 2.196-2.196 2.196-4.39 0-2.196 2.195-2.196 2.195-4.391s0-2.19499999 2.19499999-4.39l1e-8-19.75599999c0-2.196 0-2.196-2.195-4.39000001 0-2.196 0-2.196-2.195-4.391 0-2.19499999-2.195-4.38999999-2.195-4.38999999s0-2.19499999-2.195-2.19500001l-6.58600001-6.586L575.66 342.976c-17.561-17.561-43.903-17.561-61.464 0-13.17 17.56-13.17 43.902 2.195 61.46299999z" p-id="5848" fill="#ffffff"></path><path d="M62.00000001 512C62 760.049 263.951 962 512 961.99999999s450-201.951 449.99999999-449.99999999-201.951-450-449.99999999-449.99999999S62 263.951 62.00000001 512z m812.19499999 0c0 199.756-162.439 362.195-362.195 362.195S149.805 711.756 149.805 512 312.244 149.805 512 149.805 874.195 312.244 874.195 512z" p-id="5849" fill="#ffffff"></path></svg>