<svg t="1707376758802" class="icon" viewBox="0 0 1024 1024" version="1.1" xmlns="http://www.w3.org/2000/svg" p-id="2588" width="200" height="200"><path d="M752.9 889.5c-79.1 0-143.2-64.1-143.2-143.3 0-76.7 60.3-139.3 136-143.1v146.6l114.4 91.5c-26.2 29.6-64.5 48.3-107.2 48.3z m7.2-286.4c36 1.8 68.5 16.9 92.7 40.4l-92.7 86.1V603.1z m3.8 142.6l98.7-91.7c20.9 24.9 33.6 57.1 33.6 92.2 0 31.3-10 60.3-27.1 83.8l-105.2-84.3z" fill="#5b08c3" p-id="2589"></path><path d="M530.3 807.6H201.8c-13.2 0-23.9-10.7-23.9-23.9V206.3c0-13.2 10.7-23.9 23.9-23.9h584.6c13.2 0 23.9 10.7 23.9 23.9V530c0 13.2 10.7 23.9 23.9 23.9s23.9-10.7 23.9-23.9V206.4c0-39.5-32.1-71.6-71.6-71.6H201.8c-39.5 0-71.6 32.1-71.6 71.6v577.4c0 39.5 32.1 71.6 71.6 71.6h328.5c13.2 0 23.9-10.7 23.9-23.9s-10.7-23.9-23.9-23.9z" fill="#5b08c3" p-id="2590"></path><path d="M243.3 478.8c2.3 16.3 16.3 17.5 29.1 23.3 1.1 2.3 5.8 3.5 7 3.5 2.3 0 4.7-2.3 3.5-4.7 0-3.5-2.3-7-2.3-11.6-2.3-20.9 18.7-69.8 28-89.6 40.8-90.8 40.8-89.7 39.6-99 0-4.7-9.3-20.9-17.5-20.9-9.3 1-43.1 26.7-52.4 33.7-7 5.8-12.8 9.3-12.8 18.7 0 2.3 0 7 3.5 7 5-1.9 9.1-4.9 12.3-8.8l24.9-11h1.1c-8.1 12.8-30.3 50.1-48.9 90.8-6.9 15-17.4 52.2-15.1 68.6z m298.6-200.3c-1.1-7-18.6-20.9-31.4-19.8-20.9 2.3-67.6 32.6-92 66.4-20.9 29.1-39.6 71-36.1 107.1 4.7 28 24.4 54.7 54.7 48.9 75.7-12.8 122.3-103.6 115.2-164.1-1.1-12.8-4.6-29.1-19.7-31.4 2.3-2.5 9.3-3.6 9.3-7.1z m-42.4 119.9l-28 32.6c-7 7-25.6 22.1-34.9 23.3-9.4 1.1-12.8-17.5-12.8-23.3-2.3-33.8 18.7-82.7 72.2-121.1 0 2.3 1.1 5.8 3.5 5.8 3.5 0 10.5-12.8 18.7-14 9.3-1.1 14 10.5 14 17.5 2.2 21-21.1 61.7-32.7 79.2z m235.8-139.7c-1.1-7-18.6-20.9-31.4-19.8-19.8 2.3-66.4 32.6-90.8 67.5-20.9 29.1-39.6 71-36.1 107.1 3.5 26.8 23.3 54.7 52.4 48.9 76.9-13.9 123.4-103.6 116.4-165.3-1.1-12.8-4.7-29.1-19.8-31.4 2.4-2.3 9.3-3.5 9.3-7zM680 378.6l-28 32.6c-7 7-25.6 22.1-34.9 23.3-9.3 1.1-12.8-17.5-12.8-23.3-2.3-33.8 18.7-81.5 72.2-121.1 0 2.3 1.1 5.8 3.5 5.8 3.5 0 10.5-12.8 18.7-13.9 9.3-1.2 14 10.5 14 17.4 2.2 21-21.1 61.7-32.7 79.2z" fill="#5b08c3" p-id="2591"></path><path d="M315.7 615.8C507.8 547.1 729 529.6 729 529.6c-26.8 1.1-73.3 4.7-73.3 4.7 12.8-1.1 36.1-4.7 36.1-4.7-265.4 16.4-408.7 86.2-408.7 86.2s-9.3 5.8 0 10.5c4.6 2.3 32.6-10.5 32.6-10.5z" fill="#5b08c3" p-id="2592"></path><path d="M726.5 529.5m-22.7 0a22.7 22.7 0 1 0 45.4 0 22.7 22.7 0 1 0-45.4 0Z" fill="#5b08c3" p-id="2593"></path></svg>