<?xml version="1.0" standalone="no"?><!DOCTYPE svg PUBLIC "-//W3C//DTD SVG 1.1//EN" "http://www.w3.org/Graphics/SVG/1.1/DTD/svg11.dtd"><svg t="1707042949830" class="icon" viewBox="0 0 1024 1024" version="1.1" xmlns="http://www.w3.org/2000/svg" p-id="9673" width="20" height="20" xmlns:xlink="http://www.w3.org/1999/xlink"><path d="M512.361432 302.775177l27.713504 68.376086c21.020366 51.923273 68.35356 87.139808 123.208216 91.880397l81.673285 7.324876-65.582927 59.378182c-39.612075 35.932232-57.017102 90.931256-45.387812 143.762714l18.083862 81.323116-62.16315-39.205593c-23.32206-14.640536-50.169357-22.380085-77.643271-22.380085-27.4647 0-54.305854 7.733406-77.799927 22.473259l-62.018782 39.085798 18.156559-81.612875c11.579119-52.627706-5.841266-107.644136-45.521942-143.617323l-65.427296-59.244053 81.46134-7.257299c55.176156-4.772329 102.51959-39.988865 123.529717-91.884493l27.718624-68.402707m-0.034813-205.21324c-16.258275 0-32.506311 9.235446-39.966339 27.715552L388.465164 332.314269c-6.272321 15.499576-20.237093 26.134673-36.298783 27.523061l-215.118306 19.174301c-38.294335 3.48121-53.779577 53.352617-24.702258 79.673636l163.043499 147.633001c12.163758 11.028269 17.486937 28.217256 13.875694 44.613756l-48.841377 219.552754c-6.794503 30.45035 16.306398 55.856016 42.382709 55.856016 7.439551 0 15.122786-2.068248 22.423088-6.678804l184.607548-116.332827c6.889724-4.324892 14.661014-6.486314 22.427184-6.486313 7.770266 0 15.53746 2.161422 22.421041 6.486313l184.62393 116.432144c7.294159 4.610556 14.98149 6.676756 22.421041 6.676756 26.078359 0 49.17926-25.398499 42.378614-55.856016l-48.837282-219.552754c-3.61022-16.395476 1.711936-33.580367 13.867502-44.607612l163.058858-147.637097c29.066057-26.323068 13.580815-76.194474-24.708401-79.675684L672.558529 359.83733c-16.05145-1.388389-30.022365-12.022461-36.298782-27.523061L552.358488 125.277489c-7.500984-18.479082-23.769498-27.715552-40.031869-27.715552z" fill="#2b26c3" p-id="9674"></path></svg>
