<?xml version="1.0" standalone="no"?><!DOCTYPE svg PUBLIC "-//W3C//DTD SVG 1.1//EN" "http://www.w3.org/Graphics/SVG/1.1/DTD/svg11.dtd"><svg t="1707042846394" class="icon" viewBox="0 0 1080 1024" version="1.1" xmlns="http://www.w3.org/2000/svg" p-id="5709" width="21.09375" height="20" xmlns:xlink="http://www.w3.org/1999/xlink"><path d="M18.052674 1023.630418l120.597551-366.966805h127.761762c10.888463 20.270168 22.516091 40.398189 34.854454 60.185058H180.924755l-77.498567 246.56826h876.194368l-72.352844-246.56826h-127.960768c12.338363-19.786868 23.965991-39.914889 34.854455-60.213487h136.631737l111.756005 366.995234H18.052674z m609.952959-203.526135c-72.608709 71.499962-102.886029 71.528392-175.494739 0-87.534149-86.226396-163.753393-196.958942-214.755751-308.658088-29.197002-63.90931-44.008724-119.119221-44.008724-164.066116a348.544548 348.544548 0 0 1 101.464558-245.60166 343.882125 343.882125 0 0 1 245.061501-101.748852c91.713272 0 180.21402 36.759225 245.061501 101.748852a348.402401 348.402401 0 0 1 101.521417 245.60166c0 44.946895-14.811722 100.156806-44.008724 164.066116-51.030788 111.699146-127.250032 222.431692-214.841039 308.658088zM540.272478 60.243054c-157.953793 0-286.45472 132.13989-286.454719 287.137025 0 67.548274 47.192818 175.039868 126.198144 287.535037 43.895007 62.48784 98.564759 133.675079 160.256575 180.043444 61.691816-46.396795 116.361569-117.555604 160.285005-180.043444 79.033755-112.495169 126.226574-219.986763 126.226573-287.535037 0-158.437093-131.713449-287.137025-286.511578-287.137025z m0 470.336133c-100.782253 0-182.772667-82.18942-182.772667-183.199108 0-101.038118 81.990414-183.227537 182.772667-183.227537 100.810682 0 182.829526 82.18942 182.829526 183.227537 0 101.009688-82.018843 183.199108-182.829526 183.199108z m89.694784-273.064468a125.828562 125.828562 0 0 0-89.694784-37.242525 125.714844 125.714844 0 0 0-89.637925 37.242525 126.340291 126.340291 0 0 0-37.157237 89.86536c0 33.944714 13.191246 65.870939 37.157237 89.86536a125.800132 125.800132 0 0 0 89.637925 37.214096 125.942279 125.942279 0 0 0 89.694784-37.214096 126.340291 126.340291 0 0 0 37.157237-89.86536 126.340291 126.340291 0 0 0-37.157237-89.86536z" fill="#166818" p-id="5710"></path></svg>