<?xml version="1.0" standalone="no"?><!DOCTYPE svg PUBLIC "-//W3C//DTD SVG 1.1//EN" "http://www.w3.org/Graphics/SVG/1.1/DTD/svg11.dtd"><svg t="1700747793768" class="icon" viewBox="0 0 1024 1024" version="1.1" xmlns="http://www.w3.org/2000/svg" p-id="7123" xmlns:xlink="http://www.w3.org/1999/xlink" width="200" height="200"><path d="M842.37312 242.61632l-135.87968 0 0-0.80384c0-112.95232-76.0576-204.57984-169.856-204.57984-93.79328 0-169.84064 91.62752-169.84064 204.57984l0 0.80384L230.912 242.61632 162.96448 989.95712l747.34592 0L842.37312 242.61632 842.37312 242.61632zM710.84032 344.50432c0 18.7648-15.21664 33.98144-33.9712 33.98144-4.29568 0-8.40704-0.80384-12.19072-2.26304 12.8256-17.72032 23.18848-38.10816 30.35136-60.40576C704.54272 321.82784 710.84032 332.42624 710.84032 344.50432L710.84032 344.50432zM422.76864 370.37568c-12.40576-17.2032-22.30784-37.21728-29.02528-59.1104 2.26304-0.46592 4.608-0.73216 7.01952-0.73216 18.75456 0 33.97632 15.21664 33.97632 33.98144C434.7392 354.87744 430.08 364.16 422.76864 370.37568L422.76864 370.37568zM642.8928 344.50432c0-18.7648 15.22176-33.97632 33.97632-33.97632 3.13344 0 6.15936 0.44032 9.05728 1.21856-6.86592 22.18496-16.99328 42.3936-29.68064 59.76064C648.13568 365.27104 642.8928 355.50208 642.8928 344.50432L642.8928 344.50432zM539.91424 52.83328c85.80608 0 155.45344 84.85376 156.07808 189.78816L383.8208 242.62144C384.45056 137.68704 454.1184 52.83328 539.91424 52.83328L539.91424 52.83328zM379.10016 318.34624c7.28064 21.78048 17.6128 41.7024 30.336 59.02336-2.76992 0.71168-5.6832 1.11104-8.67328 1.11104-18.7392 0-33.96096-15.21664-33.96096-33.98144C366.7968 333.98272 371.57888 324.58752 379.10016 318.34624L379.10016 318.34624zM405.1968 501.59616l262.61504 0c22.64576 0 32.95232 10.30656 30.8992 30.89408l0 284.25216c2.048 22.64064-8.25344 32.95232-30.8992 30.89408L405.1968 847.63648c-20.61312 2.05312-30.89408-8.25344-30.89408-30.89408l0-284.25216C374.30272 511.90272 384.58368 501.59616 405.1968 501.59616L405.1968 501.59616zM661.63712 520.13568 411.37664 520.13568c-12.35968 0-18.53952 6.17984-18.53952 18.5344l0 268.8c0 16.46592 6.17984 23.68 18.53952 21.632l250.25536 0c14.40768 2.048 20.59264-4.13184 18.53952-18.5344l0-271.89248C682.22976 526.31552 676.04992 520.13568 661.63712 520.13568L661.63712 520.13568zM572.04224 538.67008l0 55.61344 86.50752 0c8.23296 6.17472 8.23296 12.35456 0 18.53952l-86.50752 0 0 169.92768c4.10624 35.00032-24.71936 42.2144-86.51264 21.632-4.12672-10.2912-1.03424-16.47104 9.27232-18.5344 43.25376 16.45568 62.81216 15.44704 58.7008-3.09248l0-135.95136c-39.15264 61.7984-80.32768 105.05216-123.58144 129.77152-12.3648 2.0736-16.49152-3.09248-12.3648-15.45216 49.4336-30.89408 93.70624-80.32768 132.85376-148.3008L417.55648 612.82304c-8.25344-6.18496-8.25344-12.3648 0-18.53952l135.94624 0 0-55.61344C559.68256 528.38912 565.8624 528.38912 572.04224 538.67008L572.04224 538.67008z" fill="#5b08c3" p-id="7124"></path></svg>