<?xml version="1.0" standalone="no"?><!DOCTYPE svg PUBLIC "-//W3C//DTD SVG 1.1//EN" "http://www.w3.org/Graphics/SVG/1.1/DTD/svg11.dtd"><svg t="1708785156028" class="icon" viewBox="0 0 1024 1024" version="1.1" xmlns="http://www.w3.org/2000/svg" p-id="7565" id="mx_n_1708785156029" width="28" height="28" xmlns:xlink="http://www.w3.org/1999/xlink"><path d="M512 0c282.7648 0 512 229.2352 512 512S794.7648 1024 512 1024 0 794.7648 0 512 229.2352 0 512 0z m196.0448 396.4544L704 398.72l-96 64.576-78.9632-165.632-2.2272-3.6224a32 32 0 1 0-25.7152 1.7152l-0.7936 1.92-81.1136 165.6192L320 398.72l-4.0448-2.2656a32 32 0 1 0-24.5248 16.2304l0.3072 2.88 53.9008 202.112h326.3104l58.88-202.112 0.4608-3.0464a32 32 0 1 0-23.2448-16.064zM371.2 678.4a38.4 38.4 0 0 0 0 76.8h281.6a38.4 38.4 0 0 0 0-76.8H371.2z" fill="#FE5F5F" p-id="7566"></path></svg>