<?xml version="1.0" standalone="no"?><!DOCTYPE svg PUBLIC "-//W3C//DTD SVG 1.1//EN" "http://www.w3.org/Graphics/SVG/1.1/DTD/svg11.dtd"><svg t="1699765685239" class="icon" viewBox="0 0 1024 1024" version="1.1" xmlns="http://www.w3.org/2000/svg" p-id="18900" xmlns:xlink="http://www.w3.org/1999/xlink" width="11" height="11"><path d="M507.164444 116.053333l342.945186 197.973334v395.946666L507.164444 907.946667 164.124444 709.973333V314.026667l343.04-197.973334m0-59.164444a42.097778 42.097778 0 0 0-20.954074 5.594074L128.18963 269.084444a41.908148 41.908148 0 0 0-20.954074 36.314075v413.202962a41.908148 41.908148 0 0 0 20.954074 36.314075l357.925926 206.601481a42.097778 42.097778 0 0 0 42.002963 0l357.925925-206.601481a41.908148 41.908148 0 0 0 20.954075-36.314075V305.493333a42.287407 42.287407 0 0 0-20.954075-36.408889L528.118519 62.482963A42.097778 42.097778 0 0 0 507.164444 56.888889z" fill="#5b08c3" p-id="18901"></path><path d="M420.314074 711.111111a142.222222 142.222222 0 0 1-142.222222-142.222222V341.333333a28.444444 28.444444 0 0 1 56.888889 0v227.555556a85.333333 85.333333 0 0 0 170.666666 0V341.333333a28.444444 28.444444 0 0 1 56.888889 0v227.555556a142.222222 142.222222 0 0 1-142.222222 142.222222zM679.253333 313.742222a28.444444 28.444444 0 0 0-28.444444 28.444445V682.666667a28.444444 28.444444 0 0 0 28.444444 28.444444 28.444444 28.444444 0 0 0 28.444445-28.444444V342.186667a28.444444 28.444444 0 0 0-28.444445-28.444445z" fill="#5b08c3" p-id="18902"></path></svg>