<?xml version="1.0" standalone="no"?><!DOCTYPE svg PUBLIC "-//W3C//DTD SVG 1.1//EN" "http://www.w3.org/Graphics/SVG/1.1/DTD/svg11.dtd"><svg t="1709653901534" class="icon" viewBox="0 0 1024 1024" version="1.1" xmlns="http://www.w3.org/2000/svg" p-id="12544" width="48" height="48" xmlns:xlink="http://www.w3.org/1999/xlink"><path d="M167.253333 733.866667h677.546667l88.746667 109.226666c30.72 39.253333 17.066667 69.973333-34.133334 69.973334H105.813333c-49.493333 0-63.146667-30.72-32.426666-68.266667L167.253333 733.866667zM435.2 158.72c44.373333 0 58.026667 29.013333 58.026667 49.493333V443.733333c0 20.48-25.6 42.666667-47.786667 42.666667H199.68c-22.186667 0-39.253333-22.186667-39.253333-42.666667V196.266667c0-20.48 17.066667-37.546667 39.253333-37.546667h235.52z" fill="#DAE9FF" p-id="12545"></path><path d="M803.84 523.946667c46.08 0 59.733333 30.72 59.733333 49.493333v235.52c0 18.773333-15.36 35.84-35.84 35.84H592.213333c-18.773333 0-35.84-15.36-35.84-35.84V573.44c0-18.773333 15.36-35.84 35.84-35.84l211.626667-13.653333zM438.613333 523.946667c51.2 5.12 61.44 30.72 61.44 49.493333v235.52c0 18.773333-15.36 35.84-35.84 35.84H228.693333c-18.773333 0-35.84-15.36-35.84-35.84V573.44c0-18.773333 15.36-35.84 35.84-35.84l209.92-13.653333z" fill="#DAE9FF" p-id="12546"></path><path d="M431.786667 158.72c18.773333 0 35.84 15.36 35.84 35.84v235.52c0 18.773333-15.36 35.84-35.84 35.84H194.56c-18.773333 0-35.84-15.36-35.84-35.84V194.56c0-18.773333 15.36-35.84 35.84-35.84h237.226667z m361.813333 361.813333c18.773333 0 35.84 15.36 35.84 35.84v235.52c0 18.773333-15.36 35.84-35.84 35.84H558.08c-18.773333 0-35.84-15.36-35.84-35.84V556.373333c0-18.773333 15.36-35.84 35.84-35.84h235.52z m-361.813333 0c18.773333 0 35.84 15.36 35.84 35.84v235.52c0 18.773333-15.36 35.84-35.84 35.84H194.56c-18.773333 0-35.84-15.36-35.84-35.84V556.373333c0-18.773333 15.36-35.84 35.84-35.84h237.226667z" fill="#3889FF" p-id="12547"></path><path d="M899.413333 223.573333l-194.56-102.4c-17.066667-10.24-71.68-3.413333-80.213333 15.36l-90.453333 223.573334c-8.533333 17.066667-3.413333 39.253333 15.36 49.493333L733.866667 515.413333c42.666667 17.066667 68.266667-1.706667 76.8-18.773333l105.813333-201.386667c10.24-18.773333 10.24-58.026667-17.066667-71.68z" fill="#FFD6C2" p-id="12548"></path><path d="M868.693333 233.813333L658.773333 122.88c-17.066667-8.533333-39.253333-1.706667-47.786666 15.36l-110.933334 209.92c-8.533333 17.066667-1.706667 39.253333 15.36 47.786667l209.92 110.933333c17.066667 8.533333 39.253333 1.706667 47.786667-15.36l110.933333-209.92c8.533333-17.066667 1.706667-37.546667-15.36-47.786667z" fill="#FB560A" p-id="12549"></path></svg>