<?xml version="1.0" standalone="no"?><!DOCTYPE svg PUBLIC "-//W3C//DTD SVG 1.1//EN" "http://www.w3.org/Graphics/SVG/1.1/DTD/svg11.dtd"><svg t="1708785889254" class="icon" viewBox="0 0 1024 1024" version="1.1" xmlns="http://www.w3.org/2000/svg" p-id="12315" width="28" height="28" xmlns:xlink="http://www.w3.org/1999/xlink"><path d="M511.125073 63.123666c-247.182682 0-447.564455 200.38075-447.564455 447.564455 0 247.181659 200.38075 447.564455 447.564455 447.564456 247.181659 0 447.562409-200.381773 447.562409-447.564456 0-247.183705-200.38075-447.564455-447.562409-447.564455z m172.73818 580.954465l0.159635 1.561565-1.47356 11.4641c-2.468215 6.956436-7.547907 12.688997-14.770402 15.283078-12.783141 4.697999-26.736944-2.255367-31.334659-15.620769l-0.479931-2.443656c-2.145873-6.242168-3.123131-20.488637-3.12313-20.488636l-5.077646-58.009182 97.749278-107.161649-142.540413-30.749327-71.510684-128.705314v2.085498L441.744913 438.776302l-139.770324 31.784913 94.819553 104.737437-19.86442 153.178704 134.530996-66.168002 129.244596 59.042721v-0.508583l55.459103 25.883507 4.739954 39.944758c-4.900613 9.207709-13.103436 15.97688-22.780843 18.928094l-166.663834-81.635275-167.658487 81.991386c-9.020444-2.441609-17.061584-8.176217-22.459525-16.164145l23.115464-192.0889-128.604006-143.119604a41.452087 41.452087 0 0 1 10.828626-25.189706l181.579545-36.294624 93.345991-176.468131c6.391571-1.729387 13.279445-1.559519 19.688412 0.184195l93.168959 176.283936 180.939979 36.294624c6.391571 6.768147 10.331299 15.995299 10.988262 25.697265L678.286234 597.703941l5.577019 46.37419z" fill="#9B8AF0" p-id="12316"></path></svg>