<?xml version="1.0" standalone="no"?><!DOCTYPE svg PUBLIC "-//W3C//DTD SVG 1.1//EN" "http://www.w3.org/Graphics/SVG/1.1/DTD/svg11.dtd"><svg t="1707042912048" class="icon" viewBox="0 0 1024 1024" version="1.1" xmlns="http://www.w3.org/2000/svg" p-id="8441" width="20" height="20" xmlns:xlink="http://www.w3.org/1999/xlink"><path d="M506.112 928.576c-69.824 0-282.24 0-282.24-138.976 0-64.736 91.648-107.36 186.464-123.296-68.576-56.32-77.888-152.32-77.888-231.552 0-112.128 66.048-179.104 176.672-179.104h5.536c110.624 0 176.672 66.944 176.672 179.104 0 79.232-9.312 175.264-77.888 231.552 94.784 15.904 186.4 58.528 186.4 123.296 0.032 92.224-98.816 138.976-293.728 138.976z m3.008-608.928c-75.808 0-112.672 37.632-112.672 115.104 0 73.376 7.776 153.376 65.504 190.08a31.988 31.988 0 0 1 14.816 27.008v42.048c0 16.384-12.352 30.08-28.64 31.808-97.888 10.336-160.288 47.744-160.288 63.872 0 49.76 73.44 74.976 218.24 74.976 143.872 0 229.76-28.032 229.76-74.976 0-16.128-62.4-53.536-160.224-63.872-16.32-1.728-28.672-15.424-28.672-31.808V651.84c0-10.944 5.6-21.12 14.816-27.008 57.76-36.704 65.536-116.704 65.536-190.08 0-77.44-36.864-115.104-112.672-115.104z m419.872 445.568c-17.696 0-32-14.304-32-32 0-24.928-45.952-78.272-130.144-87.168-16.288-1.696-28.672-15.424-28.672-31.808v-71.808c0-10.944 5.6-21.12 14.816-27.008 65.92-41.952 79.744-119.648 79.744-177.408 0-106.752-100.32-115.072-131.072-115.072-17.696 0-32-14.336-32-32s14.304-32 32-32c89.984 0 195.072 46.88 195.072 179.072 0 98.272-32.64 174.272-94.56 221.12v27.808c96.128 20.448 158.816 88.512 158.816 146.24 0 17.728-14.304 32.032-32 32.032z m-831.232 0c-17.664 0-32-14.304-32-32 0-57.76 62.688-125.824 158.816-146.24v-27.808c-61.952-46.848-94.56-122.848-94.56-221.12 0-132.16 105.088-179.072 195.072-179.072 17.664 0 32 14.336 32 32s-14.336 32-32 32c-30.752 0-131.072 8.288-131.072 115.072 0 57.76 13.824 135.456 79.744 177.408 9.216 5.888 14.816 16.064 14.816 27.008v71.808c0 16.384-12.352 30.112-28.672 31.808-84.224 8.864-130.144 62.208-130.144 87.168 0 17.664-14.336 31.968-32 31.968z" p-id="8442" fill="#206a74"></path></svg>