<?xml version="1.0" standalone="no"?><!DOCTYPE svg PUBLIC "-//W3C//DTD SVG 1.1//EN" "http://www.w3.org/Graphics/SVG/1.1/DTD/svg11.dtd"><svg t="1699764904326" class="icon" viewBox="0 0 1024 1024" version="1.1" xmlns="http://www.w3.org/2000/svg" p-id="13433" width="11" height="11" xmlns:xlink="http://www.w3.org/1999/xlink"><path d="M835.04 63.89h-640c-52.93 0-96 43.07-96 96v704.4c0 52.93 43.07 96 96 96h640c52.93 0 96-43.07 96-96v-704.4c0-52.93-43.07-96-96-96z m-640 64h640c17.64 0 32 14.35 32 32V320h-704V159.89c0-17.64 14.35-32 32-32z m672 256.12v255.92h-704V384.01h704z m-32 512.28h-640c-17.65 0-32-14.36-32-32V703.92h704v160.37c0 17.65-14.36 32-32 32z" p-id="13434" fill="#5b08c3"></path><path d="M276.08 255.95H362c11.62 0 21.04-9.42 21.04-21.04V213c0-11.62-9.42-21.04-21.04-21.04h-85.91c-11.62 0-21.04 9.42-21.04 21.04v21.91c-0.01 11.62 9.41 21.04 21.03 21.04z m385.68 0h85.91c11.62 0 21.04-9.42 21.04-21.04V213c0-11.62-9.42-21.04-21.04-21.04h-85.91c-11.62 0-21.04 9.42-21.04 21.04v21.91c0 11.62 9.42 21.04 21.04 21.04zM276.08 540.24H362c11.62 0 21.04-9.42 21.04-21.04v-21.91c0-11.62-9.42-21.04-21.04-21.04h-85.91c-11.62 0-21.04 9.42-21.04 21.04v21.91c-0.01 11.62 9.41 21.04 21.03 21.04z m385.68 0h85.91c11.62 0 21.04-9.42 21.04-21.04v-21.91c0-11.62-9.42-21.04-21.04-21.04h-85.91c-11.62 0-21.04 9.42-21.04 21.04v21.91c0 11.62 9.42 21.04 21.04 21.04zM362 767.78h-85.91c-11.62 0-21.04 9.42-21.04 21.04v21.91c0 11.62 9.42 21.04 21.04 21.04H362c11.62 0 21.04-9.42 21.04-21.04v-21.91c0-11.62-9.42-21.04-21.04-21.04z m385.68 0h-85.91c-11.62 0-21.04 9.42-21.04 21.04v21.91c0 11.62 9.42 21.04 21.04 21.04h85.91c11.62 0 21.04-9.42 21.04-21.04v-21.91c0-11.62-9.42-21.04-21.04-21.04z" p-id="13435" fill="#5b08c3"></path></svg>