<?xml version="1.0" standalone="no"?><!DOCTYPE svg PUBLIC "-//W3C//DTD SVG 1.1//EN" "http://www.w3.org/Graphics/SVG/1.1/DTD/svg11.dtd"><svg t="1707043016592" class="icon" viewBox="0 0 1024 1024" version="1.1" xmlns="http://www.w3.org/2000/svg" p-id="11637" width="20" height="20" xmlns:xlink="http://www.w3.org/1999/xlink"><path d="M819.2 86.4H204.8C126.4 86.4 64 148.8 64 224v430.4C64 731.2 126.4 792 204.8 792h201.6v96H283.2c-12.8 0-24 9.6-24 22.4 0 12.8 11.2 25.6 24 25.6h457.6c12.8 0 24-12.8 24-25.6s-11.2-22.4-24-22.4H627.2v-96h193.6c78.4 0 140.8-62.4 140.8-137.6V224c-1.6-75.2-64-137.6-142.4-137.6z m75.2 558.4c0 64-52.8 83.2-116.8 83.2H246.4c-64 0-116.8-19.2-116.8-83.2V257.6c0-64 52.8-115.2 116.8-115.2h531.2c64 0 116.8 51.2 116.8 115.2v387.2z m-48-320c0-1.6 0-4.8-1.6-6.4 0-1.6-1.6-3.2-1.6-4.8 0-1.6-1.6-3.2-1.6-4.8 0 0 0-1.6-1.6-1.6 0-1.6-1.6-3.2-1.6-3.2l-4.8-4.8-1.6-1.6-3.2-3.2c-1.6-1.6-4.8-3.2-8-4.8-1.6-1.6-4.8-1.6-6.4-3.2h-1.6c-1.6 0-3.2-1.6-4.8-1.6-3.2 0-6.4-1.6-9.6-1.6-3.2 0-6.4 0-9.6 1.6-1.6 0-3.2 0-4.8 1.6h-1.6c-1.6 0-4.8 1.6-6.4 3.2-3.2 1.6-4.8 3.2-8 4.8l-3.2 3.2-1.6 1.6-4.8 4.8c-1.6 1.6-1.6 3.2-1.6 3.2s0 1.6-1.6 1.6c0 1.6-1.6 3.2-1.6 4.8 0 1.6-1.6 3.2-1.6 4.8 0 1.6-1.6 4.8-1.6 6.4v9.6c0 3.2 0 4.8 1.6 6.4 0 1.6 1.6 3.2 1.6 4.8 0 1.6 0 1.6 1.6 3.2l-136 136c-4.8-1.6-11.2-3.2-17.6-3.2h-4.8c-1.6 0-4.8 0-6.4 1.6-1.6 0-3.2 1.6-4.8 1.6L464 363.2c0-1.6 0-1.6 1.6-3.2 0-1.6 1.6-3.2 1.6-6.4v-12.8c0-1.6 0-3.2-1.6-6.4 0-1.6-1.6-4.8-1.6-6.4 0 0 0-1.6-1.6-1.6-1.6-4.8-4.8-8-8-11.2l-4.8-4.8-1.6-1.6c-1.6-1.6-3.2-1.6-3.2-3.2-1.6-1.6-4.8-1.6-6.4-3.2-3.2-1.6-6.4-1.6-9.6-3.2H409.6c-3.2 0-6.4 1.6-9.6 3.2-1.6 1.6-4.8 1.6-6.4 3.2-1.6 0-3.2 1.6-3.2 3.2l-1.6 1.6-4.8 4.8c-3.2 3.2-6.4 8-8 11.2 0 0 0 1.6-1.6 1.6-1.6 1.6-1.6 4.8-1.6 6.4 0 1.6-1.6 3.2-1.6 6.4v12.8c0 1.6 0 3.2 1.6 6.4 0 1.6 0 3.2 1.6 3.2L241.6 496c-4.8-1.6-11.2-3.2-17.6-3.2-25.6 0-48 20.8-48 48v4.8c0 1.6 0 4.8 1.6 6.4 0 1.6 1.6 3.2 1.6 4.8 0 1.6 1.6 3.2 1.6 4.8 0 0 0 1.6 1.6 1.6 0 1.6 1.6 3.2 1.6 3.2l4.8 4.8 1.6 1.6 3.2 3.2c1.6 1.6 4.8 3.2 8 4.8 1.6 1.6 4.8 1.6 6.4 3.2h1.6c1.6 0 3.2 1.6 4.8 1.6 3.2 0 6.4 1.6 9.6 1.6s6.4 0 9.6-1.6c1.6 0 3.2 0 4.8-1.6h1.6c1.6 0 4.8-1.6 6.4-3.2 3.2-1.6 4.8-3.2 8-4.8l3.2-3.2 1.6-1.6 4.8-4.8c1.6-1.6 1.6-3.2 1.6-3.2s0-1.6 1.6-1.6c0-1.6 1.6-3.2 1.6-4.8 0-1.6 1.6-3.2 1.6-4.8 0-1.6 1.6-4.8 1.6-6.4v-4.8c0-6.4-1.6-12.8-3.2-19.2L400 390.4s1.6 0 1.6 1.6c3.2 1.6 6.4 1.6 9.6 3.2h19.2c3.2 0 6.4-1.6 9.6-3.2 0 0 1.6 0 1.6-1.6L560 508.8c0 1.6-1.6 1.6-1.6 3.2v1.6c0 1.6-1.6 3.2-1.6 4.8 0 3.2-1.6 6.4-1.6 9.6v4.8c0 1.6 0 3.2 1.6 4.8 0 1.6 0 3.2 1.6 4.8v1.6c0 1.6 1.6 4.8 3.2 6.4 0 1.6 1.6 3.2 1.6 3.2 1.6 1.6 1.6 3.2 3.2 4.8 0 1.6 1.6 1.6 1.6 3.2 1.6 1.6 1.6 1.6 3.2 1.6 1.6 1.6 3.2 1.6 4.8 3.2 1.6 1.6 3.2 1.6 3.2 1.6 1.6 1.6 4.8 1.6 6.4 3.2h1.6c1.6 0 3.2 0 4.8 1.6 1.6 0 3.2 0 4.8 1.6h4.8c3.2 0 6.4 0 9.6-1.6 1.6 0 3.2 0 4.8-1.6h1.6c1.6-1.6 4.8-1.6 6.4-3.2 3.2-1.6 4.8-3.2 8-4.8l3.2-3.2 1.6-1.6 4.8-4.8c1.6-1.6 1.6-3.2 1.6-3.2s0-1.6 1.6-1.6c0-1.6 1.6-3.2 1.6-4.8 0-1.6 1.6-3.2 1.6-4.8 0-1.6 1.6-4.8 1.6-6.4V528c0-6.4-1.6-12.8-3.2-17.6l136-136h3.2c1.6 0 3.2 1.6 4.8 1.6 3.2 0 6.4 1.6 9.6 1.6 3.2 0 6.4 0 9.6-1.6 1.6 0 3.2 0 4.8-1.6h1.6c1.6-1.6 4.8-1.6 6.4-3.2 3.2-1.6 4.8-3.2 8-4.8l3.2-3.2 1.6-1.6 4.8-4.8c1.6-1.6 1.6-3.2 1.6-3.2s0-1.6 1.6-1.6c0-1.6 1.6-3.2 1.6-4.8 0-1.6 1.6-3.2 1.6-4.8 0-1.6 1.6-4.8 1.6-6.4v-4.8c0-1.6-1.6-4.8-1.6-6.4zM233.6 550.4c-3.2 3.2-6.4 3.2-9.6 3.2-8 0-14.4-6.4-14.4-14.4 0-3.2 1.6-8 3.2-9.6 3.2-3.2 6.4-4.8 11.2-4.8 8 0 14.4 6.4 14.4 14.4 0 4.8-1.6 9.6-4.8 11.2z m185.6-187.2c-8 0-14.4-6.4-14.4-14.4s6.4-14.4 14.4-14.4 14.4 6.4 14.4 14.4c0 6.4-6.4 14.4-14.4 14.4zM601.6 544c-8 0-14.4-6.4-14.4-14.4s6.4-14.4 14.4-14.4 14.4 6.4 14.4 14.4c1.6 8-6.4 14.4-14.4 14.4z m208-203.2c-3.2 1.6-6.4 3.2-9.6 3.2-8 0-14.4-6.4-14.4-14.4 0-3.2 1.6-6.4 3.2-9.6 3.2-3.2 6.4-4.8 11.2-4.8 8 0 14.4 6.4 14.4 14.4 0 4.8-1.6 9.6-4.8 11.2z" p-id="11638" fill="#4f3174"></path></svg>