<svg id="图层_1" data-name="图层 1" xmlns="http://www.w3.org/2000/svg" viewBox="0 0 278.97 279"><defs><style>.cls-1{fill:#3b86ff;fill-rule:evenodd;opacity:0.4;}</style></defs><title>QG logo</title><path class="cls-1" d="M288.9,224c-1-2.42-21.3,5.32-36.79,1.94,14-22.28,18.39-26.15,23.23-50.36s12.11-83.28-32.91-125.89c-17-17.91-47-38.25-98.76-38.73S56.53,42,56.53,42,8.12,83.14,10.05,144.63s40.67,96.84,40.67,96.84S26,278.75,33.29,280.2s46.47-14,79.39-13.55,77,25.17,131.68,23.24c18.4-1.94,41.64-19.37,38.73-21.31S289.87,226.46,288.9,224Zm-85.27,7.8C169,245.41,135.06,243.4,133,243.15,46.5,230.58,48.78,142.37,48.78,143.62s1-82.68,86.54-92.73c42-5.53,62.75,9.3,92.6,36.94-3.54,4.27-34.15,32.42-34.15,32.42S173,94.11,144.43,99.14c-38-2.76-61.74,66.85-17.46,91.23,24.54,11.06,45.54.75,54.65-3.77-8.35-44-3-46.75-3-46.75l59.21.76.76,98.77S209.45,236.86,203.63,231.84Z" transform="translate(-10 -10.99)"/></svg>