<svg xmlns="http://www.w3.org/2000/svg" viewBox="0 0 48 48"><defs><style>.cls-1{fill:none;}.cls-2{fill:#333;}</style></defs><g id="DO_IT" data-name="DO IT"><rect class="cls-1" x="20.47" y="20.71" width="1.76" height="12.35"/><rect class="cls-1" x="32.82" y="16.29" width="1.76" height="16.76"/><rect class="cls-1" x="26.65" y="23.35" width="1.76" height="9.71"/><rect class="cls-1" x="14.29" y="26" width="1.76" height="7.06"/><path class="cls-2" d="M13.41,34.82h3.53a.87.87,0,0,0,.88-.88V25.12a.87.87,0,0,0-.88-.88H13.41a.88.88,0,0,0-.88.88v8.82A.88.88,0,0,0,13.41,34.82ZM14.29,26h1.77v7.06H14.29Z"/><path class="cls-2" d="M19.59,34.82h3.53a.88.88,0,0,0,.88-.88V19.82a.89.89,0,0,0-.88-.88H19.59a.88.88,0,0,0-.88.88V33.94A.87.87,0,0,0,19.59,34.82Zm.88-14.11h1.77V33.06H20.47Z"/><path class="cls-2" d="M25.76,34.82h3.53a.88.88,0,0,0,.89-.88V22.47a.89.89,0,0,0-.89-.88H25.76a.89.89,0,0,0-.88.88V33.94A.88.88,0,0,0,25.76,34.82Zm.89-11.47h1.76v9.71H26.65Z"/><path class="cls-2" d="M31.94,34.82h3.53a.87.87,0,0,0,.88-.88V15.41a.88.88,0,0,0-.88-.88H31.94a.89.89,0,0,0-.88.88V33.94A.88.88,0,0,0,31.94,34.82Zm.88-18.53h1.77V33.06H32.82Z"/><path class="cls-2" d="M38.12,36.59H10.76V14.53a.88.88,0,0,0-1.76,0V37.47a.88.88,0,0,0,.88.88H38.12a.88.88,0,0,0,0-1.76Z"/></g><g id="O"><path class="cls-2" d="M24,2A22,22,0,1,1,2,24,22,22,0,0,1,24,2m0-2A24,24,0,1,0,48,24,24,24,0,0,0,24,0Z"/></g></svg>