<svg id="图层_1" data-name="图层 1" xmlns="http://www.w3.org/2000/svg" viewBox="0 0 126.16 130"><defs><style>.cls-1{fill:#8264f9;}</style></defs><title>圆润版QGlogo</title><path id="QG底" class="cls-1" d="M124.53,101.68a29.1,29.1,0,0,1-8.9.62h-.07a3.2,3.2,0,0,1-2.59-5c10-14.15,14.16-32.74,8.87-52.25A59.23,59.23,0,0,0,79.93,3.25C39-7.72,2,22.86,2,62.07a60.85,60.85,0,0,0,17.21,42.48,5.19,5.19,0,0,1,.27,6.9c-4,4.9-7.19,10-7.84,12.86a1.7,1.7,0,0,0,2.16,1.92C28.16,122.49,38.35,121,46,120.71c.83,0,1.64,0,2.41,0a52.78,52.78,0,0,1,16.7,2.44l.27.07c1.29.39,2.51.77,3.71,1.12,9.37,2.65,30.15,8.71,40.3,6a53,53,0,0,0,11.45-4.44,10,10,0,0,0,5.19-7.29L128,106.08C128.16,105,129,100.66,124.53,101.68ZM102.9,85v22.19h0c-4,0-7.23-1.09-11.92-3.52a9.84,9.84,0,0,0-8.54-.24,44.7,44.7,0,0,1-18,3.76c-24.2,0-43.81-19-43.81-42.48S40.2,22.24,64.4,22.24A44.22,44.22,0,0,1,98.94,38.6a2.81,2.81,0,0,1-.21,3.75L87.58,53.5a2.82,2.82,0,0,1-4.32-.43A22.93,22.93,0,0,0,64.4,43.49c-12.46,0-22.57,9.51-22.57,21.24S51.94,86,64.4,86A23.63,23.63,0,0,0,73.81,84a4.75,4.75,0,0,0,2.88-4.76c-.28-3.36-.34-6.57-.34-9.24v-.62A4.69,4.69,0,0,1,81,64.73H99.15a3.74,3.74,0,0,1,3.75,3.75Z" transform="translate(-2 -1)"/></svg>