<svg width="24" height="24" viewBox="0 0 24 24" fill="none" xmlns="http://www.w3.org/2000/svg" data-v-8e6f4044="">
    <path fill="#fff" fill-rule="evenodd" clip-rule="evenodd" d="M12.0001 1.09094C12.809 1.09094 13.607 1.17997 14.3838 1.35486L14.832 1.45578L16.2299 4.64258L19.6717 4.26633L19.9828 4.60521C21.072 5.79163 21.8893 7.20671 22.3684 8.75213L22.5034 9.18779L22.2349 9.55649L20.4554 12L22.5034 14.8123L22.3684 15.2479C21.8893 16.7934 21.072 18.2084 19.9828 19.3949L19.6717 19.7337L16.2299 19.3575L14.832 22.5443L14.3838 22.6452C13.607 22.8201 12.809 22.9091 12.0001 22.9091C11.191 22.9091 10.3928 22.8201 9.61586 22.6451L9.16756 22.5441L8.98302 22.1233L7.77022 19.3575L4.32851 19.7337L4.01738 19.3949C2.928 18.2083 2.11072 16.793 1.63163 15.2474L1.49658 14.8117L1.76517 14.443L3.54473 12L1.49658 9.18838L1.63163 8.75267C2.11072 7.20704 2.928 5.79177 4.01738 4.60521L4.32851 4.26633L7.77022 4.64258L9.16756 1.45593L9.61586 1.35498C10.3928 1.18001 11.191 1.09094 12.0001 1.09094ZM12.0001 7.45457C14.5019 7.45457 16.5282 9.49061 16.5282 12C16.5282 14.5094 14.5019 16.5455 12.0001 16.5455C9.49827 16.5455 7.47192 14.5094 7.47192 12C7.47192 9.49061 9.49827 7.45457 12.0001 7.45457ZM9.29004 12C9.29004 10.4928 10.5043 9.27277 12 9.27277C13.4957 9.27277 14.71 10.4928 14.71 12C14.71 13.5072 13.4957 14.7273 12 14.7273C10.5043 14.7273 9.29004 13.5072 9.29004 12Z" ></path>
</svg>