<svg xmlns="http://www.w3.org/2000/svg" viewBox="0 0 48 48"><defs><style>.cls-1{fill:#333;}</style></defs><g id="DO_IT" data-name="DO IT"><path class="cls-1" d="M17,13.45H31a.88.88,0,0,0,.88-.87V9.08A.88.88,0,0,0,31,8.21H17a.88.88,0,0,0-.88.87v3.5A.88.88,0,0,0,17,13.45Zm.87-3.5H30.12V11.7H17.88Z"/><path class="cls-1" d="M36.07,37H24.92L34.49,27,32,15a.88.88,0,0,0-.86-.7H16.85A.88.88,0,0,0,16,15L13.51,27,23.08,37H11.93a.93.93,0,1,0,0,1.85H36.07a.93.93,0,1,0,0-1.85ZM23.13,24.81a.87.87,0,1,1,.87.88A.88.88,0,0,1,23.13,24.81Zm-5.57-8.74H30.44l2.15,10.41-7.72,8V27.43a.8.8,0,0,0,0-.15,2.62,2.62,0,1,0-1.68,0,.8.8,0,0,0,0,.15v7.06l-7.72-8Z"/></g><g id="O"><path class="cls-1" d="M24,2A22,22,0,1,1,2,24,22,22,0,0,1,24,2m0-2A24,24,0,1,0,48,24,24,24,0,0,0,24,0Z"/></g></svg>