<svg xmlns="http://www.w3.org/2000/svg" viewBox="0 0 48 48"><defs><style>.cls-1{fill:#333;}</style></defs><g id="DO_IT" data-name="DO IT"><path class="cls-1" d="M35.53,10H12.47A2.48,2.48,0,0,0,10,12.47V35.53A2.48,2.48,0,0,0,12.47,38H35.53A2.48,2.48,0,0,0,38,35.53V12.47A2.48,2.48,0,0,0,35.53,10Zm.82,25.53a.81.81,0,0,1-.54.76L32,32.47a2.47,2.47,0,1,0-2.23,1.41,2.36,2.36,0,0,0,1.06-.25l2.72,2.72H12.47a.82.82,0,0,1-.82-.82V26l3.53,3.53a.8.8,0,0,0,.27.18.85.85,0,0,0,.31.06h5.1a2.47,2.47,0,1,0,0-1.64H16.11L12,24a.73.73,0,0,0-.34-.19V14.46l5.19,5.19a2.36,2.36,0,0,0-.25,1.06A2.47,2.47,0,1,0,18,18.48l-6-6a.8.8,0,0,0-.3-.19.81.81,0,0,1,.78-.63H35.53a.82.82,0,0,1,.82.82Zm-6.59-3.29a.83.83,0,1,1,.83-.83A.84.84,0,0,1,29.76,32.24Zm-7.41-3.3a.83.83,0,1,1,.83.82A.83.83,0,0,1,22.35,28.94Zm-3.29-9.06a.83.83,0,1,1-.82.83A.83.83,0,0,1,19.06,19.88Z"/><path class="cls-1" d="M32.24,22.35a2.5,2.5,0,0,0-1.06.25L25.4,16.82a2.46,2.46,0,1,0-2.22,1.42A2.46,2.46,0,0,0,24.23,18L30,23.77a2.46,2.46,0,0,0-.25,1.05,2.48,2.48,0,1,0,2.48-2.47Zm-9.06-5.76a.83.83,0,1,1,.82-.83A.84.84,0,0,1,23.18,16.59Zm9.06,9.06a.83.83,0,1,1,.82-.83A.84.84,0,0,1,32.24,25.65Z"/></g><g id="O"><path class="cls-1" d="M24,2A22,22,0,1,1,2,24,22,22,0,0,1,24,2m0-2A24,24,0,1,0,48,24,24,24,0,0,0,24,0Z"/></g></svg>