<svg xmlns="http://www.w3.org/2000/svg" viewBox="0 0 48 48"><defs><style>.cls-1{fill:#333;}</style></defs><g id="DO_IT" data-name="DO IT"><path class="cls-1" d="M36.35,10.76H11.65A2.65,2.65,0,0,0,9,13.41V34.59a2.65,2.65,0,0,0,2.65,2.65h24.7A2.65,2.65,0,0,0,39,34.59V13.41A2.65,2.65,0,0,0,36.35,10.76ZM10.76,13.41a.89.89,0,0,1,.89-.88h24.7a.89.89,0,0,1,.89.88v5.3H10.76ZM37.24,34.59a.89.89,0,0,1-.89.88H11.65a.89.89,0,0,1-.89-.88V20.47H37.24Z"/><path class="cls-1" d="M22.86,32.67a.85.85,0,0,0,.23,0,.89.89,0,0,0,.85-.65l1.83-6.82a.89.89,0,0,0-.63-1.08.85.85,0,0,0-.23,0,.89.89,0,0,0-.85.65l-1.83,6.82A.89.89,0,0,0,22.86,32.67Z"/><path class="cls-1" d="M13.47,29a1,1,0,0,0,.16.26l.06.06.18.13,0,0,4.52,2a.8.8,0,0,0,1.06-.48.9.9,0,0,0-.44-1.15l-2.7-1.22,2.7-1.21a.9.9,0,0,0,.44-1.15.8.8,0,0,0-1.06-.48l-4.52,2,0,0a1,1,0,0,0-.18.13l-.06.06a1,1,0,0,0-.16.26.92.92,0,0,0-.06.33A.93.93,0,0,0,13.47,29Z"/><path class="cls-1" d="M28.47,31.05a.82.82,0,0,0,.76.54.85.85,0,0,0,.31-.06l4.51-2,0,0,.19-.13,0-.06a.76.76,0,0,0,.16-.26.93.93,0,0,0,.06-.34.92.92,0,0,0-.06-.33.76.76,0,0,0-.16-.26l0-.06-.19-.13,0,0-4.51-2a.85.85,0,0,0-.31-.06.82.82,0,0,0-.76.54.91.91,0,0,0,.44,1.15l2.7,1.21-2.7,1.22A.91.91,0,0,0,28.47,31.05Z"/><circle class="cls-1" cx="13.85" cy="15.62" r="1.32"/><circle class="cls-1" cx="18.26" cy="15.62" r="1.32"/><circle class="cls-1" cx="22.68" cy="15.62" r="1.32"/></g><g id="O"><path class="cls-1" d="M24,2A22,22,0,1,1,2,24,22,22,0,0,1,24,2m0-2A24,24,0,1,0,48,24,24,24,0,0,0,24,0Z"/></g></svg>