<svg id="图层_1" data-name="图层 1" xmlns="http://www.w3.org/2000/svg" viewBox="0 0 827 165"><defs><style>.cls-1{fill:#3b86ff;}</style></defs><polygon class="cls-1" points="491.25 37.33 491.25 0 331.25 0 331.25 37.33 380.28 37.33 380.28 122.67 331.25 122.67 331.25 160 491.25 160 491.25 122.67 442.22 122.67 442.22 37.33 491.25 37.33"/><path class="cls-1" d="M565.12,6.53h-50l-15,80h10V166h26c13.26,0,24-11.39,24-25.43V70.64h-7.47A26.89,26.89,0,0,0,554,66Z" transform="translate(-7 -6)"/><path class="cls-1" d="M660.12,48.38V16.6h-45V6h-49V49.44h14v115.5h27c11.54,0,21.18-8.63,23.48-20.13h29.52V113h-29V97.13h29V65.34h-29v-17Z" transform="translate(-7 -6)"/><path class="cls-1" d="M730.26,37.89h47.48v5.32H814.9c10.27,0,18.58-8.57,18.58-19.14V11.32H777.74V6H730.26v5.32H674.52V43.21h55.74Z" transform="translate(-7 -6)"/><path class="cls-1" d="M781.35,141.55v-5.32h47.49V112.84H781.35v-5.31h47.49V99c0-10.57-8.32-19.13-18.58-19.13h-38.2v4.25H735.94l10.32-8.51h82.58V49.06H679.16V75.63h10.32l-3.41,1.76a14.42,14.42,0,0,0-4.72,3.93,10.47,10.47,0,0,0-2.19,6.42v7a12.58,12.58,0,0,0,12.39,12.76h35.1v5.31H679.16v23.39h47.49v5.32H674V166H834V141.55Z" transform="translate(-7 -6)"/><path class="cls-1" d="M170,6V142a24,24,0,0,0,24,24h75V129H232V43h98V6Z" transform="translate(-7 -6)"/><path class="cls-1" d="M242,70v35h35v60h29a24,24,0,0,0,24-24V70H242Z" transform="translate(-7 -6)"/><path class="cls-1" d="M160,135V6H102V124H65V41H94V6H7V135a24,24,0,0,0,24,24H80.79l5.74,12H160l-8.47-17.71A23.94,23.94,0,0,0,160,135Z" transform="translate(-7 -6)"/></svg>