<?xml version="1.0" standalone="no"?><!DOCTYPE svg PUBLIC "-//W3C//DTD SVG 1.1//EN" "http://www.w3.org/Graphics/SVG/1.1/DTD/svg11.dtd"><svg t="1699766059592" class="icon" viewBox="0 0 1024 1024" version="1.1" xmlns="http://www.w3.org/2000/svg" p-id="32007" xmlns:xlink="http://www.w3.org/1999/xlink" width="11" height="11"><path d="M265.131637 105.372106V26.007694a26.021813 26.021813 0 0 0-52.029507 0v79.364412zM394.760648 105.372106V26.007694a26.021813 26.021813 0 0 0-52.029507 0v79.364412zM524.375539 105.372106V26.007694a26.021813 26.021813 0 0 0-52.029507 0v79.364412zM654.00455 105.372106V26.007694a26.021813 26.021813 0 0 0-52.029507 0v79.364412zM783.619442 105.372106V26.007694a26.021813 26.021813 0 0 0-52.029507 0v79.364412zM731.604054 918.642013v79.350293a26.021813 26.021813 0 0 0 52.029507 0v-79.350293zM601.975043 918.642013v79.350293a26.021813 26.021813 0 0 0 52.029507 0v-79.350293zM472.346032 918.642013v79.350293a26.021813 26.021813 0 0 0 52.029507 0v-79.350293zM342.731141 918.642013v79.350293a26.021813 26.021813 0 0 0 52.029507 0v-79.350293zM213.10213 918.642013v79.350293a26.021813 26.021813 0 0 0 52.029507 0v-79.350293zM918.642013 278.756732h79.350293a26.007694 26.007694 0 0 0 0-52.015388h-79.350293zM918.642013 408.385743h79.350293a26.021813 26.021813 0 0 0 0-52.029507h-79.350293zM918.642013 538.014754h79.350293a26.021813 26.021813 0 0 0 0-52.029508h-79.350293zM918.642013 667.643764h79.350293a26.021813 26.021813 0 0 0 0-52.029507h-79.350293zM918.642013 797.272775h79.350293a26.021813 26.021813 0 0 0 0-52.029507h-79.350293zM105.372106 745.243268H26.007694a26.021813 26.021813 0 0 0 0 52.029507h79.364412zM105.372106 615.600138H26.007694a26.021813 26.021813 0 0 0 0 52.029507h79.364412zM105.372106 485.985246H26.007694a26.021813 26.021813 0 0 0 0 52.029508h79.364412zM105.372106 356.356236H26.007694a26.021813 26.021813 0 0 0 0 52.029507h79.364412zM105.372106 226.741344H26.007694a26.007694 26.007694 0 0 0 0 52.015388h79.364412zM753.079462 457.12546q-8.344488-6.720772-26.332437-6.720772h-45.817028v59.159738h45.817028q17.987949 0 26.332437-7.596167t8.344488-23.833326q0-14.331058-8.344488-21.009473z" p-id="32008" fill="#5b08c3"></path><path d="M847.339704 121.609266h-670.665288a55.06515 55.06515 0 0 0-55.06515 55.06515v670.665288a55.06515 55.06515 0 0 0 55.06515 55.065149h670.665288a55.06515 55.06515 0 0 0 55.065149-55.065149v-670.665288a55.06515 55.06515 0 0 0-55.065149-55.06515zM593.009307 430.736546h23.070886v170.490176H593.009307z m-174.796553 0h23.085005v69.93274h88.951396v-69.93274h23.085006v170.490176h-23.070886v-80.140972h-88.951396v80.140972h-23.085006z m-157.683998 19.766977q21.757794-24.398097 58.397297-24.412217 28.888025 0 47.440745 14.853472t22.266087 40.94588h-22.251968q-3.247432-16.943123-15.714747-26.163005t-32.06486-9.219883q-25.654712 0-40.832927 18.849224T262.618407 516.101648q0 33.886246 14.11927 51.605929t40.94588 17.747921q19.766977 0 32.940255-12.227287t17.39494-34.747522h22.266088q-4.405212 31.556567-24.186308 49.417443t-50.038691 17.917352q-35.298173 0-56.194691-24.299262t-20.938876-65.471051q-0.127073-41.115312 21.616601-65.541648z m510.693967 65.132189q-13.978077 13.681572-38.799752 13.681572-32.587273-0.112954-51.507094 0.240027v71.669411h-23.056766V430.736546h74.57798q24.821675 0 38.799751 12.467315t13.963958 34.507494q0 24.228666-13.963958 37.924357z" p-id="32009" fill="#5b08c3"></path></svg>