<?xml version="1.0" standalone="no"?><!DOCTYPE svg PUBLIC "-//W3C//DTD SVG 1.1//EN" "http://www.w3.org/Graphics/SVG/1.1/DTD/svg11.dtd"><svg height="1024" node-id="1" sillyvg="true" template-height="1024" template-width="1024" version="1.1" viewBox="0 0 1024 1024" width="1024" xmlns="http://www.w3.org/2000/svg" xmlns:xlink="http://www.w3.org/1999/xlink"><defs node-id="157"><linearGradient gradientUnits="userSpaceOnUse" id="SVGID_1_" node-id="4" spreadMethod="pad" x1="511.4615" x2="511.4615" y1="177.9927" y2="561.381"><stop offset="0.0000004528621" stop-color="#d0ddf8"></stop><stop offset="1" stop-color="#ffffff" stop-opacity="0"></stop></linearGradient><linearGradient gradientUnits="userSpaceOnUse" id="SVGID_2_" node-id="8" spreadMethod="pad" x1="511.4615" x2="511.4615" y1="492.6566" y2="844.7766"><stop offset="0.0000004528621" stop-color="#d0ddf8"></stop><stop offset="1" stop-color="#ffffff"></stop></linearGradient><linearGradient gradientUnits="userSpaceOnUse" id="SVGID_3_" node-id="12" spreadMethod="pad" x1="740.2807" x2="597.591" y1="779.4434" y2="532.2976"><stop offset="0" stop-color="#ffffff" stop-opacity="0"></stop><stop offset="1" stop-color="#9db9e0"></stop></linearGradient><linearGradient gradientUnits="userSpaceOnUse" id="SVGID_4_" node-id="16" spreadMethod="pad" x1="357.8748" x2="357.8748" y1="726.447" y2="620.9976"><stop offset="0" stop-color="#ffffff" stop-opacity="0"></stop><stop offset="1" stop-color="#9db9e0"></stop></linearGradient><linearGradient gradientUnits="userSpaceOnUse" id="SVGID_7_" node-id="69" spreadMethod="pad" x1="407.2044" x2="432.4602" y1="313.9409" y2="357.685"><stop offset="0.0000004475343" stop-color="#dfe7f8"></stop><stop offset="1" stop-color="#7aa1f8"></stop></linearGradient><linearGradient gradientUnits="userSpaceOnUse" id="SVGID_8_" node-id="74" spreadMethod="pad" x1="398.4042" x2="434.639" y1="298.9638" y2="361.7242"><stop offset="0.0000004475343" stop-color="#dfe7f8"></stop><stop offset="1" stop-color="#7aa1f8"></stop></linearGradient><linearGradient gradientUnits="userSpaceOnUse" id="SVGID_9_" node-id="79" spreadMethod="pad" x1="595.1393" x2="595.1393" y1="592.6333" y2="482.489"><stop offset="0.0000004475343" stop-color="#cedbf8"></stop><stop offset="1" stop-color="#92b2f8"></stop></linearGradient><linearGradient gradientUnits="userSpaceOnUse" id="SVGID_10_" node-id="117" spreadMethod="pad" x1="539.6392" x2="539.6392" y1="489.6332" y2="592.6332"><stop offset="0.0000004475343" stop-color="#dfe7f8"></stop><stop offset="1" stop-color="#709af8"></stop></linearGradient><linearGradient gradientUnits="userSpaceOnUse" id="SVGID_11_" node-id="122" spreadMethod="pad" x1="456.7015" x2="558.1516" y1="343.0587" y2="518.7752"><stop offset="0.0000004475343" stop-color="#dfe7f8"></stop><stop offset="1" stop-color="#7aa1f8"></stop></linearGradient><linearGradient gradientUnits="userSpaceOnUse" id="SVGID_12_" node-id="127" spreadMethod="pad" x1="453.4806" x2="514.2728" y1="344.9183" y2="450.2137"><stop offset="0.0000004475343" stop-color="#cedbf8"></stop><stop offset="1" stop-color="#92b2f8"></stop></linearGradient><linearGradient gradientUnits="userSpaceOnUse" id="SVGID_13_" node-id="132" spreadMethod="pad" x1="447.2999" x2="526.3299" y1="405.2424" y2="405.2424"><stop offset="0" stop-color="#becfe2"></stop><stop offset="1" stop-color="#e7edf5"></stop></linearGradient><linearGradient gradientUnits="userSpaceOnUse" id="SVGID_14_" node-id="139" spreadMethod="pad" x1="427.4952" x2="460.4952" y1="362.4968" y2="362.4968"><stop offset="0.0938" stop-color="#ffffff"></stop><stop offset="0.9362" stop-color="#bbcbe0"></stop></linearGradient><clipPath id="SVGID_6_" node-id="27"><path d="M 520.68 516.36 L 547.06 516.36 L 547.06 570.33 L 520.68 570.33 Z" fill="#000000" fill-rule="nonzero" node-id="232" stroke="none" target-height="53.97003" target-width="26.380005" target-x="520.68" target-y="516.36"></path></clipPath></defs><path d="M 727.99 228.72 L 727.99 561.38 L 294.94 561.38 C 295.66 395.95 296.33 370.51 297.06 205.02 L 394.05 205.02 C 394.23 234.53 394.23 247.35 394.05 247.83 L 394.05 247.89 C 394.05 247.89 394.17 247.83 394.23 247.77 L 394.23 247.59 C 394.23 238.88 401.24 231.87 409.95 231.87 C 418.66 231.87 425.67 238.88 425.67 247.59 L 425.67 256.90 L 494.96 256.90 L 494.96 177.99 L 557.12 177.99 L 557.12 291.73 C 557.06 291.97 557.06 292.15 557.06 292.40 L 557.06 330.67 C 557.06 336.29 561.59 340.83 567.22 340.83 C 572.78 340.83 577.32 336.30 577.32 330.67 L 577.32 300.86 C 596.85 300.80 611.00 300.74 620.37 300.74 C 629.74 300.74 634.34 300.80 634.76 300.86 C 636.27 300.68 634.76 277.76 634.76 277.76 L 664.33 277.76 L 664.33 304.91 C 664.33 309.02 667.66 312.35 671.77 312.35 C 675.88 312.35 679.21 309.02 679.21 304.91 L 679.21 228.72 L 727.99 228.72 Z" fill="url(#SVGID_1_)" fill-rule="nonzero" node-id="236" stroke="none" target-height="383.39" target-width="433.05" target-x="294.94" target-y="177.99"></path><path d="M 882.44 668.72 C 882.44 715.41 843.35 760.20 773.78 793.21 C 704.21 826.23 609.85 844.78 511.46 844.78 C 413.07 844.78 318.71 826.23 249.14 793.21 C 179.57 760.20 140.48 715.41 140.48 668.72 C 140.48 622.03 179.57 577.24 249.14 544.23 C 318.71 511.21 413.07 492.66 511.46 492.66 C 609.85 492.66 704.21 511.21 773.78 544.23 C 843.35 577.24 882.44 622.03 882.44 668.72 Z" fill="url(#SVGID_2_)" fill-rule="nonzero" node-id="238" stroke="none" target-height="352.12003" target-width="741.96" target-x="140.48" target-y="492.66"></path><path d="M 840.47 721.60 L 602.08 771.45 L 512.14 581.63 L 623.14 576.49 Z" fill="url(#SVGID_3_)" fill-rule="nonzero" node-id="240" stroke="none" target-height="194.96002" target-width="328.32996" target-x="512.14" target-y="576.49"></path><path d="M 412.54 714.03 L 353.17 726.45 L 303.20 621.00 L 328.11 631.41 Z" fill="url(#SVGID_4_)" fill-rule="nonzero" node-id="242" stroke="none" target-height="105.45001" target-width="109.34" target-x="303.2" target-y="621"></path><g node-id="580"><g node-id="592"><path d="M 348.88 516.99 C 349.04 516.81 353.67 510.38 354.47 509.27 C 354.54 509.18 354.52 509.05 354.44 508.98 C 354.18 508.77 353.65 508.34 353.40 508.14 C 353.32 508.08 353.20 508.10 353.14 508.19 L 347.64 515.82 L 347.18 516.75 L 348.88 516.99 Z" fill="#272b73" fill-rule="nonzero" group-id="1,13" node-id="248" stroke="none" target-height="8.910004" target-width="7.360016" target-x="347.18" target-y="508.08"></path></g></g><g node-id="581"><g node-id="593"><g node-id="610"><g clip-path="url(#SVGID_6_)" group-id="2,14,31" node-id="256"><path d="M 520.68 516.36 L 547.06 516.36 L 547.06 538.30 L 520.68 538.30 Z" fill="#ffffff" fill-rule="nonzero" group-id="2,14,31" node-id="258" stroke="none" target-height="21.940002" target-width="26.380005" target-x="520.68" target-y="516.36"></path></g></g><g node-id="611"><g clip-path="url(#SVGID_6_)" group-id="2,14,32" node-id="261"><path d="M 520.68 538.30 L 547.06 538.30 L 547.06 539.17 L 520.68 539.17 Z" fill="#ffffff" fill-rule="nonzero" group-id="2,14,32" node-id="263" stroke="none" target-height="0.8699951" target-width="26.380005" target-x="520.68" target-y="538.3"></path></g></g><g node-id="612"><g clip-path="url(#SVGID_6_)" group-id="2,14,33" node-id="266"><path d="M 520.68 539.16 L 547.06 539.16 L 547.06 540.03 L 520.68 540.03 Z" fill="#fefeff" fill-rule="nonzero" group-id="2,14,33" node-id="268" stroke="none" target-height="0.87005615" target-width="26.380005" target-x="520.68" target-y="539.16"></path></g></g><g node-id="613"><g clip-path="url(#SVGID_6_)" group-id="2,14,34" node-id="271"><path d="M 520.68 540.03 L 547.06 540.03 L 547.06 540.90 L 520.68 540.90 Z" fill="#fdfefe" fill-rule="nonzero" group-id="2,14,34" node-id="273" stroke="none" target-height="0.8699951" target-width="26.380005" target-x="520.68" target-y="540.03"></path></g></g><g node-id="614"><g clip-path="url(#SVGID_6_)" group-id="2,14,35" node-id="276"><path d="M 520.68 540.89 L 547.06 540.89 L 547.06 541.76 L 520.68 541.76 Z" fill="#fcfdfe" fill-rule="nonzero" group-id="2,14,35" node-id="278" stroke="none" target-height="0.8699951" target-width="26.380005" target-x="520.68" target-y="540.89"></path></g></g><g node-id="615"><g clip-path="url(#SVGID_6_)" group-id="2,14,36" node-id="281"><path d="M 520.68 541.76 L 547.06 541.76 L 547.06 542.63 L 520.68 542.63 Z" fill="#fbfcfd" fill-rule="nonzero" group-id="2,14,36" node-id="283" stroke="none" target-height="0.8699951" target-width="26.380005" target-x="520.68" target-y="541.76"></path></g></g><g node-id="616"><g clip-path="url(#SVGID_6_)" group-id="2,14,37" node-id="286"><path d="M 520.68 542.63 L 547.06 542.63 L 547.06 543.50 L 520.68 543.50 Z" fill="#fafbfd" fill-rule="nonzero" group-id="2,14,37" node-id="288" stroke="none" target-height="0.8699951" target-width="26.380005" target-x="520.68" target-y="542.63"></path></g></g><g node-id="617"><g clip-path="url(#SVGID_6_)" group-id="2,14,38" node-id="291"><path d="M 520.68 543.49 L 547.06 543.49 L 547.06 544.36 L 520.68 544.36 Z" fill="#f9fbfc" fill-rule="nonzero" group-id="2,14,38" node-id="293" stroke="none" target-height="0.8699951" target-width="26.380005" target-x="520.68" target-y="543.49"></path></g></g><g node-id="618"><g clip-path="url(#SVGID_6_)" group-id="2,14,39" node-id="296"><path d="M 520.68 544.36 L 547.06 544.36 L 547.06 545.23 L 520.68 545.23 Z" fill="#f8fafc" fill-rule="nonzero" group-id="2,14,39" node-id="298" stroke="none" target-height="0.8699951" target-width="26.380005" target-x="520.68" target-y="544.36"></path></g></g><g node-id="619"><g clip-path="url(#SVGID_6_)" group-id="2,14,40" node-id="301"><path d="M 520.68 545.22 L 547.06 545.22 L 547.06 546.09 L 520.68 546.09 Z" fill="#f7f9fb" fill-rule="nonzero" group-id="2,14,40" node-id="303" stroke="none" target-height="0.87005615" target-width="26.380005" target-x="520.68" target-y="545.22"></path></g></g><g node-id="620"><g clip-path="url(#SVGID_6_)" group-id="2,14,41" node-id="306"><path d="M 520.68 546.09 L 547.06 546.09 L 547.06 546.96 L 520.68 546.96 Z" fill="#f6f8fb" fill-rule="nonzero" group-id="2,14,41" node-id="308" stroke="none" target-height="0.8699951" target-width="26.380005" target-x="520.68" target-y="546.09"></path></g></g><g node-id="621"><g clip-path="url(#SVGID_6_)" group-id="2,14,42" node-id="311"><path d="M 520.68 546.95 L 547.06 546.95 L 547.06 547.82 L 520.68 547.82 Z" fill="#f5f8fb" fill-rule="nonzero" group-id="2,14,42" node-id="313" stroke="none" target-height="0.8699951" target-width="26.380005" target-x="520.68" target-y="546.95"></path></g></g><g node-id="622"><g clip-path="url(#SVGID_6_)" group-id="2,14,43" node-id="316"><path d="M 520.68 547.82 L 547.06 547.82 L 547.06 548.69 L 520.68 548.69 Z" fill="#f4f7fa" fill-rule="nonzero" group-id="2,14,43" node-id="318" stroke="none" target-height="0.8699951" target-width="26.380005" target-x="520.68" target-y="547.82"></path></g></g><g node-id="623"><g clip-path="url(#SVGID_6_)" group-id="2,14,44" node-id="321"><path d="M 520.68 548.68 L 547.06 548.68 L 547.06 549.55 L 520.68 549.55 Z" fill="#f3f6fa" fill-rule="nonzero" group-id="2,14,44" node-id="323" stroke="none" target-height="0.8699951" target-width="26.380005" target-x="520.68" target-y="548.68"></path></g></g><g node-id="624"><g clip-path="url(#SVGID_6_)" group-id="2,14,45" node-id="326"><path d="M 520.68 549.55 L 547.06 549.55 L 547.06 550.42 L 520.68 550.42 Z" fill="#f2f5f9" fill-rule="nonzero" group-id="2,14,45" node-id="328" stroke="none" target-height="0.8699951" target-width="26.380005" target-x="520.68" target-y="549.55"></path></g></g><g node-id="625"><g clip-path="url(#SVGID_6_)" group-id="2,14,46" node-id="331"><path d="M 520.68 550.42 L 547.06 550.42 L 547.06 551.29 L 520.68 551.29 Z" fill="#f1f5f9" fill-rule="nonzero" group-id="2,14,46" node-id="333" stroke="none" target-height="0.8699951" target-width="26.380005" target-x="520.68" target-y="550.42"></path></g></g><g node-id="626"><g clip-path="url(#SVGID_6_)" group-id="2,14,47" node-id="336"><path d="M 520.68 551.28 L 547.06 551.28 L 547.06 552.15 L 520.68 552.15 Z" fill="#f0f4f8" fill-rule="nonzero" group-id="2,14,47" node-id="338" stroke="none" target-height="0.8699951" target-width="26.380005" target-x="520.68" target-y="551.28"></path></g></g><g node-id="627"><g clip-path="url(#SVGID_6_)" group-id="2,14,48" node-id="341"><path d="M 520.68 552.15 L 547.06 552.15 L 547.06 553.02 L 520.68 553.02 Z" fill="#eff3f8" fill-rule="nonzero" group-id="2,14,48" node-id="343" stroke="none" target-height="0.8699951" target-width="26.380005" target-x="520.68" target-y="552.15"></path></g></g><g node-id="628"><g clip-path="url(#SVGID_6_)" group-id="2,14,49" node-id="346"><path d="M 520.68 553.01 L 547.06 553.01 L 547.06 553.88 L 520.68 553.88 Z" fill="#eef2f7" fill-rule="nonzero" group-id="2,14,49" node-id="348" stroke="none" target-height="0.8699951" target-width="26.380005" target-x="520.68" target-y="553.01"></path></g></g><g node-id="629"><g clip-path="url(#SVGID_6_)" group-id="2,14,50" node-id="351"><path d="M 520.68 553.88 L 547.06 553.88 L 547.06 554.75 L 520.68 554.75 Z" fill="#edf2f7" fill-rule="nonzero" group-id="2,14,50" node-id="353" stroke="none" target-height="0.8699951" target-width="26.380005" target-x="520.68" target-y="553.88"></path></g></g><g node-id="630"><g clip-path="url(#SVGID_6_)" group-id="2,14,51" node-id="356"><path d="M 520.68 554.74 L 547.06 554.74 L 547.06 555.61 L 520.68 555.61 Z" fill="#ebf1f7" fill-rule="nonzero" group-id="2,14,51" node-id="358" stroke="none" target-height="0.8699951" target-width="26.380005" target-x="520.68" target-y="554.74"></path></g></g><g node-id="631"><g clip-path="url(#SVGID_6_)" group-id="2,14,52" node-id="361"><path d="M 520.68 555.61 L 547.06 555.61 L 547.06 556.48 L 520.68 556.48 Z" fill="#eaf0f6" fill-rule="nonzero" group-id="2,14,52" node-id="363" stroke="none" target-height="0.8699951" target-width="26.380005" target-x="520.68" target-y="555.61"></path></g></g><g node-id="632"><g clip-path="url(#SVGID_6_)" group-id="2,14,53" node-id="366"><path d="M 520.68 556.48 L 547.06 556.48 L 547.06 557.35 L 520.68 557.35 Z" fill="#e9eff6" fill-rule="nonzero" group-id="2,14,53" node-id="368" stroke="none" target-height="0.8699951" target-width="26.380005" target-x="520.68" target-y="556.48"></path></g></g><g node-id="633"><g clip-path="url(#SVGID_6_)" group-id="2,14,54" node-id="371"><path d="M 520.68 557.34 L 547.06 557.34 L 547.06 558.21 L 520.68 558.21 Z" fill="#e8eff5" fill-rule="nonzero" group-id="2,14,54" node-id="373" stroke="none" target-height="0.8699951" target-width="26.380005" target-x="520.68" target-y="557.34"></path></g></g><g node-id="634"><g clip-path="url(#SVGID_6_)" group-id="2,14,55" node-id="376"><path d="M 520.68 558.21 L 547.06 558.21 L 547.06 559.08 L 520.68 559.08 Z" fill="#e7eef5" fill-rule="nonzero" group-id="2,14,55" node-id="378" stroke="none" target-height="0.8699951" target-width="26.380005" target-x="520.68" target-y="558.21"></path></g></g><g node-id="635"><g clip-path="url(#SVGID_6_)" group-id="2,14,56" node-id="381"><path d="M 520.68 559.07 L 547.06 559.07 L 547.06 559.94 L 520.68 559.94 Z" fill="#e6edf4" fill-rule="nonzero" group-id="2,14,56" node-id="383" stroke="none" target-height="0.8699951" target-width="26.380005" target-x="520.68" target-y="559.07"></path></g></g><g node-id="636"><g clip-path="url(#SVGID_6_)" group-id="2,14,57" node-id="386"><path d="M 520.68 559.94 L 547.06 559.94 L 547.06 560.81 L 520.68 560.81 Z" fill="#e5ecf4" fill-rule="nonzero" group-id="2,14,57" node-id="388" stroke="none" target-height="0.8699951" target-width="26.380005" target-x="520.68" target-y="559.94"></path></g></g><g node-id="637"><g clip-path="url(#SVGID_6_)" group-id="2,14,58" node-id="391"><path d="M 520.68 560.80 L 547.06 560.80 L 547.06 561.67 L 520.68 561.67 Z" fill="#e4ecf3" fill-rule="nonzero" group-id="2,14,58" node-id="393" stroke="none" target-height="0.8699951" target-width="26.380005" target-x="520.68" target-y="560.8"></path></g></g><g node-id="638"><g clip-path="url(#SVGID_6_)" group-id="2,14,59" node-id="396"><path d="M 520.68 561.67 L 547.06 561.67 L 547.06 562.54 L 520.68 562.54 Z" fill="#e3ebf3" fill-rule="nonzero" group-id="2,14,59" node-id="398" stroke="none" target-height="0.8699951" target-width="26.380005" target-x="520.68" target-y="561.67"></path></g></g><g node-id="639"><g clip-path="url(#SVGID_6_)" group-id="2,14,60" node-id="401"><path d="M 520.68 562.53 L 547.06 562.53 L 547.06 563.40 L 520.68 563.40 Z" fill="#e2eaf3" fill-rule="nonzero" group-id="2,14,60" node-id="403" stroke="none" target-height="0.8699951" target-width="26.380005" target-x="520.68" target-y="562.53"></path></g></g><g node-id="640"><g clip-path="url(#SVGID_6_)" group-id="2,14,61" node-id="406"><path d="M 520.68 563.40 L 547.06 563.40 L 547.06 564.27 L 520.68 564.27 Z" fill="#e1e9f2" fill-rule="nonzero" group-id="2,14,61" node-id="408" stroke="none" target-height="0.8699951" target-width="26.380005" target-x="520.68" target-y="563.4"></path></g></g><g node-id="641"><g clip-path="url(#SVGID_6_)" group-id="2,14,62" node-id="411"><path d="M 520.68 564.27 L 547.06 564.27 L 547.06 565.14 L 520.68 565.14 Z" fill="#e0e9f2" fill-rule="nonzero" group-id="2,14,62" node-id="413" stroke="none" target-height="0.8699951" target-width="26.380005" target-x="520.68" target-y="564.27"></path></g></g><g node-id="642"><g clip-path="url(#SVGID_6_)" group-id="2,14,63" node-id="416"><path d="M 520.68 565.13 L 547.06 565.13 L 547.06 566.00 L 520.68 566.00 Z" fill="#dfe8f1" fill-rule="nonzero" group-id="2,14,63" node-id="418" stroke="none" target-height="0.8699951" target-width="26.380005" target-x="520.68" target-y="565.13"></path></g></g><g node-id="643"><g clip-path="url(#SVGID_6_)" group-id="2,14,64" node-id="421"><path d="M 520.68 566.00 L 547.06 566.00 L 547.06 566.87 L 520.68 566.87 Z" fill="#dee7f1" fill-rule="nonzero" group-id="2,14,64" node-id="423" stroke="none" target-height="0.8699951" target-width="26.380005" target-x="520.68" target-y="566"></path></g></g><g node-id="644"><g clip-path="url(#SVGID_6_)" group-id="2,14,65" node-id="426"><path d="M 520.68 566.86 L 547.06 566.86 L 547.06 567.73 L 520.68 567.73 Z" fill="#dde6f0" fill-rule="nonzero" group-id="2,14,65" node-id="428" stroke="none" target-height="0.8699951" target-width="26.380005" target-x="520.68" target-y="566.86"></path></g></g><g node-id="645"><g clip-path="url(#SVGID_6_)" group-id="2,14,66" node-id="431"><path d="M 520.68 567.73 L 547.06 567.73 L 547.06 568.60 L 520.68 568.60 Z" fill="#dce6f0" fill-rule="nonzero" group-id="2,14,66" node-id="433" stroke="none" target-height="0.8699951" target-width="26.380005" target-x="520.68" target-y="567.73"></path></g></g><g node-id="646"><g clip-path="url(#SVGID_6_)" group-id="2,14,67" node-id="436"><path d="M 520.68 568.59 L 547.06 568.59 L 547.06 569.46 L 520.68 569.46 Z" fill="#dbe5ef" fill-rule="nonzero" group-id="2,14,67" node-id="438" stroke="none" target-height="0.8699951" target-width="26.380005" target-x="520.68" target-y="568.59"></path></g></g><g node-id="647"><g clip-path="url(#SVGID_6_)" group-id="2,14,68" node-id="441"><path d="M 520.68 569.46 L 547.06 569.46 L 547.06 570.33 L 520.68 570.33 Z" fill="#dae4ef" fill-rule="nonzero" group-id="2,14,68" node-id="443" stroke="none" target-height="0.8699951" target-width="26.380005" target-x="520.68" target-y="569.46"></path></g></g><g clip-path="url(#SVGID_6_)" group-id="2,14,69" node-id="446"><path d="M 520.68 570.33 L 547.06 570.33 L 520.68 570.33 Z" fill="#dae4ef" fill-rule="nonzero" group-id="2,14,69" node-id="448" stroke="none" target-height="0" target-width="26.380005" target-x="520.68" target-y="570.33"></path></g></g></g><g node-id="582"><path d="M 409.51 370.16 C 408.64 370.16 407.77 369.94 406.97 369.46 C 404.63 368.08 402.48 366.41 400.56 364.48 C 388.03 351.95 388.03 331.57 400.56 319.04 C 413.09 306.52 433.46 306.52 445.99 319.05 C 447.91 320.97 449.58 323.13 450.97 325.46 C 452.38 327.84 451.59 330.90 449.21 332.31 C 446.83 333.72 443.77 332.93 442.36 330.55 C 441.41 328.94 440.25 327.45 438.92 326.12 C 434.74 321.94 429.18 319.64 423.27 319.64 C 423.27 319.64 423.27 319.64 423.26 319.64 C 417.35 319.64 411.80 321.94 407.62 326.12 C 398.99 334.75 398.99 348.79 407.62 357.42 C 408.95 358.75 410.44 359.90 412.05 360.86 C 414.43 362.27 415.21 365.33 413.81 367.71 C 412.88 369.28 411.22 370.16 409.51 370.16 Z" fill="url(#SVGID_7_)" fill-rule="nonzero" group-id="3" node-id="455" stroke="none" target-height="63.640015" target-width="64.350006" target-x="388.03" target-y="306.52"></path></g><g node-id="583"><path d="M 396.98 382.69 C 395.95 382.69 394.90 382.37 394.01 381.71 C 391.97 380.20 390.04 378.54 388.27 376.77 C 368.97 357.47 368.97 326.07 388.27 306.77 C 407.57 287.47 438.97 287.47 458.27 306.77 C 460.05 308.55 461.71 310.48 463.21 312.53 C 464.85 314.75 464.37 317.88 462.14 319.52 C 459.92 321.16 456.79 320.68 455.15 318.45 C 453.95 316.81 452.62 315.26 451.19 313.84 C 435.79 298.44 410.73 298.44 395.33 313.84 C 379.93 329.24 379.93 354.30 395.33 369.70 C 396.75 371.11 398.30 372.45 399.95 373.67 C 402.17 375.31 402.64 378.44 400.99 380.66 C 400.02 381.99 398.51 382.69 396.98 382.69 Z" fill="url(#SVGID_8_)" fill-rule="nonzero" group-id="4" node-id="460" stroke="none" target-height="95.22" target-width="95.880005" target-x="368.97" target-y="287.47"></path></g><g node-id="584"><path d="M 567.14 592.63 C 585.47 587.25 604.81 581.87 623.14 576.49 C 612.81 547.90 602.47 519.32 592.14 490.73 C 588.92 484.89 582.86 481.70 577.14 482.66 C 571.80 483.56 567.80 488.75 567.14 489.72 C 567.14 524.36 567.14 557.99 567.14 592.63 Z" fill="url(#SVGID_9_)" fill-rule="nonzero" group-id="5" node-id="465" stroke="none" target-height="110.92999" target-width="56" target-x="567.14" target-y="481.7"></path></g><g node-id="585"><g node-id="594"><path d="M 335.27 201.46 C 328.85 201.46 323.62 196.24 323.62 189.81 C 323.62 183.38 328.84 178.16 335.27 178.16 C 341.70 178.16 346.92 183.38 346.92 189.81 C 346.92 196.24 341.69 201.46 335.27 201.46 Z M 335.27 184.65 C 332.42 184.65 330.10 186.97 330.10 189.82 C 330.10 192.67 332.42 194.99 335.27 194.99 C 338.12 194.99 340.44 192.67 340.44 189.82 C 340.44 186.96 338.12 184.65 335.27 184.65 Z" fill="#7aa1f8" fill-opacity="0.6" fill-rule="nonzero" group-id="6,15" node-id="472" stroke="none" target-height="23.300003" target-width="23.300018" target-x="323.62" target-y="178.16"></path></g><g node-id="595"><path d="M 341.57 371.12 C 341.57 375.76 337.80 379.53 333.16 379.53 C 328.52 379.53 324.75 375.76 324.75 371.12 C 324.75 366.48 328.52 362.71 333.16 362.71 C 337.80 362.71 341.57 366.48 341.57 371.12 Z" fill="#7aa1f8" fill-opacity="0.6" fill-rule="nonzero" group-id="6,16" node-id="477" stroke="none" target-height="16.820007" target-width="16.820007" target-x="324.75" target-y="362.71"></path></g><g node-id="596"><path d="M 675.19 476.93 C 675.19 486.66 667.30 494.55 657.57 494.55 C 647.84 494.55 639.95 486.66 639.95 476.93 C 639.95 467.20 647.84 459.31 657.57 459.31 C 667.30 459.31 675.19 467.20 675.19 476.93 Z" fill="#7aa1f8" fill-opacity="0.6" fill-rule="nonzero" group-id="6,17" node-id="482" stroke="none" target-height="35.23999" target-width="35.23999" target-x="639.95" target-y="459.31"></path></g><g node-id="597"><path d="M 648.80 295.30 C 648.80 299.14 645.69 302.25 641.85 302.25 C 638.01 302.25 634.90 299.14 634.90 295.30 C 634.90 291.46 638.01 288.35 641.85 288.35 C 645.69 288.35 648.80 291.46 648.80 295.30 Z" fill="#7aa1f8" fill-opacity="0.6" fill-rule="nonzero" group-id="6,18" node-id="487" stroke="none" target-height="13.899994" target-width="13.899963" target-x="634.9" target-y="288.35"></path></g><g node-id="598"><path d="M 748.02 240.25 C 748.02 243.56 745.34 246.24 742.03 246.24 C 738.72 246.24 736.04 243.56 736.04 240.25 C 736.04 236.94 738.72 234.26 742.03 234.26 C 745.34 234.26 748.02 236.94 748.02 240.25 Z" fill="#7aa1f8" fill-opacity="0.6" fill-rule="nonzero" group-id="6,19" node-id="492" stroke="none" target-height="11.980011" target-width="11.9800415" target-x="736.04" target-y="234.26"></path></g><g node-id="599"><path d="M 814.39 376.41 C 814.39 380.98 810.68 384.69 806.11 384.69 C 801.54 384.69 797.83 380.98 797.83 376.41 C 797.83 371.84 801.54 368.13 806.11 368.13 C 810.68 368.13 814.39 371.84 814.39 376.41 Z" fill="#7aa1f8" fill-opacity="0.6" fill-rule="nonzero" group-id="6,20" node-id="497" stroke="none" target-height="16.559998" target-width="16.559998" target-x="797.83" target-y="368.13"></path></g><g node-id="600"><path d="M 695.77 610.93 C 695.77 615.25 692.26 618.76 687.94 618.76 C 683.62 618.76 680.11 615.25 680.11 610.93 C 680.11 606.61 683.62 603.10 687.94 603.10 C 692.26 603.10 695.77 606.61 695.77 610.93 Z" fill="#7aa1f8" fill-opacity="0.6" fill-rule="nonzero" group-id="6,21" node-id="502" stroke="none" target-height="15.660034" target-width="15.660034" target-x="680.11" target-y="603.1"></path></g><g node-id="601"><path d="M 577.77 209.87 C 571.35 209.87 566.12 204.65 566.12 198.22 C 566.12 191.79 571.34 186.57 577.77 186.57 C 584.20 186.57 589.42 191.79 589.42 198.22 C 589.42 204.65 584.19 209.87 577.77 209.87 Z M 577.77 193.05 C 574.92 193.05 572.60 195.37 572.60 198.22 C 572.60 201.07 574.92 203.39 577.77 203.39 C 580.62 203.39 582.94 201.07 582.94 198.22 C 582.94 195.37 580.62 193.05 577.77 193.05 Z" fill="#7aa1f8" fill-opacity="0.6" fill-rule="nonzero" group-id="6,22" node-id="507" stroke="none" target-height="23.299988" target-width="23.299988" target-x="566.12" target-y="186.57"></path></g><g node-id="602"><path d="M 461.61 667.63 C 455.19 667.63 449.96 662.41 449.96 655.98 C 449.96 649.55 455.18 644.33 461.61 644.33 C 468.04 644.33 473.26 649.55 473.26 655.98 C 473.26 662.41 468.04 667.63 461.61 667.63 Z M 461.61 650.82 C 458.76 650.82 456.44 653.14 456.44 655.99 C 456.44 658.84 458.76 661.16 461.61 661.16 C 464.46 661.16 466.78 658.84 466.78 655.99 C 466.78 653.14 464.47 650.82 461.61 650.82 Z" fill="#7aa1f8" fill-opacity="0.6" fill-rule="nonzero" group-id="6,23" node-id="512" stroke="none" target-height="23.299988" target-width="23.300018" target-x="449.96" target-y="644.33"></path></g><g node-id="603"><path d="M 253.00 474.80 L 230.52 474.80 C 228.56 474.80 226.97 473.21 226.97 471.25 L 226.97 471.25 C 226.97 469.29 228.56 467.70 230.52 467.70 L 253.00 467.70 C 254.96 467.70 256.55 469.29 256.55 471.25 L 256.55 471.25 C 256.55 473.22 254.96 474.80 253.00 474.80 Z" fill="#7aa1f8" fill-opacity="0.6" fill-rule="nonzero" group-id="6,24" node-id="517" stroke="none" target-height="7.0999756" target-width="29.579987" target-x="226.97" target-y="467.7"></path></g><g node-id="604"><path d="M 238.07 482.36 L 238.07 460.16 C 238.07 458.12 239.72 456.47 241.76 456.47 L 241.76 456.47 C 243.80 456.47 245.45 458.12 245.45 460.16 L 245.45 482.36 C 245.45 484.40 243.80 486.05 241.76 486.05 L 241.76 486.05 C 239.72 486.05 238.07 484.39 238.07 482.36 Z" fill="#7aa1f8" fill-opacity="0.6" fill-rule="nonzero" group-id="6,25" node-id="522" stroke="none" target-height="29.579987" target-width="7.3799896" target-x="238.07" target-y="456.47"></path></g><g node-id="605"><path d="M 253.08 323.63 L 238.48 323.63 C 237.21 323.63 236.18 322.60 236.18 321.33 L 236.18 321.33 C 236.18 320.06 237.21 319.03 238.48 319.03 L 253.08 319.03 C 254.35 319.03 255.38 320.06 255.38 321.33 L 255.38 321.33 C 255.38 322.60 254.35 323.63 253.08 323.63 Z" fill="#7aa1f8" fill-opacity="0.6" fill-rule="nonzero" group-id="6,26" node-id="527" stroke="none" target-height="4.600006" target-width="19.200012" target-x="236.18" target-y="319.03"></path></g><g node-id="606"><path d="M 243.39 328.54 L 243.39 314.13 C 243.39 312.81 244.46 311.73 245.79 311.73 L 245.79 311.73 C 247.11 311.73 248.19 312.80 248.19 314.13 L 248.19 328.54 C 248.19 329.86 247.12 330.94 245.79 330.94 L 245.79 330.94 C 244.46 330.93 243.39 329.86 243.39 328.54 Z" fill="#7aa1f8" fill-opacity="0.6" fill-rule="nonzero" group-id="6,27" node-id="532" stroke="none" target-height="19.209991" target-width="4.800003" target-x="243.39" target-y="311.73"></path></g><g node-id="607"><path d="M 444.21 279.68 C 437.54 269.99 430.87 260.31 424.20 250.62 C 425.33 248.47 426.46 246.32 427.59 244.18 C 432.56 244.44 437.54 244.71 442.51 244.97 C 443.08 256.55 443.65 268.11 444.21 279.68 Z" fill="#7aa1f8" fill-opacity="0.6" fill-rule="nonzero" group-id="6,28" node-id="537" stroke="none" target-height="35.5" target-width="20.00998" target-x="424.2" target-y="244.18"></path></g><g node-id="608"><path d="M 436.80 284.08 C 427.55 282.38 418.31 280.67 409.06 278.97 C 408.49 277.12 407.91 275.26 407.33 273.41 C 410.29 270.75 413.25 268.08 416.21 265.42 C 423.08 271.64 429.94 277.86 436.80 284.08 Z" fill="#7aa1f8" fill-opacity="0.6" fill-rule="nonzero" group-id="6,29" node-id="542" stroke="none" target-height="18.659973" target-width="29.470001" target-x="407.33" target-y="265.42"></path></g><path d="M 448.80 275.08 C 449.49 266.78 450.19 258.48 450.88 250.18 C 452.46 249.51 454.05 248.84 455.63 248.17 C 458.24 250.55 460.84 252.93 463.45 255.30 C 458.57 261.90 453.69 268.49 448.80 275.08 Z" fill="#7aa1f8" fill-opacity="0.6" fill-rule="nonzero" group-id="6,30" node-id="547" stroke="none" target-height="26.909988" target-width="14.650024" target-x="448.8" target-y="248.17"></path></g><g node-id="586"><path d="M 559.14 495.36 L 559.14 561.63 L 523.14 561.63 L 523.14 525.63 L 512.14 534.63 L 512.14 581.63 L 567.14 592.63 L 567.14 489.63 Z" fill="url(#SVGID_10_)" fill-rule="nonzero" group-id="7" node-id="553" stroke="none" target-height="103" target-width="55" target-x="512.14" target-y="489.63"></path></g><g node-id="587"><path d="M 584.64 314.48 C 635.41 365.25 635.41 447.56 584.64 498.33 C 533.87 549.10 451.56 549.10 400.79 498.33 C 398.00 495.54 395.37 492.65 392.88 489.69 C 391.46 487.99 390.09 486.26 388.76 484.51 C 375.19 460.91 399.57 407.61 446.74 360.44 C 493.91 313.27 547.21 288.89 570.81 302.46 C 572.56 303.78 574.28 305.15 575.99 306.58 C 578.97 309.06 581.86 311.69 584.64 314.48 Z" fill="url(#SVGID_11_)" fill-rule="nonzero" group-id="8" node-id="558" stroke="none" target-height="260.20996" target-width="260.21997" target-x="375.19" target-y="288.89"></path></g><g node-id="588"><path d="M 575.45 305.99 C 575.64 306.18 575.82 306.36 576.00 306.57 C 595.49 327.55 571.11 384.58 521.00 434.68 C 470.89 484.78 413.87 509.17 392.89 489.68 C 392.68 489.50 392.50 489.32 392.31 489.13 C 390.93 487.75 389.76 486.21 388.77 484.51 C 375.20 460.91 399.58 407.61 446.75 360.44 C 493.92 313.27 547.22 288.89 570.82 302.46 C 572.53 303.44 574.07 304.62 575.45 305.99 Z" fill="url(#SVGID_12_)" fill-rule="nonzero" group-id="9" node-id="563" stroke="none" target-height="220.28" target-width="220.28998" target-x="375.2" target-y="288.89"></path></g><g node-id="589"><path d="M 526.33 431.41 C 524.92 432.86 523.50 434.31 522.06 435.75 C 519.00 438.81 515.90 441.79 512.77 444.68 L 510.68 442.52 L 447.30 376.87 L 458.37 365.80 L 524.16 429.32 L 526.33 431.41 Z" fill="url(#SVGID_13_)" fill-rule="nonzero" group-id="10" node-id="568" stroke="none" target-height="78.880005" target-width="79.03003" target-x="447.3" target-y="365.8"></path></g><g node-id="590"><path d="M 577.14 305.59 C 576.94 305.37 576.74 305.16 576.53 304.95 L 575.45 305.99 L 576.51 304.93 C 575.06 303.48 573.40 302.21 571.57 301.16 C 547.09 287.08 492.97 312.10 445.70 359.38 C 398.42 406.65 373.39 460.77 387.48 485.26 C 388.53 487.08 389.80 488.74 391.25 490.19 C 391.47 490.41 391.68 490.62 391.87 490.78 C 396.98 495.53 404.14 497.90 412.94 497.90 C 422.42 497.90 433.82 495.15 446.62 489.66 C 467.86 480.55 491.02 464.77 512.77 444.68 C 515.90 441.79 519.00 438.81 522.06 435.75 C 523.50 434.31 524.92 432.86 526.33 431.41 C 548.64 408.24 566.18 383.16 575.98 360.30 C 586.57 335.61 586.97 316.17 577.14 305.59 Z M 524.16 429.32 C 522.78 430.76 521.37 432.20 519.94 433.63 C 516.88 436.69 513.79 439.65 510.68 442.52 C 475.27 475.18 437.52 494.92 412.97 494.92 C 405.06 494.92 398.52 492.87 393.87 488.55 C 393.69 488.40 393.53 488.24 393.37 488.07 C 392.10 486.80 390.99 485.35 390.08 483.76 C 383.73 472.73 385.96 454.32 396.35 431.95 C 406.96 409.10 425.24 384.08 447.82 361.50 C 470.40 338.92 495.42 320.64 518.26 310.03 C 532.29 303.52 544.75 300.21 554.81 300.21 C 560.81 300.21 565.96 301.39 570.08 303.75 C 571.67 304.67 573.12 305.78 574.39 307.05 L 574.41 307.07 C 574.57 307.23 574.72 307.38 574.90 307.59 C 593.23 327.32 570.52 381.18 524.16 429.32 Z" fill="#ffffff" fill-rule="nonzero" group-id="11" node-id="573" stroke="none" target-height="210.82" target-width="219.83997" target-x="373.39" target-y="287.08"></path></g><g node-id="591"><path d="M 460.50 362.50 C 460.50 371.61 453.11 379.00 444.00 379.00 C 434.89 379.00 427.50 371.61 427.50 362.50 C 427.50 353.39 434.89 346.00 444.00 346.00 C 453.11 346.00 460.50 353.39 460.50 362.50 Z" fill="url(#SVGID_14_)" fill-rule="nonzero" group-id="12" node-id="578" stroke="none" target-height="33" target-width="33" target-x="427.5" target-y="346"></path></g><path d="M 318.21 493.39 C 316.48 493.39 315.07 494.91 315.07 496.79 L 315.07 507.25 C 315.07 509.13 316.47 510.65 318.21 510.65 C 319.95 510.65 321.35 509.13 321.35 507.25 L 321.35 496.79 C 321.35 494.91 319.95 493.39 318.21 493.39 Z" fill="#f5986a" fill-rule="evenodd" id="圆角矩形-5_1_" node-id="143" stroke="none" target-height="17.25998" target-width="6.279999" target-x="315.07" target-y="493.39"></path><path d="M 322.40 487.64 C 316.80 487.26 315.94 490.99 316.09 493.86 C 315.79 493.61 315.42 493.37 315.08 493.39 C 313.92 493.46 314.03 494.96 314.03 494.96 C 314.03 494.96 313.88 495.58 314.55 496.53 C 315.05 497.25 316.45 497.83 316.97 498.03 L 317.17 498.63 C 317.17 498.63 318.00 500.40 318.74 501.24 C 319.78 502.43 320.31 502.81 320.31 502.81 C 320.31 502.81 321.31 503.58 322.40 503.86 C 323.40 504.11 324.49 503.86 324.49 503.86 C 324.49 503.86 325.81 503.70 326.06 501.77 C 326.21 500.58 326.27 499.09 326.27 497.61 L 326.27 497.24 C 326.25 494.43 326.06 491.83 326.06 491.83 C 326.06 491.83 325.73 487.86 322.40 487.64 Z" fill="#f8ad72" fill-rule="evenodd" id="Combined-shape-564_1_" node-id="144" stroke="none" target-height="16.849976" target-width="12.389984" target-x="313.88" target-y="487.26"></path><path d="M 320.30 492.34 C 320.30 492.34 323.72 492.99 325.53 492.34 C 327.38 491.68 327.62 489.73 327.62 489.73 C 327.62 489.73 327.67 488.27 327.10 487.12 C 326.65 486.21 325.53 485.55 325.53 485.55 C 325.53 485.55 324.58 484.85 323.44 485.03 C 322.53 485.17 321.87 486.08 321.87 486.08 C 321.87 486.08 320.68 487.26 319.78 487.65 C 318.85 488.05 317.69 487.65 317.69 487.65 C 317.69 487.65 315.87 487.23 314.55 488.70 C 312.55 490.93 312.98 493.93 312.98 493.93 C 312.98 493.93 313.31 495.88 314.03 497.59 C 314.61 498.99 315.60 499.68 315.60 499.68 C 315.60 499.68 316.12 500.06 316.65 499.68 C 317.24 499.25 316.65 498.63 316.65 498.63 L 316.13 497.58 C 316.13 497.58 314.07 497.58 314.04 494.44 C 314.03 493.92 315.09 493.92 315.09 493.92 C 315.09 493.92 315.69 493.91 316.14 494.44 C 316.39 494.73 316.66 496.01 316.66 496.01 C 316.66 496.01 316.88 493.46 317.71 492.87 C 318.68 492.16 320.30 492.34 320.30 492.34 Z" fill="#272b73" fill-rule="evenodd" id="形状-17_1_" node-id="145" stroke="none" target-height="15.209991" target-width="15.120026" target-x="312.55" target-y="484.85"></path><path d="M 306.32 615.74 L 303.21 620.58 L 316.40 629.07 C 316.40 629.07 317.46 627.69 316.78 625.58 C 316.10 623.47 312.95 621.87 312.95 621.87 C 312.95 621.87 311.89 621.26 311.47 620.30 C 311.15 619.56 311.16 618.85 311.16 618.85 L 306.32 615.74 Z" fill="#262a71" fill-rule="evenodd" id="形状-30-拷贝_1_" node-id="146" stroke="none" target-height="13.330017" target-width="14.25" target-x="303.21" target-y="615.74"></path><path d="M 330.24 555.10 L 332.85 580.73 C 332.85 580.73 332.96 581.51 332.85 582.30 C 332.70 583.32 332.33 584.39 332.33 584.39 L 313.50 620.47 L 307.22 616.29 C 307.22 616.29 311.39 599.33 315.06 590.14 C 316.58 586.33 320.29 583.86 320.29 583.86 C 320.29 583.86 315.44 574.59 312.97 566.08 C 311.64 561.51 311.92 555.10 311.92 555.10 L 330.24 555.10 Z" fill="#151145" fill-rule="evenodd" id="形状-34_1_" node-id="147" stroke="none" target-height="65.369995" target-width="25.73999" target-x="307.22" target-y="555.1"></path><path d="M 325.53 554.05 C 325.53 554.05 325.05 570.04 323.44 585.95 C 321.44 605.71 318.21 626.22 318.21 626.22 L 312.46 626.22 C 312.46 626.22 309.63 607.26 309.32 594.32 C 309.13 586.19 310.89 581.77 310.89 581.77 C 310.89 581.77 309.09 573.95 307.75 566.08 C 306.80 560.49 306.70 554.05 306.70 554.05 L 325.53 554.05 Z" fill="#27327b" fill-rule="evenodd" id="形状-29-拷贝_1_" node-id="148" stroke="none" target-height="72.16998" target-width="18.829987" target-x="306.7" target-y="554.05"></path><path d="M 312.46 626.22 L 312.46 631.97 L 328.15 631.97 C 328.15 631.97 328.30 630.24 326.58 628.83 C 324.87 627.43 321.35 627.78 321.35 627.78 C 321.35 627.78 320.13 627.84 319.26 627.26 C 318.59 626.81 318.21 626.21 318.21 626.21 L 312.46 626.21 Z" fill="#2b3682" fill-rule="evenodd" id="形状-30_1_" node-id="149" stroke="none" target-height="5.7599487" target-width="15.839996" target-x="312.46" target-y="626.21"></path><path d="M 345.24 517.57 C 345.24 517.57 346.72 515.36 347.51 514.65 C 348.16 514.06 348.16 515.62 348.16 515.62 C 348.16 515.62 348.60 515.65 349.13 514.97 C 349.36 514.68 349.84 513.56 349.97 513.28 C 350.19 512.83 350.42 512.70 350.42 512.70 C 350.42 512.70 352.26 511.67 352.82 515.04 C 353.13 516.91 349.97 521.72 349.97 521.72 L 345.24 517.57 Z" fill="#f48d67" fill-rule="evenodd" id="形状-26-拷贝_1_" node-id="150" stroke="none" target-height="10.049957" target-width="7.8900146" target-x="345.24" target-y="511.67"></path><path d="M 330.24 514.31 L 334.95 528.95 L 344.89 517.44 L 349.60 521.62 L 336.00 538.88 C 336.00 538.88 335.19 539.40 334.43 539.40 C 333.62 539.40 332.86 538.88 332.86 538.88 L 326.06 533.13 L 330.24 514.31 Z" fill="#7aa1f8" fill-rule="evenodd" id="形状-31_1_" node-id="151" stroke="none" target-height="25.090027" target-width="23.540009" target-x="326.06" target-y="514.31"></path><path d="M 321.35 506.99 C 321.35 506.99 321.26 508.22 320.83 509.08 C 320.49 509.76 319.78 510.13 319.78 510.13 C 319.78 510.13 317.95 508.97 316.64 507.52 C 315.64 506.41 315.07 504.91 315.07 504.91 L 308.27 508.57 C 308.27 508.57 306.20 509.53 305.13 511.18 C 304.05 512.85 304.08 514.84 304.08 514.84 L 304.08 555.11 L 330.23 555.11 L 330.23 514.32 C 330.23 514.32 329.87 511.70 327.62 509.61 C 325.17 507.32 321.35 506.99 321.35 506.99 Z" fill="#7aa1f8" fill-rule="evenodd" id="形状-24_1_" node-id="152" stroke="none" target-height="50.19998" target-width="26.180023" target-x="304.05" target-y="504.91"></path><path d="M 310.89 520.58 L 307.23 530.52 L 316.12 544.64 L 311.94 549.34 L 304.09 546.21 L 304.09 540.98 L 304.09 520.58 Z" fill="#2b72d8" fill-rule="evenodd" id="形状-33_1_" node-id="153" stroke="none" target-height="28.76001" target-width="12.029999" target-x="304.09" target-y="520.58"></path><path d="M 316.44 545.16 C 316.44 545.16 318.53 546.80 319.18 547.64 C 319.72 548.33 318.16 548.22 318.16 548.22 C 318.16 548.22 318.10 548.66 318.74 549.24 C 319.01 549.49 320.10 550.05 320.36 550.20 C 320.80 550.45 320.91 550.70 320.91 550.70 C 320.91 550.70 321.81 552.62 318.41 552.92 C 316.52 553.09 311.96 549.58 311.96 549.58 L 316.44 545.16 Z" fill="#ef8d61" fill-rule="evenodd" id="形状-26_1_" node-id="154" stroke="none" target-height="7.9300537" target-width="9.850006" target-x="311.96" target-y="545.16"></path><path d="M 304.62 511.69 L 295.21 530.52 C 295.21 530.52 294.73 531.50 294.69 532.09 C 294.61 533.18 295.21 533.66 295.21 533.66 L 311.94 549.87 L 316.65 544.64 L 304.10 531.04 L 310.90 520.06" fill="#7aa1f8" fill-rule="evenodd" id="形状-32_1_" node-id="155" stroke="none" target-height="38.179993" target-width="22.040009" target-x="294.61" target-y="511.69"></path></svg>