<?xml version="1.0" standalone="no"?><!DOCTYPE svg PUBLIC "-//W3C//DTD SVG 1.1//EN" "http://www.w3.org/Graphics/SVG/1.1/DTD/svg11.dtd"><svg t="1699765975671" class="icon" viewBox="0 0 1024 1024" version="1.1" xmlns="http://www.w3.org/2000/svg" p-id="29639" xmlns:xlink="http://www.w3.org/1999/xlink" width="11" height="11"><path d="M778.778947 35.031579H245.221053C212.884211 35.031579 188.631579 61.978947 188.631579 94.315789v835.368422c0 32.336842 26.947368 59.284211 59.28421 59.28421h530.863158c32.336842 0 59.284211-26.947368 59.284211-59.28421v-835.368422c-2.694737-32.336842-26.947368-59.284211-59.284211-59.28421z m-180.547368 56.589474h-169.768421c-8.084211 0-16.168421-5.389474-16.168421-16.168421v-2.694737h199.410526v2.694737c0 8.084211-5.389474 16.168421-13.473684 16.168421z m199.410526 838.063158c0 10.778947-10.778947 21.557895-21.557894 21.557894H245.221053c-10.778947 0-21.557895-10.778947-21.557895-21.557894v-835.368422c0-10.778947 10.778947-21.557895 21.557895-21.557894h126.652631v2.694737c0 29.642105 24.252632 53.894737 53.894737 53.894736h169.768421c29.642105 0 53.894737-24.252632 53.894737-53.894736v-2.694737h126.652632c10.778947 0 21.557895 10.778947 21.557894 21.557894v835.368422z" fill="#5b08c3" p-id="29640"></path><path d="M512 786.863158c-37.726316 0-70.063158 32.336842-70.063158 70.063158 0 37.726316 32.336842 70.063158 70.063158 70.063158s70.063158-32.336842 70.063158-70.063158c0-37.726316-32.336842-70.063158-70.063158-70.063158z m0 102.4c-18.863158 0-32.336842-13.473684-32.336842-32.336842s13.473684-32.336842 32.336842-32.336842 32.336842 13.473684 32.336842 32.336842S530.863158 889.263158 512 889.263158z" fill="#5b08c3" p-id="29641"></path></svg>