<?xml version="1.0" standalone="no"?><!DOCTYPE svg PUBLIC "-//W3C//DTD SVG 1.1//EN" "http://www.w3.org/Graphics/SVG/1.1/DTD/svg11.dtd"><svg t="1707039326591" class="icon" viewBox="0 0 1024 1024" version="1.1" xmlns="http://www.w3.org/2000/svg" p-id="12256" width="32" height="32" xmlns:xlink="http://www.w3.org/1999/xlink"><path d="M64.2 788.9c14.5 1.7 29.2 2.6 43.8 2.6 86.1 0.1 165.3-28.8 228.1-77.3-80.3-1.8-148.2-54.6-171.5-127.2 27.4 5.5 55.9 4.6 82.9-2.6-84-17.3-147.4-91.5-147.4-179.9v-2.3c25.2 14.2 53.8 22.4 83.2 23.7-49.2-33.1-81.6-89.4-81.6-152.7-0.1-31.9 8.4-63.4 24.9-91.4 90.6 111.5 226 185.5 378.6 194.7-3.2-13.6-4.8-27.4-4.8-41.3 0-99.9 82.2-179.7 183.6-178.1 52.8 0.8 100.5 23.4 134 58.9 41.2-7.4 80.7-21.5 116.6-41.8-13.2 40.8-42 75.6-80.8 98.1 36.5-3.7 72.1-12.8 105.5-26.9-24.4 35.4-55.4 66.5-91.6 91.7 0.4 7.7 0.5 15.5 0.5 23.2 0 237.2-184.8 510.9-522.6 510.7-103.5 0-200.1-30.2-281.4-82.1z" fill="#ffffff" p-id="12257"></path></svg>